<?xml version="1.0" encoding="utf-8"?>
<!-- Generator: Adobe Illustrator 18.1.0, SVG Export Plug-In . SVG Version: 6.00 Build 0)  -->
<svg version="1.1" id="Layer_1" xmlns="http://www.w3.org/2000/svg" xmlns:xlink="http://www.w3.org/1999/xlink" x="0px" y="0px"
	 viewBox="0 0 923.9 341.3" enable-background="new 0 0 923.9 341.3" xml:space="preserve">
<path fill="#273166" d="M530.7,335.6l-1-3.1c-4.4,1.4-7.3,1.9-9.5,1.9c-6,0-9.4-5.3-9.4-15c0-9,3.5-14,10-14c2.3,0,4.9,0.3,8.2,1.1
	l0.7-3.2c-3.3-1-6.7-1.6-9.2-1.6c-9.2,0-14.3,6.4-14.3,18.3c0,11.5,5,18.2,13.2,18.2C522.5,338.3,526.5,337.3,530.7,335.6
	L530.7,335.6z"/>
<polygon fill="#273166" points="562.9,337.6 562.9,302.4 558.7,302.4 558.7,317.5 541.8,317.5 541.8,302.4 537.5,302.4 537.5,337.6 
	541.8,337.6 541.8,320.6 558.7,320.6 558.7,337.6 562.9,337.6 "/>
<polygon fill="#273166" points="575.6,337.6 575.6,302.4 571.4,302.4 571.4,337.6 575.6,337.6 "/>
<polygon fill="#273166" points="609.6,337.6 609.6,302.4 606,302.4 606,333.7 590.2,302.4 584.2,302.4 584.2,337.6 587.7,337.6 
	587.7,306.7 603.6,337.6 609.6,337.6 "/>
<path fill="#273166" d="M631.9,302.4h-4.8l-12.5,35.2h3.8l3.4-9.5H637l3.4,9.5h4.3L631.9,302.4z M622.8,324.9l6.3-18.9l6.6,18.9
	H622.8z"/>
<polygon fill="#273166" points="734.4,337.6 733.3,302.4 727.3,302.4 717.1,334.2 706.9,302.4 700.8,302.4 699.7,337.6 703.6,337.6 
	704.3,306.4 714.3,337.6 719.4,337.6 729.5,306.4 730.1,337.6 734.4,337.6 "/>
<path fill="#273166" d="M756.7,302.4h-4.8l-12.5,35.2h3.8l3.4-9.5h15.2l3.4,9.5h4.3L756.7,302.4z M747.7,324.9L754,306l6.6,18.9
	H747.7z"/>
<polygon fill="#273166" points="794.9,337.6 794.9,334.4 779.1,334.4 779.1,302.4 774.9,302.4 774.9,337.6 794.9,337.6 "/>
<path fill="#273166" d="M815.3,302.4h-4.8l-12.5,35.2h3.8l3.4-9.5h15.2l3.4,9.5h4.3L815.3,302.4z M806.2,324.9l6.3-18.9l6.6,18.9
	H806.2z"/>
<polygon fill="#273166" points="854,302.4 849.7,302.4 840.4,318.6 830.8,302.4 825.9,302.4 837.9,322.2 837.9,337.6 842.1,337.6 
	842.1,322.2 854,302.4 "/>
<path fill="#273166" d="M877.4,327.6c0-5.3-2-7.7-9.7-10c-6.6-2-7.5-3-7.5-6.1c0-3.8,2.7-5.9,6.6-5.9c2.2,0,4.9,0.4,8.3,1.1l0.7-3.1
	c-3.3-1-6.4-1.5-9.2-1.5c-6.5,0-10.6,3.7-10.6,9.7c0,8.1,8.1,8.6,13.8,11.2c2.7,1.2,3.4,2.5,3.4,5.1c0,3.8-3.3,6.3-7.8,6.3
	c-2.5,0-5.3-0.5-8.9-1.4l-0.9,3.2c3.9,1.2,6.7,1.6,10,1.6C872.7,337.9,877.4,334,877.4,327.6L877.4,327.6z"/>
<polygon fill="#273166" points="888.2,337.6 888.2,302.4 884,302.4 884,337.6 888.2,337.6 "/>
<path fill="#273166" d="M910.8,302.4H906l-12.5,35.2h3.8l3.4-9.5h15.2l3.4,9.5h4.3L910.8,302.4z M901.8,324.9l6.3-18.9l6.5,18.9
	H901.8z"/>
<path fill="#273166" d="M423.9,323.3v-20.9h-3.5v22.4c0,3.2-0.3,5-1,6.3c-1.3,2.3-3.9,3.5-7.7,3.5c-5.9,0-8.8-2.6-8.8-8.5v-23.8
	h-4.2v20.7c0,6.7,0.3,8.4,1.8,10.7c1.9,2.7,5.9,4.4,10.5,4.4c4.4,0,7.8-1.1,10-3.2C423.5,332.6,423.9,330.7,423.9,323.3L423.9,323.3
	z"/>
<polygon fill="#273166" points="456.4,337.6 440.3,318.7 456,302.4 451,302.4 435.7,318.4 435.7,302.4 431.5,302.4 431.5,337.6 
	435.7,337.6 435.7,319.4 451.2,337.6 456.4,337.6 "/>
<rect x="478.9" y="298.8" fill="#273166" width="1.7" height="42.4"/>
<rect x="668.8" y="298.8" fill="#273166" width="1.7" height="42.4"/>
<path fill="#273166" d="M910.3,250.7v-42.3c0-5.3-2.9-9.7-10-9.7c-4,0-6.9,1.1-9.3,3.5c0.7,2,0.9,4,0.9,8.2v40.3h-13.5v-42.3
	c0-4.9-1.3-10-10-10c-4.4,0-6,0.7-8.4,1.8v50.5h-13.5v-55.9c5.1-2.2,12.4-4.9,22.6-4.9c8.4,0,14,2,17.3,4.9c4-2.9,9.3-4.9,17.1-4.9
	c14.2,0,20.4,8.2,20.4,18.4v42.3H910.3L910.3,250.7z"/>
<path fill="#273166" d="M767.9,250.7v-41.5c0-5.8-2.4-10-10-10c-4.2,0-7.1,1.1-10,2.9v48.5h-13.5v-79.8h13.5V193
	c3.5-1.6,8.6-2.7,13.3-2.7c14.9,0,20.2,8.9,20.2,17.9v42.3H767.9L767.9,250.7z"/>
<path fill="#273166" d="M603.1,182.4c-5.1,0-7.8-3.4-7.8-7.2c0-3.8,2.7-7.1,7.8-7.1c4.9,0,7.8,3.4,7.8,7.1
	C611,179.1,608.1,182.4,603.1,182.4L603.1,182.4z"/>
<path fill="#273166" d="M653.3,250.7v-42.3c0-4.9-2-10-10.6-10c-4.4,0-6.6,0.7-9.1,1.8v50.5H620v-55.9c5.1-2.2,13.1-4.9,23.3-4.9
	c17.7,0,23.5,8.6,23.5,18.2v42.6H653.3L653.3,250.7z"/>
<polygon fill="#273166" points="596.4,250.7 596.4,191 609.9,191 609.9,250.7 596.4,250.7 "/>
<path fill="#273166" d="M578.7,251.3c-11.7,0-16.4-6.6-16.4-16.2v-35.5h-6.7V191h6.7v-12l13.5-3.8V191h9.5v8.6h-9.5v35.5
	c0,5.3,2.9,6.9,6.7,6.9c1.1,0,2.7,0,4-0.2v8.9C585.1,250.9,581.6,251.3,578.7,251.3L578.7,251.3z"/>
<path fill="#273166" d="M542.6,251.3c-11.7,0-16.4-6.6-16.4-16.2v-35.5h-6.7V191h6.7v-12l13.5-3.8V191h9.5v8.6h-9.5v35.5
	c0,5.3,2.9,6.9,6.7,6.9c1.1,0,2.7,0,4-0.2v8.9C549,250.9,545.5,251.3,542.6,251.3L542.6,251.3z"/>
<path fill="#273166" d="M444.3,250.7L416,202.8c-1.8-2.9-3.1-5.8-4.6-9.3h-0.2c0.4,3.8,0.7,6.9,0.7,9.7v47.4h-13.1v-76h14l26.4,44.8
	c1.5,2.7,2.9,5.1,4.2,8.6h0.2c-0.4-3.8-0.4-6.4-0.4-9.1v-44.3h13.1v76H444.3L444.3,250.7z"/>
<path fill="#273166" d="M813.5,189.9c-9.3,0-16.4,2.7-20.4,4.4l3.1,8.2c3.6-1.8,9.1-3.8,14.9-3.8c7.1,0,11.8,2,11.8,9.7v3.3
	c-1.1-0.2-5.1-0.9-8.6-0.9c-13.7,0-24.8,7.1-24.8,21.3c0,11.5,7.8,20.2,24.6,20.2c9.3,0,16.8-1.8,21.9-4.2v-37.5
	C835.9,195.2,825.9,189.9,813.5,189.9L813.5,189.9z M822.8,243.1c-1.6,0.7-4.9,1.6-8,1.6c-7.1,0-12-4.7-12-12.9
	c0-7.7,4.2-13.1,12.4-13.1c3.8,0,6.2,0.7,7.5,0.9V243.1L822.8,243.1z"/>
<path fill="#273166" d="M703.6,189.9c-19.2,0-28.7,12.2-28.7,31.5c0,18.6,9.5,29.7,23.9,29.7c5.3,0,9.3-0.9,11.7-2.2v3.8
	c0,8-4.2,13.1-14.2,13.1c-6.6,0-10.8-1.8-14.4-3.3l-3.8,8.4c4.4,2.4,11.5,4.4,20.6,4.4c14.8,0,25-8.2,25-23.9v-57.2
	C719.7,191.9,712.6,189.9,703.6,189.9L703.6,189.9z M710.5,240.2c-2,1.1-4.6,2-7.7,2c-9.5,0-13.7-7.1-13.7-20.8
	c0-14.2,4.4-23.1,14.4-23.1c2.9,0,5.1,0.2,7.1,1.3V240.2L710.5,240.2z"/>
<path fill="#273166" d="M490.1,189.9c-16.8,0-25.3,12.9-25.3,31c0,18,8.4,30.8,25.3,30.8c16.9,0,25.3-12.9,25.3-30.8
	C515.4,202.8,506.9,189.9,490.1,189.9L490.1,189.9z M491,243.6c-9.3,0-10.9-12-10.9-22.6c0-10.9,1.5-22.8,10.9-22.8
	c9.3,0,10.9,12,10.9,22.8C501.8,231.6,500.3,243.6,491,243.6L491,243.6z"/>
<path fill="#273166" d="M806.5,98.3c-5,0-6.1,2.4-6.1,6v1.9h7.1v7.4h-7.1V147h-10.8v-33.4h-4.5v-7.4h4.5v-2.9
	c0-8.2,5.3-12.6,14.2-12.6c1.8,0,3.2,0,4.7,0.3v7.4H806.5L806.5,98.3z"/>
<path fill="#273166" d="M705.5,163.3c-6.1,0-10.8-1.3-14-2.9l2.4-6.3c2.4,1.1,5.5,2.1,10,2.1c6.9,0,9-3.2,9-8.4v-2.6
	c-1.3,0.8-3.9,1.8-8.4,1.8c-10,0-14.5-5-14.5-13.2v-27.7h10.8v27.1c0,3.7,1.3,6.6,6.6,6.6c2.6,0,4.2-0.8,5.5-1.3v-32.4h10.8v39.2
	C723.7,158.3,716,163.3,705.5,163.3L705.5,163.3z"/>
<path fill="#273166" d="M676.5,147.5c-7.9,0-11.8-4.2-11.8-11.1v-22.9h-4.5v-7.4h4.5v-8.4l10.8-2.9v11.3h6.6v7.4h-6.6v21.9
	c0,3.7,1.8,4.7,4.5,4.7c1.3,0,2.4,0,3.7-0.3v6.8C682.6,147,680.5,147.5,676.5,147.5L676.5,147.5z"/>
<polygon fill="#273166" points="642.1,147 642.1,106.2 652.8,106.2 652.8,147 642.1,147 "/>
<path fill="#273166" d="M619.7,147.8c-5.3,0-9.5-1.3-12.6-2.9l2.6-6.8c2.1,1.1,5,2.4,8.4,2.4c3.9,0,6.3-1.3,6.3-4.5
	c0-2.9-1.8-4.2-6.6-6.1c-7.9-3.2-9.5-7.9-9.5-12.4c0-6.6,5-12.1,14-12.1c5,0,8.7,1.3,11.6,2.9l-2.9,6.3c-1.3-0.8-4.2-2.1-7.4-2.1
	c-3.7,0-5.5,1.6-5.5,4.2c0,2.9,2.9,4,6.6,5.5c8.2,3.2,10,7.9,10,12.9C634.7,142.5,628.7,147.8,619.7,147.8L619.7,147.8z"/>
<path fill="#273166" d="M603.7,113.5c-0.8-0.3-3.2-0.5-5-0.5c-1.8,0-3.4,0.3-4.5,0.5V147h-10.8v-38.5c1.6-0.8,7.9-2.9,15-2.9
	c4.2,0,5.3,0.3,6.8,0.5L603.7,113.5L603.7,113.5z"/>
<path fill="#273166" d="M490.3,101.2c-4,0-5.8-2.4-5.8-5.3c0-2.9,1.9-5.3,5.8-5.3c3.7,0,5.8,2.4,5.8,5.3
	C496.1,98.8,494,101.2,490.3,101.2L490.3,101.2z"/>
<path fill="#273166" d="M525.2,147h-10.3l-14-40.8h11.6l5.3,19.2c0.5,1.8,1.8,6.6,2.4,9h0.3c0.3-2.4,1.6-7.1,2.1-9l5.5-19.2h10.8
	L525.2,147L525.2,147z"/>
<polygon fill="#273166" points="484.7,147 484.7,106.2 495.5,106.2 495.5,147 484.7,147 "/>
<path fill="#273166" d="M647.7,101.2c-3.9,0-5.8-2.4-5.8-5.3c0-2.9,1.9-5.3,5.8-5.3c3.7,0,5.8,2.4,5.8,5.3
	C653.5,98.8,651.4,101.2,647.7,101.2L647.7,101.2z"/>
<path fill="#273166" d="M466.2,147v-28.7c0-2.9-1.3-5.8-6.6-5.8c-2.6,0-4.2,0.5-5.5,1.1V147h-10.8v-38.5c4.5-1.8,10-3.2,16.8-3.2
	c12.4,0,16.9,6.1,16.9,12.9V147H466.2L466.2,147z"/>
<path fill="#273166" d="M417.1,147.8c-10.5,0-18.4-5.5-18.4-16.3V95.1H410v36.4c0,5,2.6,7.6,7.1,7.6c4.5,0,7.1-2.6,7.1-7.6V95.1
	h11.3v36.4C435.6,142.3,427.7,147.8,417.1,147.8L417.1,147.8z"/>
<path fill="#273166" d="M763.2,105.4c-12.1,0-17.9,9-17.9,21.1c0,12.4,5.8,21.3,17.9,21.3c12.1,0,17.9-9,17.9-21.3
	C781.1,114.3,775.3,105.4,763.2,105.4L763.2,105.4z M763.2,140.7c-5.5,0-6.8-6.3-6.8-14.2c0-7.6,1.3-14,6.8-14c5.5,0,6.9,6.3,6.9,14
	C770,134.4,768.7,140.7,763.2,140.7L763.2,140.7z"/>
<path fill="#273166" d="M576.5,125.7c0-12.9-6.6-20.3-17.7-20.3c-11.3,0-18.2,7.9-18.2,21.1c0,13.7,7.6,21.3,19.8,21.3
	c6.3,0,11.1-1.3,14.5-3.2l-2.6-7.1c-2.9,1.3-6.1,2.4-10.8,2.4c-5,0-9.5-2.1-10.3-10h25.3V125.7L576.5,125.7z M566.2,123H551
	c0-7.9,3.2-10.8,7.6-10.8c4.2,0,7.6,2.6,7.6,10.3V123L566.2,123z"/>
<radialGradient id="SVGID_1_" cx="-2.9944" cy="-30.8007" r="431.6973" gradientUnits="userSpaceOnUse">
	<stop  offset="0" style="stop-color:#009BBD"/>
	<stop  offset="0.1735" style="stop-color:#059BBD"/>
	<stop  offset="1" style="stop-color:#263166"/>
</radialGradient>
<rect x="0" y="0" fill="url(#SVGID_1_)" width="341.3" height="341.3"/>
<g>
	<path fill="#FFFFFF" d="M230.5,82.1c-7.7-4.2-15-7.5-24.9-9.9v20.3c8.8,2,17.2,5.1,24.9,8.6V82.1z"/>
	<path fill="#FFFFFF" d="M196.7,148.6c-2.4,0-4.4,2-4.4,4.6l-1.3,41.5h11.7l-1.6-41.5C201.1,150.6,199.3,148.6,196.7,148.6z"/>
	<path fill="#FFFFFF" d="M207.1,262.9c-12.4,0-21.2-2.9-32.4-8.6c-12.1-6.2-25.6-11.5-42.8-11.5c-16.1,0-33.3,5.7-46.4,25.2
		c15.7-9.7,30.2-12.8,42.4-12.8c13,0,23,3.3,33.1,8.6c11.5,6,21.4,10.2,35.8,10.2c13.9,0,29.6-5.3,43-22.9
		C228.9,260,217.4,262.9,207.1,262.9z"/>
	<path fill="#FFFFFF" d="M138.4,236c11,0,23.8,3.1,38.2,11V206l-6-7.5v-56.9l11.7-18.1l-4.9,17.4c3.3-0.4,6.6-0.7,10.2-0.7
		c11.5,0,22.1,2,31.1,5.5l11.7-10.8v-29.4c-7.7-3.5-16.1-6.4-24.9-8.6c-5.3-1.3-11-2.2-16.8-2.9V68.7c-6.2-0.9-12.6-1.3-19.2-1.3
		c-6.2,0-12.4,0.4-18.3,1.1v24.1c-5.7,0.7-11.3,1.8-16.6,3.1V71.8c-9.5,2.6-18.5,6.4-26.7,11v49.4l11.3,10.8l-3.3,55.6l-9.1,9.1
		v32.2l3.1,3.3C117.4,239.3,126.9,236,138.4,236z M136.7,153.2c0-2.6,2-4.6,4.4-4.6c2.4,0,4.4,2,4.4,4.6l1.5,41.5h-11.7L136.7,153.2
		z"/>
</g>
</svg>
