<?xml version="1.0" encoding="utf-8"?>
<!-- Generator: Adobe Illustrator 19.2.1, SVG Export Plug-In . SVG Version: 6.00 Build 0)  -->
<svg version="1.1" id="Layer_1" xmlns="http://www.w3.org/2000/svg" xmlns:xlink="http://www.w3.org/1999/xlink" x="0px" y="0px"
	 viewBox="0 0 846.1 459.6" style="enable-background:new 0 0 846.1 459.6;" xml:space="preserve">
<style type="text/css">
	.st0{fill:#005192;}
</style>
<g>
	<path class="st0" d="M41.4,120.2C7.2,120.2,0,101.5,0,81.6V10h17.5v70.3c0,14.5,4.8,25.4,24.9,25.4c17.7,0,25.8-7.4,25.8-27.7V10
		h17.2v66.8C85.5,105.7,69.8,120.2,41.4,120.2z"/>
	<path class="st0" d="M157.7,118.6V67.3c0-10-2.7-15.9-12.1-15.9c-11.9,0-20.9,12.7-20.9,28.8v38.5h-17.1V52
		c-3.9-0.6-7.2-1.3-11.9-1.6V39.7c9-1,18.5-1.6,28.3-1.1c0,4.2-0.5,11.1-1.3,15.8h0.3c4.7-10.3,14.3-17.4,27.7-17.4
		c18.2,0,24,11.6,24,25.6v56H157.7z"/>
	<path class="st0" d="M194.7,118.6V52c-3.9-0.6-7.3-1.3-11.9-1.6V39.7c9-1,18.5-1.6,29-1.1v80H194.7z M203.2,24.1
		c-5.8,0-10.6-4.5-10.6-10.5c0-5.8,4.8-10.5,10.6-10.5c5.9,0,10.8,4.7,10.8,10.5C214,19.5,209.1,24.1,203.2,24.1z"/>
	<path class="st0" d="M269.2,118.6h-17.5l-29.9-80h19l15,42.3c1.9,5.5,3.7,11.1,5.1,16.4h0.2c1.3-5,2.9-10.6,4.7-15.8l15.3-43h18.5
		L269.2,118.6z"/>
	<path class="st0" d="M368.4,80h-51c-0.5,18.2,7.7,26.4,23.7,26.4c7.7,0,15.8-1.6,23-4.8l2.3,13.5c-8.4,3.4-18.3,5.1-28.3,5.1
		c-24.6,0-38.3-12.9-38.3-41c0-24.1,13.2-42.2,36.5-42.2c22.8,0,32.7,15.6,32.7,34.6C368.9,73.9,368.8,76.6,368.4,80z M335.6,49.7
		c-9.7,0-16.4,7.1-17.9,18.3h34C352,56.6,345.7,49.7,335.6,49.7z"/>
	<path class="st0" d="M426.2,54.1c-16.7-3.2-24.5,8-24.5,32v32.5h-17V52c-3.9-0.6-7.3-1.3-11.9-1.6V39.7c9-1,18.5-1.6,28.3-1.1
		c0,4.5-0.6,11.6-1.6,17.7h0.3c3.5-10.8,11.4-20.8,27.2-19.2L426.2,54.1z"/>
	<path class="st0" d="M452.5,120.2c-6.1,0-12.7-0.8-17.7-2.3l1.3-14.6c5,1.9,11.4,3.1,17.5,3.1c9,0,15.3-4,15.3-10.5
		c0-16.4-35.1-6.4-35.1-34.1c0-14,10.6-24.8,32.7-24.8c4.8,0,10.5,0.6,15.1,1.6l-1,13.8c-4.7-1.4-10-2.3-15.1-2.3
		c-9.5,0-14,3.9-14,10c0,15.8,35.4,7.1,35.4,34C486.9,109.3,473.7,120.2,452.5,120.2z"/>
	<path class="st0" d="M502.8,118.6V52c-3.9-0.6-7.3-1.3-11.9-1.6V39.7c9-1,18.5-1.6,29-1.1v80H502.8z M511.4,24.1
		c-5.8,0-10.6-4.5-10.6-10.5c0-5.8,4.8-10.5,10.6-10.5c5.9,0,10.8,4.7,10.8,10.5C522.1,19.5,517.3,24.1,511.4,24.1z"/>
	<path class="st0" d="M567.7,120.1c-17.1,0-22.2-6.6-22.2-24.5V52h-15.3V38.6h15.3V13.2l17.2-4.7v30.1h20.9V52h-20.9v38.3
		c0,11.9,2.4,15.1,10.5,15.1c3.5,0,6.9-0.5,9.8-1.1l1.4,13.8C579.6,119.2,573,120.1,567.7,120.1z"/>
	<path class="st0" d="M636.4,124.2c-10,26.7-20.6,34.9-38.8,34.9c-3.1,0-7.4-0.5-10.1-1l1.9-15c2.7,0.8,6.6,1.3,9.8,1.3
		c7.6,0,14.7-3.7,20-18l2.9-7.9l-29.9-80h19.3l13,36.5c2.6,7.1,4.5,14.2,6.3,20.9h0.2c1.6-6.4,5-16.9,7.9-24.9l11.4-32.5h18.5
		L636.4,124.2z"/>
	<path class="st0" d="M741,120.2c-22.2,0-36.7-12.4-36.7-40.5c0-24.1,15.6-42.6,39.9-42.6c21.4,0,36.5,11.9,36.5,40.1
		C780.8,101.7,764.7,120.2,741,120.2z M742.8,51.5c-10.5,0-20.6,8-20.6,26.4c0,18,7.1,27.5,20.4,27.5c11.1,0,20.4-8.7,20.4-27.2
		C763.1,61.2,756.5,51.5,742.8,51.5z"/>
	<path class="st0" d="M843.8,15.6c-3.5-1.1-7.4-1.6-10.9-1.6c-10.3,0-15,5.6-15,18.2v6.4h20.8V52h-20.8v66.6h-17.1V52h-15.3V38.6
		h15.3v-6.1c0-21.9,10.5-32.5,31.2-32.5c4.5,0,8.8,0.5,13,1.4L843.8,15.6z"/>
	<path class="st0" d="M600.8,454.1V310.3c0-27.9-8.9-44.6-39.3-44.6c-38.8,0-68.2,35.6-68.2,80.7v107.7h-55.6V267.5
		c-12.6-1.8-21-4.1-37.2-4.5v-29.7c29.4-2.7,58.7-4.5,90.7-3.2c0,11.7-1.6,31.1-4.2,44.2h0.3c15.2-28.8,47.4-48.7,91-48.7
		c59.3,0,78.2,32.4,78.2,71.6v156.8H600.8z"/>
	<path class="st0" d="M791.4,458.1c-55.7,0-72.5-18.5-72.5-68.5V267.5H671v-37.4h47.8v-69.1l56.2-13.1v82.1h68.3v37.4h-68.3v107.2
		c0,33.3,7.9,42.4,34.2,42.4c11.6,0,22.6-1.4,32.1-3.2l4.7,38.7C830.3,455.9,808.7,458.1,791.4,458.1z"/>
	<path class="st0" d="M380.6,408l8.2,37.8c0,0-39.9,13.7-89.9,13.7c-122.5,3.6-178.6-75.8-188.8-88.2c-9.5-11.6-54.5-65.9-54.5-65.9
		v148.7H0V150h55.6v141l118.1-141H238L110,296.4c0,0,33.8,41.6,47.5,56.5C179.7,377.1,249.5,453.4,380.6,408z"/>
	<path class="st0" d="M171.5,340.3c10.2,11.2,31.6,34.4,64.6,49.1c2.5,1.1,5.1,2.2,7.6,3.2c-9.6-13.5-15.5-32.7-15.5-59.6
		c0-37.4,15.5-71.7,60.7-71.7c33.6,0,54.5,19.3,53.4,51.3l0,0.4c-33-1.4-65,1.5-95.3,4.2v29.7l150.1,8.2c1.1-9.5,2.2-26.3,2.2-32.6
		c0-53.2-32-96.9-110.7-96.9c-82.8,0-117.7,59.4-117.7,107.4c0,2.1,0,4.1,0.1,6.2C171,339.9,171.2,340,171.5,340.3z"/>
</g>
</svg>
