<?xml version="1.0" encoding="utf-8"?>
<!-- Generator: Adobe Illustrator 18.1.0, SVG Export Plug-In . SVG Version: 6.00 Build 0)  -->
<svg version="1.1" id="Layer_1" xmlns="http://www.w3.org/2000/svg" xmlns:xlink="http://www.w3.org/1999/xlink" x="0px" y="0px"
	 viewBox="0 0 1009.1 317.5" enable-background="new 0 0 1009.1 317.5" xml:space="preserve">
<g>
	<path fill="#BEC0C2" d="M1009.1,104.4v23.3c0,43.2-21.2,138.8-125.4,189.7c-104.2-50.9-125.4-146.5-125.4-189.7v-23.3H1009.1z"/>
	<path fill="#B20E10" d="M883.6,0c0,0,81.8-1.2,125.4,16v88.4H758.2V16C801.8-1.2,883.6,0,883.6,0"/>
	<path fill="#FFFFFF" d="M785.5,25.8c-0.2,0-0.4,0.1-0.6,0.1c0.2-0.2,0.4-0.5,0.7-0.8c0.5-0.4,1.3-0.8,2.2-0.8
		c0.8,0,1.7,0.3,2.8,1.1c-0.2,0.1-0.3,0.2-0.5,0.3c-0.3,0.3-0.6,0.5-0.9,0.8c-0.4-0.3-1.3-0.9-2.6-0.9
		C786.2,25.7,785.9,25.8,785.5,25.8z M788,33.5c-0.7-0.2-1.2-0.3-1.8-0.3c-1.4,0-2.2,0.6-2.7,1.3c-0.4,0.5-0.6,1-0.7,1.4
		c0.2-0.1,0.3-0.2,0.5-0.3c1-0.6,1.8-0.8,2.5-0.8c0.5,0,0.9,0.1,1.1,0.2C787.4,34.2,787.9,33.7,788,33.5C788,33.5,788,33.5,788,33.5
		z M788.9,29.2c-0.1,0.2-0.1,0.2-0.1,0.2v0l0,0l0,0l-0.1,0.1c0,0.1-0.1,0.3-0.1,0.5c0,0.3,0.1,0.7,0.7,1.1c0.7,0.4,2.1,1.3,3.2,2
		c0.4-1.1,1-2,1.8-2.8l-1.7-3.3l0,0l0,0l0-0.1l-0.2-0.2c-0.1-0.2-0.3-0.3-0.6-0.3c-0.2,0-0.5,0.1-0.9,0.4
		C789.9,27.7,789.2,28.7,788.9,29.2z M795.1,85.9c-0.4,0.8-0.5,1.6-0.5,2.2c0,0.1,0,0.1,0,0.1c0.1-0.1,0.1-0.2,0.2-0.4
		c0.7-1.2,1.7-1.9,2.4-2.2c-0.1-0.5-0.2-1.1-0.3-1.6C796,84.5,795.5,85.2,795.1,85.9z M798.4,46.3c1.6,1.3,2.5,1.8,3.1,1.7
		c0.3,0,0.6-0.1,0.9-0.4c0.2-0.2,0.4-0.5,0.7-0.9c0.2-0.3,0.3-0.7,0.3-1.2c0-0.8-0.3-1.6-0.5-2v0c-0.2-0.4-3.8-8.6-4.8-12
		c-0.1-0.4-0.1-1-0.2-1.2l-0.1-0.1c-0.1,0-0.1-0.1-0.3-0.1c-0.3,0-0.6,0.1-1,0.3c-2.2,1.3-3,3.3-3,5.5
		C793.4,40,796.4,44.7,798.4,46.3z M792.1,35.3c0-0.2,0-0.3,0-0.4c0-0.2-1.3-0.7-1.5-0.8c-0.5-0.1-1.2-0.1-1.5,0.4
		c-0.4,0.5-1.1,1.6-1.1,2.6c0,0.4,0.1,0.7,0.3,1c0.2,0.3,0.6,0.5,1.2,0.7c1.1,0.3,2.2,0.7,3.1,0.9c-0.4-1.2-0.6-2.4-0.6-3.7
		C792,35.8,792,35.5,792.1,35.3z M797.7,21.8c0.1,0,0.2,0,0.3,0c0.6,0,1.1,0.2,1.4,0.4c-0.2-1.6-0.7-2.5-1.4-3
		c-0.7-0.6-1.6-0.7-2.3-0.7c-0.2,0-0.3,0-0.4,0c0.2,0.1,0.3,0.2,0.5,0.4C797.3,19.9,797.6,21.1,797.7,21.8z M794.6,26.3
		c0.1,0.5,0.3,1,0.5,1.6c0,0.1,0.6,1.6,0.5,1.6c0.1,0,0.1-0.1,0.2-0.1c0,0,0,0,0,0c0.5-0.3,1.1-0.5,1.6-0.5c0.3,0,0.5,0.1,0.7,0.1
		c0.2-0.4,0.4-1,0.6-1.6c0.2-0.7,0.4-1.4,0.5-1.7c0-0.2,0.1-0.5,0.1-0.9c0-0.4-0.1-0.8-0.2-1.1c-0.2-0.3-0.4-0.5-0.9-0.5
		c-0.2,0-0.4,0-0.7,0.1c-0.9,0.2-2.1,0.5-2.6,1.3C794.4,25.1,794.5,25.7,794.6,26.3L794.6,26.3z M809.4,27.9
		c0.8-1.1,1.1-2.1,1.1-2.8c0-0.9-0.4-1.6-0.8-2.2c-0.3-0.3-0.6-0.6-0.8-0.7c0,0.2,0.1,0.4,0.1,0.6c0.1,0.4,0.1,0.8,0.1,1.1
		c0,1.4-0.6,2.2-0.9,2.6C808.6,26.8,809.1,27.3,809.4,27.9z M837.7,22.2l0-0.1c0-0.4,0.4-1,0.6-1.3c0.3-0.5,1-1.1,0.7-1.7
		c-0.2-0.4-0.6-0.6-0.6-1.1c0-0.2,0.1-0.4,0.4-0.6c0.3-0.2,0.6-0.3,1-0.4c1.1-0.3,4.5-1.5,4.5-1.5c0.3-0.3,0.4-0.6,0.8-1
		c0.4-0.3,1.1-0.7,2.5-1c3.5-0.7,13.3-1.4,14.2-1.4c0.3,0,0.7,0.2,1.1,0.5c0.6,0.5,1.3,1.2,1.8,1.8c0.2,0.3,0.5,0.6,0.6,0.8
		c0.1,0.2,0.2,0.3,0.2,0.3l0.1,0.2l0.2-0.1c0,0,0.2-0.1,0.4-0.2c0.2-0.1,0.5-0.1,0.8-0.1c0.4,0,0.8,0.1,1.2,0.4
		c0.4,0.3,0.7,0.8,0.9,1.6c0.1,0.4,0.2,0.8,0.2,1.2c0,2.4-1.6,4.7-2.7,5.9l-0.1,0.1l0.1,0.1c3.6,5.3,4.3,10.3,4.3,11.9
		c-0.4-0.6-1.1-1.7-1.1-1.7c0,0-0.1-0.2-0.3-0.3c-0.2-0.2-0.4-0.4-0.6-0.5c-0.1,0-0.2,0-0.3,0c-0.2,0-0.4,0.1-0.5,0.2
		c-0.1,0.1-0.2,0.3-0.2,0.5c0,0.2,0.1,0.4,0.2,0.7c1.6,4.6,1.9,9.5,1.9,12.2c0,0.1,0,0.2,0,0.2c-0.6-1-1.6-2.5-1.6-2.5
		c-0.3-0.5-0.6-0.8-1-0.8c-0.2,0-0.4,0.1-0.4,0.2c-0.1,0.1-0.2,0.3-0.2,0.5c0,0.1,0,0.2,0.1,0.4c0.8,2.2,1.1,4.2,1.1,6.1
		c0,2.5-0.5,4.7-1.1,6.2c-0.3,0.8-0.5,1.4-0.7,1.8c-0.1,0.1-0.1,0.2-0.2,0.3c-0.1-0.2-0.3-0.5-0.5-0.8c-0.4-0.7-0.8-1.5-1.1-2.1
		c-0.1-0.3-0.3-0.5-0.4-0.7c-0.2-0.2-0.3-0.3-0.5-0.3c-0.2,0-0.4,0.1-0.5,0.3c-0.1,0.2-0.1,0.4-0.1,0.7c0,0.1,0,0.2,0,0.3
		c0,0.5,0.1,0.9,0.1,1.4c0,4.3-1.7,7.3-3.4,9.2c-0.8,1-1.7,1.7-2.3,2.1c-0.3,0.2-0.5,0.4-0.7,0.5c0-1.1,0-4.7,0-6.1
		c0-0.3-0.1-0.5-0.2-0.7c-0.1-0.2-0.3-0.3-0.5-0.3c-0.1,0-0.3,0.1-0.4,0.1c-0.1,0.1-0.2,0.2-0.3,0.4c-1.2,2.8-2.4,4.4-3.5,5.3
		c-1.1,0.9-2,1.1-2.6,1.1c-0.3,0-0.6-0.1-0.7-0.1c0.1-0.3,0.4-0.7,0.6-1.2c0.4-0.8,0.8-1.8,0.8-2.8c0-0.7-0.2-1.3-0.7-1.8
		c-0.5-0.5-1.4-0.8-2.7-0.8c-0.4,0-0.8,0-1.2,0.1c-2.9,0.3-7,2.2-10.4,3.9c-2.9,1.5-5.2,2.9-5.9,3.3c-0.7-1.4-0.9-2.7-0.9-3.9
		c0-1.7,0.5-3,1.1-4c0.3-0.5,0.5-0.8,0.7-1.1c0.1-0.1,0.2-0.2,0.2-0.3l0.1-0.1c0,0,0.1-0.1,0.2-0.3c0.1-0.2,0.2-0.4,0.2-0.6
		c0-0.2-0.1-0.3-0.2-0.4c-0.2-0.1-0.4-0.2-0.6-0.2c-1.5,0.2-2.6,0.7-3.4,1.2c-0.6,0.4-1,0.8-1.4,1c0.2-4.6,1.9-7.6,3.7-9.5
		c1.8-2,3.8-2.8,4.3-3c0.4-0.2,0.6-0.3,0.8-0.5c0.2-0.2,0.2-0.4,0.2-0.5c0-0.1,0-0.2,0-0.3c0-0.2-0.1-0.3-0.2-0.3
		c-0.3-0.2-0.7-0.2-0.7-0.3c0,0-1-0.2-2.1-0.4c-0.5-0.1-1.1-0.2-1.4-0.3c-0.1,0-0.3-0.1-0.4-0.1c3.1-3.8,7.4-4.4,9.8-4.4
		c0.5,0,1,0,1.3,0.1c0.1,0,0.3,0,0.3,0c0.1,0,0.1,0,0.1,0c0.2,0,0.3,0,0.5,0c0.4,0,0.7-0.1,0.9-0.2c0.2-0.1,0.3-0.3,0.3-0.6
		c0-0.3-0.2-0.4-0.3-0.5c-0.1-0.1-0.2-0.2-0.2-0.2c0,0-0.1,0-0.1,0c-0.2-0.1-0.6-0.3-1.8-1c-0.4-0.2-0.6-0.4-0.7-0.5
		c-0.1-0.1-0.1-0.2-0.1-0.3l0-0.1c0.2,0,0.7,0,1.3,0.1c0.7,0.1,1.6,0.1,1.9,0.2c1.1,0.4,2.1,0.6,2.9,0.6c1.6,0,2.7-0.7,3.5-1.4
		c0.8-0.8,1.2-1.6,1.4-2.1c0.2-0.4,0.3-0.8,0.3-1.1c0-0.7-0.4-1.3-1-1.4c-0.3-0.1-0.9-0.2-1.6-0.2c-0.8,0-1.6,0.2-2.3,0.8
		c-0.5,0.5-0.8,0.6-1.1,0.6c-0.1,0-0.3,0-0.3-0.1l-0.1-0.1c0,0-1.5-1.4-1.5-1.4c-0.6-0.2-1-0.3-1.2-0.5c-0.2-0.1-0.2-0.2-0.2-0.3
		l0.1-0.1c0.1-0.1,0.1-0.1,0.2-0.2c0.8-0.5,1.3-0.6,1.9-0.6c0.7,0,1.7,0.2,3.5,0.2c0.3,0,0.6,0,0.9,0c1.3,0,2.1-0.5,2.6-1.1
		c0.5-0.6,0.6-1.3,0.6-1.9c0-0.8-0.2-1.5-0.2-1.5c0,0-0.9-2.5-2.7-5.4c-0.5-0.8-1.2-1.1-1.9-1.1c-1,0-1.9,0.6-2.6,1.1
		c-0.7,0.5-1.2,1-1.2,1.1c-0.6,0.6-1.3,0.8-1.8,0.8c-0.6,0-1.2-0.3-1.7-0.7C838,23.4,837.7,22.8,837.7,22.2z M847,17.3
		c0.5,0.2,0.9,0.5,1.3,0.8c0,0,0.1,0.1,0.1,0.1l0.1-0.1c0,0,0.5-0.5,1.1-0.9c0.2-0.2,1.2-0.8,1.1-1.2c-0.1-0.6-2.8,0.1-3.2,0.2
		c-0.4,0.1-0.7,0.2-0.9,0.3c-0.1,0.1-0.2,0.1-0.3,0.2l-0.1,0.1C846,17.1,846.9,17.2,847,17.3z M799.4,31.2c0.7,2.4,3,7.8,4.1,10.4
		c0.4,0.8,0.6,1.3,0.6,1.4c0,0,0.6,1.2,0.6,2.6c0,0.7-0.1,1.3-0.5,1.9c-0.5,0.8-1,1.4-1,1.4l0,0l0,0h0l0,0l-0.1,0.1
		c0,0.1-0.1,0.1-0.2,0.3c-0.1,0.2-0.2,0.6-0.2,1c0,0.4,0.1,0.9,0.4,1.6c0,0,0.4,0.8,0.9,1.6c0.5,0.9,1.1,1.9,1.4,2.3
		c0.1,0.2,0.3,0.3,0.4,0.5c0.1,0.1,0.2,0.2,0.3,0.2l0-0.1c0-0.1,0.1-0.4,0.1-0.8c0-0.1,0-0.1,0-0.2v-0.1c0-0.5,0.1-1.3,0.1-1.7
		c0-0.5,0.4-0.7,0.8-0.7c0.3,0,0.6,0.2,0.7,0.6c0.1,0.4,0.2,1.1,0.5,1.8v0c0,0,0,0.1,0.1,0.2c0.1,0.1,0.1,0.3,0.3,0.6
		c0.2,0.5,0.6,1.2,1.1,1.9c0.9,1.4,2.3,3,4.2,3.8c0-0.2,0-0.5,0-0.7c0-0.9-0.1-1.6-0.1-1.8c0,0,0-0.1,0-0.2c0-0.1,0-0.2,0.1-0.4
		c0-0.1,0.2-0.3,0.4-0.3h0h0l0,0c0.2,0,0.3,0.1,0.4,0.1c0.1,0.1,0.2,0.2,0.3,0.3c0.1,0.1,0.2,0.2,0.2,0.3h0l0.1,0.1
		c0,0,0.1,0.1,0.3,0.4c0.2,0.3,0.4,0.6,0.8,1.1c0.7,0.9,1.6,2.1,2.7,3.4c2,2.3,4.6,4.5,6.9,5c-0.1-0.7-0.2-1.3-0.2-2
		c0-1.3,0.3-2.6,0.8-3.8c-0.3,0.2-0.5,0.4-0.7,0.5l-3.3,2.8l0.2-4.3c0.2-4.3,1.6-7.9,4.2-10.7c0.8-0.8,1.7-1.6,2.6-2.2
		c-0.4-0.1-0.7-0.2-1-0.2c-0.2,0-0.3-0.1-0.4-0.1l-0.9-0.3c-5.7-0.8-14-3.3-21.8-10.7c-0.9-0.8-1.9-2.4-1.9-4c0-0.9,0.3-1.8,0.9-2.6
		c0.7-0.8,1.7-1.6,3.3-2.1l0,0h0l0,0l0.1,0l0.2-0.1c0.1-0.1,0.2-0.2,0.2-0.4c0-0.3-0.2-0.8-1.2-1.6c-1.3-1-2.2-1.7-2.8-2.1
		c-0.6-0.5-0.9-0.7-0.9-0.7l0,0l0,0l-0.1,0c-0.1,0-0.3,0.1-0.7,0.4c-0.7,0.7-3.1,2.7-3.1,5.3C799.3,30.5,799.3,30.8,799.4,31.2z
		 M808.2,74.7L808.2,74.7l0-0.2c0-0.2-0.1-0.6-0.6-1c-0.4-0.4-0.9-0.8-1.3-1.1c-0.3-0.3-0.5-0.4-0.6-0.5l0,0c-0.1,0-0.1,0-0.2,0
		c-0.2,0-0.4,0-0.7,0.2c-0.1,0-0.2,0.1-0.3,0.2c-0.2,0.1-0.4,0.2-0.6,0.3c-0.5,0.3-1.1,0.6-1.7,1.1c0.1,0.1,0.2,0.3,0.3,0.4
		c0.8,0.9,1.9,2,3.4,2.7c0.6,0.3,1.3,0.5,2,0.7c-0.1-0.3-0.1-0.6-0.1-0.8C807.8,75.6,808.2,74.8,808.2,74.7L808.2,74.7z M798,74.3
		c-1.2,0-2.1,0.5-2.7,1c-0.4,0.3-0.6,0.6-0.8,0.9c0.1-0.1,0.3-0.1,0.4-0.2c0.7-0.3,1.3-0.4,1.8-0.4c0.5,0,1,0.1,1.4,0.2
		c0.3-0.5,0.7-0.9,1.1-1.4C798.8,74.4,798.4,74.3,798,74.3z M806,68c-0.7-0.4-1.5-0.6-2.1-0.7c0.1,0.1,0.2,0.2,0.3,0.3
		c1.5,1.1,1.8,2.4,1.9,3.1c0.1,0,0.2,0.1,0.2,0.1l0.1,0.1l0,0l0.1,0.1l0,0c0,0,0.7,0.6,1.5,1.2C807.9,69.8,807,68.6,806,68z
		 M958.9,78.8L958.9,78.8c0.3-0.2,0.6-0.5,1-0.9c0.1-0.2,0.3-0.3,0.5-0.4c-0.8-0.3-1.5-0.5-2.1-0.5c-1.1,0-2,0.4-2.6,0.9
		c-0.3,0.3-0.6,0.5-0.8,0.8c0.1-0.1,0.3-0.1,0.4-0.2c0.7-0.2,1.3-0.3,1.8-0.3C957.9,78.3,958.5,78.6,958.9,78.8L958.9,78.8z
		 M958.7,81.9c0,0.9,0.6,1.9,1.1,2.5c0.4,0.5,1,0.6,1.5,0.7c0.6,0.1,1.2,0.3,1.9,0.2c0.5,0,1.8-0.2,1.3-0.9
		c-0.3-0.4-0.6-0.7-0.8-1.1c-0.2-0.5-0.4-1-0.6-1.5c-0.3-0.7-0.4-1.4-0.5-2.2c0-0.2-0.1-0.5-0.3-0.8c-0.2-0.3-0.4-0.4-0.6-0.4
		c-0.2,0-0.4,0.1-0.7,0.4c-1.2,1.3-1.4,1.5-1.9,2C958.8,81.2,958.7,81.6,958.7,81.9z M953.2,88.9c-0.5,0.9-0.6,1.8-0.6,2.5v0.1
		c0.1-0.1,0.1-0.2,0.2-0.4c0.9-1.7,2.2-2.2,2.8-2.3c0-0.2-0.1-0.5-0.1-0.8c0-0.3,0-0.7,0.1-1c0,0,0-0.1,0-0.1
		C954.4,87.3,953.7,88.1,953.2,88.9z M888.1,76.2c0.3,0,0.6,0,0.9,0c0.2,0,0.4,0,0.6,0h0h0.1c0.1,0,0.3,0,0.4,0
		c-0.5-1.4-1.2-2.2-2-2.7c-0.8-0.5-1.8-0.7-2.5-0.7c-0.2,0-0.4,0-0.6,0c0.1,0,0.2,0.1,0.4,0.2c1.8,0.8,2.4,2.1,2.6,2.7v0L888.1,76.2
		z M963.8,92.2c-0.2-0.1-0.3-0.3-0.4-0.4c-0.6,1-0.8,1.9-0.8,2.6c0,1.5,0.8,2.6,1.4,3.2c0-0.1-0.1-0.3-0.1-0.4
		c-0.1-0.5-0.2-0.9-0.2-1.3c0-1.2,0.4-2,0.7-2.3l0,0l0.3-0.4c0,0-0.1-0.1-0.1-0.1C964.3,92.7,964,92.4,963.8,92.2z M974.2,92.6
		L974.2,92.6l-0.1-0.4l-1.3,0h0h0c-0.1,0-0.3,0-0.6-0.1c0.4,1.5,1.2,2.3,2,2.8c0.9,0.5,1.8,0.7,2.5,0.7c0.1,0,0.1,0,0.2,0
		c-0.1-0.1-0.2-0.1-0.4-0.2C974.8,94.5,974.3,93.2,974.2,92.6z M804.2,89.7c-1,1-1.3,2.1-1.3,3.1c0,0.5,0.1,1,0.2,1.4
		c0-0.1,0.1-0.3,0.1-0.4c0.4-1.3,1.2-2.2,1.9-2.7c-0.2-0.3-0.4-0.6-0.6-0.9C804.4,90,804.3,89.9,804.2,89.7z M875.2,77.7
		c-1.2,0-2.2,0.6-2.8,1c0.1,0,0.3,0,0.4-0.1c0.2,0,0.4,0,0.6,0c0.7,0,1.2,0.1,1.7,0.3c0.3-0.4,0.7-0.8,1.1-1.1
		C875.9,77.7,875.5,77.7,875.2,77.7z M876.8,83.4c0,0.1,0,0.2,0,0.2c0,0.2,0.1,0.3,0.2,0.4c0.2,0.1,0.6,0.2,1.3,0.3
		c0.3,0,0.7,0.1,0.9,0.1c0.4,0,0.8-0.1,1-0.1c0.1-0.2,0.1-0.5,0.2-0.7c0.2-0.5,0.3-1,0.4-1.4c0.1-0.4,0.1-0.9,0.1-1.3
		c0-0.3,0-0.5,0.1-0.8c-0.5-0.5-1.3-1.2-1.6-1.5c-0.2-0.2-0.5-0.4-0.9-0.4c-0.3,0-0.6,0.1-1,0.4c-0.4,0.3-0.8,0.5-1.1,0.8
		c-0.3,0.3-0.5,0.6-0.5,0.9c0,0.2,0.1,0.4,0.2,0.6c0.5,0.7,0.6,1.3,0.6,1.8C876.8,82.9,876.8,83.2,876.8,83.4z M977,85.8
		c-0.2-0.3-0.3-0.7-0.3-1.2c0-1,0.6-1.7,1.1-2.5c0.1-0.1,0.1-0.2,0.2-0.3c0.5-0.8,0.7-1.6,0.7-2.6c0-1.3-0.4-2.9-2.1-4.5
		c0,0-0.3-0.4-0.3-1.3c0-0.7,0.2-1.6,0.7-3c0.5-1.2,1-2.3,1-3.4c0-0.5-0.1-1.1-0.4-1.7c-0.2,0.9-0.5,3-1.8,3c-1,0-0.9-1.2-0.8-1.9
		c0-0.1,0.1-0.4,0.1-0.6c0.1-0.5,0.1-1.3,0.1-2.1c0-1.2-0.2-2.6-0.6-3.9c-0.2,0.9-0.4,1.5-0.7,1.8c-0.1,0.1-0.3,0.2-0.5,0.2
		c-0.3,0-0.5-0.1-0.7-0.3c-0.2-0.2-0.3-0.4-0.3-0.6c-0.1-0.4-0.2-0.8-0.2-0.9c0,0-0.2-1-0.4-2.2c-0.2-1.1-0.6-2.4-0.9-3
		c-0.1,0.4-0.2,0.9-0.3,1.4c-0.1,0.6-0.3,1.5-1,1.7c-0.5,0.1-0.7-0.4-0.8-0.8c-0.1-0.5-0.2-1.1-0.4-1.6c-0.2-0.8-0.5-1.9-0.8-2.6
		c-0.2-0.4-0.4-0.8-0.5-0.9c0,0.1-0.1,0.2-0.2,0.3c-0.2,0.3-0.4,0.8-0.7,1.3c-0.6,1-1.5,2.2-2.6,3c-2.2,1.7-4,1.9-5.4,1.9
		c-2.2,0-6-0.7-9.2-2.9c-1.8-1.2-5.1-3.1-7-4.6l-0.5-0.4l0.7,0c0.7,0,1.4,0,2.1,0c3.2,0,6.5-0.3,8.9-1.5c2.8-1.4,4.2-3.1,5.5-4.9
		c1.3-1.8,2.5-3.5,5-4.9c1.5-0.8,3.1-1.1,4.5-1.1c1.7,0,3.1,0.4,3.8,0.6c-0.6-2.2-3.2-4.1-6.4-4.1c-2.3,0-4.8,1-7.1,3.5l-0.4,0.4
		l0-0.5l0-0.1c0-0.1,0-0.2,0-0.3c0-0.2-0.1-0.6-0.2-1c-0.2-0.8-0.6-1.9-1.4-3c-1.6-2.2-4.7-4.4-10.9-4.4c-0.5,0-1,0-1.5,0
		c-5.1,0.3-14.7,3.3-23.4,5c-8.6,1.7-21.3,2.5-26.7,2.5c-2,0-4.1-0.2-5.8-0.6c-1.7-0.4-3.2-1.1-4.1-2.1c-0.6-0.7-1-1.5-1-2.5
		c0-2,1-3.1,2.4-3.7c1.4-0.6,3-0.7,4.3-0.8c4.2,0,9.9,2.6,14.5,4.3c3.3,1.2,6.5,1.2,8.3,1.2c4.8,0,10.9-2.6,13.9-3.8
		c2.4-1,4.5-1.7,8.1-1.7c0.8,0,1.8,0,2.8,0.1c-1.3-1.4-4.1-2.9-7.8-2.9c-2.4,0-5.1,0.6-8,2.2l-0.2,0.1l-0.1-0.2
		c-0.1-0.3-0.2-0.5-0.2-0.8c0-0.8,0.4-1.6,1.1-2.4c0.6-0.7,1.5-1.3,2.6-1.7c-0.7-0.4-1.9-0.8-3.4-1.1c-1.8-0.4-4-0.7-6.5-0.7
		c-0.3,0-0.5,0-0.8,0c-4,0.1-6.7,1.1-9.3,2.1c-2.6,1-5.2,2-9,2c-0.3,0-0.7,0-1,0c-0.8,0-1.5-0.1-2.3-0.1c-3.6,0-7,0.4-9.4,1.6
		c-2.4,1.2-3.9,3-3.9,5.9c0,2.5,1.5,4.6,4.1,6.1c2.7,1.5,6.5,2.4,11.3,2.4c0.1,0,0.2,0,0.3,0c12-0.1,26.4-2.9,35.2-4.4
		c2.9-0.5,9.1-2.1,14.3-2.1c2.4,0,4.6,0.3,6.3,1.3c1.7,1,2.7,2.7,2.7,5.2c0,1.3-0.3,2.8-1.4,4.1c-1.1,1.2-3,2.1-6,2.1
		c-3.5,0-7.6-1-12.4-1.7l-0.4-0.1c-1-0.2-2.1-0.3-3.3-0.4c-7.1-0.8-16.3-1.5-21.4-1.5c-0.5,0-1,0-1.4,0c-3.9,0.1-11.5,0.6-18.6,1.7
		c-7.4,1.2-14.3,2.8-16.5,3.3v0.3l-0.1,6.8l-1.9-3.1c0,0.1,0,0.3,0,0.4c0,2.9-0.6,5.3-1.2,6.8c-0.3,0.9-0.6,1.6-0.8,2
		c-0.1,0.1-0.1,0.3-0.2,0.4l-1.6,3l-1.4-2.4c-0.5,2.9-1.7,5.5-3.6,7.7c-0.4,0.5-1.4,1.4-2.4,2.2c-0.1,0.1-0.2,0.1-0.2,0.2
		c-0.4,0.3-0.6,0.4-0.9,0.6l-2.9,1.7v-5.1c-0.6,0.8-1.2,1.5-1.8,2c-1.2,1-2.5,1.6-3.9,1.6c-0.5,0-0.9-0.1-1.3-0.2l-2.4-0.7l1.3-2.1
		c0.1-0.2,0.3-0.5,0.5-1c0.5-1,0.6-1.6,0.6-2c0-0.1,0-0.3-0.1-0.4c-0.2-0.1-0.6-0.3-1.4-0.3c-0.3,0-0.7,0-1,0.1
		c-1.5,0.2-4.4,1-9.8,3.7c-2.8,1.4-5.5,3-8.2,4.7c-1.7,1.1-3.4,2-5.2,3c-2.5,1.4-5.2,2.5-8.1,3c-0.8,0.1-1.6,0.2-2.4,0.2
		c-1.2,0-2.3-0.3-3-1.1c-1.2-0.1-2.4-0.4-3.4-0.9c-1.1-0.6-2.1-1.3-2.8-2c-0.6-0.5-1-1.1-1.4-1.5c-1.4,1.2-2.6,2.9-2.8,4.9
		c0,0.5-0.1,1-0.1,1.5c0,0.3,0,0.5,0,0.8c0.3,0,0.5,0,0.8,0c5.6,0,8.6-0.9,8.8-0.9l0.2,0c0.3,0,0.6,0.2,0.7,0.5l0,0.2
		c0,0.3-0.2,0.6-0.5,0.7c-0.1,0-3.3,1-9.2,1c-0.2,0-0.4,0-0.6,0c0.2,1.6,0.6,3,1.2,4c0.8,1.3,2.1,1.7,2.6,1.7c0,0,0.2,0,0.2,0
		c4.5-3.1,7.4-4.2,7.5-4.2c0.1,0,0.2,0,0.2,0c0.3,0,0.6,0.2,0.7,0.5c0,0.1,0,0.2,0,0.2c0,0.3-0.2,0.6-0.5,0.7l-0.1,0.1
		c-0.1,0-0.3,0.1-0.6,0.2c-0.5,0.2-1.2,0.5-2.1,1c-0.6,0.3-1.3,0.7-2,1.2c0,0-0.1,0.1-0.1,0.2c0,0.1,0,0.3,0.2,0.6
		c0.7,1,1.4,2.2,1.9,2.9c0.4,0.5,1,1.1,1.8,1.1c0.8,0,1.7-0.5,2.8-2.1c0.7-0.9,1.5-1.6,3.2-1.6l4.1-0.2l0.1,0c0,0,0.1,0,0.2,0
		c0.2,0,0.4-0.1,0.7-0.2c0.5-0.2,1.2-0.5,1.6-1.1c0.3-0.4,0.6-0.7,0.9-0.9c0.3-0.2,0.7-0.3,1.1-0.3c0.7,0,1.5,0.2,2.7,0.5
		c1.7,0.4,3.1,0.7,4,0.7c0.3,0,0.5,0,0.7-0.1c-0.1-0.1-0.3-0.3-0.5-0.5c-0.4-0.4-0.8-0.8-1.1-1.2c-0.2-0.3-0.4-0.6-0.4-0.9
		c0-0.2,0.1-0.3,0.2-0.4c0.2-0.3,0.5-0.4,0.8-0.4c0.3,0,0.5,0.1,0.7,0.3c0.2,0.1,0.3,0.3,0.4,0.3c1.7,1.2,4.9,2,7.4,2
		c0.7,0,1.4-0.1,2-0.2c-0.4-0.3-1.1-0.7-1.5-1.1c-0.2-0.2-0.4-0.5-0.4-0.8c0-0.2,0.1-0.4,0.2-0.5c0.2-0.2,0.5-0.2,0.8-0.2
		c0.8,0,1.8,0.2,1.8,0.2c0,0,0.2,0,0.5,0.1c0.3,0.1,0.7,0.1,1.2,0.2c1,0.2,2.3,0.3,3.5,0.3c1.3,0,2.6-0.2,3.3-0.7
		c-1.3-1.2-2.2-2.1-2.2-2.1c0,0-0.3-0.3-0.3-0.7c0-0.2,0.1-0.4,0.2-0.6c0.2-0.2,0.4-0.3,0.7-0.3c0.5,0,1,0.3,1.1,0.3
		c0,0,0.2,0.1,0.6,0.2c0.4,0.1,0.9,0.3,1.5,0.4c1.2,0.3,2.8,0.6,4.3,0.6c1.3,0,2.4-0.3,3.3-0.9c-1-0.4-1.6-1-1.6-1
		c0,0-0.2-0.3-0.2-0.7c0-0.1,0-0.3,0.1-0.4c0.1-0.2,0.3-0.4,0.5-0.4c0.2-0.1,0.4-0.1,0.6-0.1c0.1,0,0.2,0,0.3,0
		c0.5,0,0.9,0.1,1.3,0.1c2.4,0,3.8-0.7,4.2-1l-2.5-3c0.3-0.1,1-0.5,1-0.5c0.3-0.1,0.7-0.4,1.2-0.5c0.9-0.2,2.3-0.6,3.9-1.1
		c3.2-1,7.6-2.7,12-5.1c8.7-4.8,17.3-10.8,25.8-12.8c2.1-0.5,4.2-0.7,6.2-0.7c2.3,0,4.4,0.3,6,0.6c1.5,0.3,3.4,1.7,5.3,3.5
		c1.9,1.8,3.9,4,5.6,5.8c2,2.1,3.7,3.7,4.4,4.3c0.2,0.2,0.4,0.3,0.4,0.3c0,0,0.3,0.2,0.7,0.5c0.4,0.3,1.1,0.7,1.8,1.1
		c1.3,0.8,3,1.6,4.5,1.9c-0.1-0.5-0.8-3.7,0.6-3c0.6,0.3,0.9,0.9,1.3,1.3c0.6,0.5,1.2,1,1.8,1.5c1,0.7,2.2,1.3,3.2,1.2
		c0.3,0,0.7-0.1,1-0.2c-0.6-0.8-1.1-1.4-1.1-1.4c0,0-0.2-0.2-0.2-0.5c0-0.2,0.1-0.4,0.4-0.5c0.2-0.1,0.6-0.2,1.1-0.2
		c0.2,0,0.4,0,0.6,0c0.4,0,1.1,0.1,1.9,0.1c1.5,0,3.4-0.1,5.2-0.4c2.4-0.4,4.5-1.1,5.4-1.4c0.3-0.1,0.5-0.2,0.5-0.2
		c0,0,0.6-0.3,1.3-0.3c0.4,0,0.8,0.1,1.1,0.3c0.5,0.3,0.8,0.9,1.1,1.5c0.3,0.6,0.5,1.2,0.6,1.5c0.8,1.7,2.1,3.7,2.1,6.9
		c0,0.5,0,1-0.1,1.5c-0.1,0.9-0.3,2.7-1.3,4.1c-1.6,2.2-3.2,2.3-3.4,2.3c-0.1,0-0.4,0.1-0.8,0.1c-0.3,0-0.6,0-1-0.1
		c-1.1-0.2-2.2-0.7-3.1-0.7c-0.3,0-0.5,0-0.7,0.2c-0.9,0.5-1.2,1.1-1.2,1.8c0,0.8,0.4,1.5,0.5,1.7l0,0.1c0,0,0,0.1,0.1,0.2
		c0.1,0.2,0.2,0.4,0.4,0.6c0.4,0.4,1,0.9,2,0.9c0.1,0,0.2,0,0.3,0c0.8-0.1,1.5-0.5,2.1-1.1c0.6-0.5,1-1.1,1.2-1.3l0.1-0.1l1.5-2
		c0,0,0.1-0.1,0.2-0.2c0.1-0.1,0.3-0.2,0.5-0.2c0.1,0,0.2,0,0.4,0.1c0.3,0.1,0.4,0.4,0.4,0.6c0,0.2,0,0.3-0.1,0.4
		c0,0.1-0.1,0.2-0.1,0.3c0,0-0.1,0.2-0.3,0.4c-0.2,0.2-0.4,0.5-0.6,0.8c-0.5,0.6-0.9,1.1-0.9,1.1l0,0.1c0,0.1-0.1,0.2-0.1,0.3
		c0,0.2,0.1,0.4,0.4,0.7c0.4,0.4,0.8,0.8,1.1,1.3c0.3,0.3,0.5,0.7,1,0.9c1,0.3,1.9-0.9,2.5-1.5c0.5-0.5,0.9-1.1,1.1-1.7
		c0.3-0.9,0.4-2,0.4-2.8c0-0.5,0-0.9-0.1-1.2c0-0.3-0.1-0.5-0.1-0.5c0,0,0-0.1,0-0.2c0-0.1,0-0.3,0.1-0.5c0.1-0.2,0.3-0.3,0.5-0.3
		l0.2,0c0.3,0,0.6,0.2,0.7,0.4c0.1,0.2,0.1,0.3,0.1,0.4c0,0,0,0.3,0,0.7c0,0.6,0,1.4,0,2.1c0,0.8-0.1,1.5-0.2,1.9c0,0.1,0,0.2,0,0.2
		c0,0.1,0,0.2,0.1,0.2c0.1,0.1,0.1,0.1,0.2,0.1c0.2,0.1,0.4,0.1,0.5,0.1c0,0,3.5-0.1,3.5-0.1h0.1c0.2,0,0.6,0,1-0.3
		c0.4-0.3,0.8-0.7,0.9-1.6c0-0.2,0-0.4,0-0.5c0-0.8-0.2-1.2-0.5-1.5C977.6,86.4,977.2,86.1,977,85.8z M924.9,77.1
		c-0.7-0.1-1.7-0.4-2.6-0.9c-1.7-1-2.9-3-2.9-4.6c0-1.6,1-3.8,2.4-5.3c1-1.1,2.2-2,3.2-2.7c0,0-4-4.1-4.4-4.4
		c-1.3-1.1-2.7-2.2-4.4-2.7c-1.8-0.5-3.5,0.1-5.1,0.9c-1,0.5-2.1,1-3,1.6c-3.9,2.5-5.9,6.9-6.5,8.6c0.2-0.1,0.4-0.3,0.6-0.4
		c0.6-0.5,1.3-1,1.8-1.1c0.2,0,0.3-0.1,0.5-0.1c0.3,0,0.6,0.1,0.7,0.4c0.1,0.2,0.2,0.4,0.2,0.6c0,0.3-0.1,0.6-0.1,0.7
		c0,0-0.1,0.2-0.2,0.6c-0.1,0.4-0.3,0.9-0.4,1.5c-0.2,1-0.5,2.2-0.5,3.4c0.8-1.2,1.6-2,1.6-2c0,0,0.1-0.1,0.2-0.2
		c0.1-0.1,0.3-0.2,0.5-0.2c0.1,0,0.3,0.1,0.4,0.2c0.1,0.1,0.2,0.2,0.2,0.3c0,0.1,0,0.3,0,0.5c0,1.5-0.3,3,0.5,4.4
		c0.7,1.2,1.1,2.2,0.5,3.5c-0.5,1.1-1.7,2.1-2.7,2.8c-0.6,0.4-1.3,0.7-2.3,0.8c-0.8,0.1-2.2,0-3.4,0.4c-1.5,0.5-2.6,1.6-4.1,2
		c-0.4,0.1-0.9,0.1-1.4,0.1c-1.7,0-3.8-0.5-5-1.9c-0.6-0.7-0.9-1.4-0.9-2.1c0-1.9,1.6-3.4,1.7-3.6l0.1-0.1c0.1-0.1,0.1-0.2,0.1-0.3
		l-0.1-0.1c0,0-0.1-0.1-0.4-0.1c-0.2,0-0.4,0-0.6,0c-1.4,0-3.8-0.1-3.9-0.1c0,0-0.9,0-1.6,0.6l-0.1,0.1c-0.1,0.1-0.1,0.2-0.2,0.3
		c-0.2,0.3-0.4,0.6-0.6,1c-0.2,0.7-0.1,1.6-0.3,2.8c-0.2,1.1-0.8,2.4-0.9,3.3c0,0.2,0,0.3,0,0.5c0,1.3,0.5,2.2,1,2.8
		c1.5,2,4.2,3.3,6.8,4.1c2.6,0.8,5.1,1.1,6,1.2c0.2,0,0.3,0,0.4,0c0.4-0.1,4.4-1.2,5.8-1.4c1.3-0.3,4.8-0.7,6.2-0.8
		c0,0-2.2-1.1-2.2-1.1c0,0-0.1-0.1-0.3-0.2c-0.1-0.1-0.3-0.3-0.3-0.6c0-0.1,0-0.2,0.1-0.3c0.1-0.2,0.3-0.3,0.4-0.4
		c0.2-0.1,0.3-0.1,0.5-0.1c0.2,0,0.4,0,0.4,0c0.1,0,0.6,0.1,1.4,0.1c0.8,0.1,2,0.1,3.1,0.1c0.9,0,1.7,0,2.5-0.1
		c1.8-0.2,2.8-1,3.2-1.4c-0.1,0-0.2,0-0.3-0.1c-0.4-0.1-0.8-0.2-1-0.3c-0.3-0.1-0.8-0.4-1.1-0.6c-0.1-0.1-0.2-0.2-0.4-0.3
		c-0.1-0.1-0.2-0.3-0.2-0.6c0,0,0-0.1,0-0.1c0-0.2,0.1-0.3,0.2-0.4c0.1-0.1,0.2-0.1,0.4-0.2c0.2-0.1,0.5-0.1,0.5-0.1
		c0,0,0.7-0.1,1.6-0.2c0.9-0.2,2-0.4,2.8-0.7c1.2-0.4,2.6-1.4,3.2-1.9c-0.2-0.1-0.5-0.2-0.8-0.3c-0.6-0.3-1.3-0.7-1.8-1.1
		c0,0-0.1-0.1-0.2-0.3c-0.1-0.2-0.3-0.4-0.3-0.6l0-0.2c0.1-0.1,0.2-0.2,0.3-0.3c0.1-0.1,0.2-0.1,0.4-0.2c0.2-0.1,0.5-0.1,0.5-0.1
		c0,0,0.2,0,0.5-0.1c0.3-0.1,0.8-0.2,1.2-0.3c1-0.2,2.2-0.6,3-1c0.5-0.2,0.8-0.5,0.9-0.7c0,0-0.1,0-0.1,0
		C925.6,77.3,925.3,77.2,924.9,77.1z M873.1,87.4c-0.3,0.4-0.6,0.9-0.7,1.3c0.1-0.1,0.2-0.2,0.3-0.3c0.9-0.7,1.7-0.9,2.3-1
		c0.1-0.3,0.1-0.6,0.2-0.7l0-0.1v0c0.1-0.2,0.2-0.4,0.2-0.7C874.3,86,873.6,86.7,873.1,87.4z M881.4,91c-0.2,0.2-0.4,0.4-0.6,0.5
		c-0.1,0.1-0.2,0.2-0.3,0.4c-0.1,0.1-0.2,0.3-0.2,0.4c0,0.1-0.1,0.4-0.1,0.6c0,0.3,0.1,0.7,0.3,1.1c0.3,0.4,0.7,0.8,1.5,1.1
		c0.6,0.3,1.1,0.4,1.6,0.4c0.8,0,1.3-0.4,1.7-0.9c0.3-0.4,0.5-0.9,0.6-1.2c-1.4-0.7-2.8-1.5-3.9-2.6C881.8,90.7,881.6,90.9,881.4,91
		z M880.9,89.4c-0.4-0.7-1-1.8-1-3.2c0-0.2,0-0.4,0-0.6v0c-0.5,0-1.2-0.1-1.6-0.1c-0.1,0-0.2,0-0.2,0l-0.1,0c-0.1,0-0.3,0-0.4,0
		c-0.2,0-0.3,0-0.5,0.2c-0.2,0.2-0.4,0.5-0.6,1.2c-0.1,0.4-0.3,1-0.3,1.5c0,0.3,0,0.5,0.1,0.7c0.1,0.2,0.3,0.3,0.5,0.4
		c1.2,0.4,2,0.6,2.7,0.6h0.1c0.2,0,0.4-0.1,0.7-0.2C880.7,89.8,880.9,89.6,880.9,89.4z M879,93.4c-0.8,1-1,2.3-0.9,3.1
		c0,0,0,0.1,0,0.1c0.1-0.1,0.1-0.2,0.2-0.4c0.3-0.6,0.7-1,1-1.4c-0.2-0.4-0.3-0.8-0.3-1.2C879,93.6,879,93.5,879,93.4z M821.9,27.2
		c1.1,0.9,2.3,1.5,3.6,1.9c1.3,0.4,2.5,0.5,3.7,0.4c2.4,0,4.7-0.5,6.9-0.9c2.2-0.4,4.4-0.8,6.6-0.7c2.2,0,4.4,0.5,6.3,1.9
		c-1.7-1.6-4-2.5-6.2-2.8c-2.3-0.3-4.6-0.2-6.9-0.1c-2.3,0.1-4.5,0.2-6.6,0c-2.1-0.2-4-1-5.2-2.3l-0.2-0.2c-0.7-0.6-1.8-0.5-2.4,0.3
		C821,25.5,821.1,26.6,821.9,27.2L821.9,27.2z"/>
	<path fill="#FFFFFF" d="M827.9,261.7c0.4-2,0.8-4,1.2-5.9l0,0c3.7,2.1,10,3.2,17.2,4.5c9.4,1.7,20.5,3.6,28.4,8.3
		c-2-0.8-4.4-1.6-7.4-2.4c-10-2.7-15.1-2.5-20-2.3C842.5,264,837.5,264.2,827.9,261.7z M939.8,264.4c-10.1,2.2-15.4,2-20.5,1.8
		c-5.3-0.2-10.2-0.4-20.4,1.9c-3.7,0.8-6.6,1.6-8.7,2.4c2.4-0.6,5.6-1.1,9.8-1.6c10.7-1.2,15.9-0.4,21,0.4c4.8,0.7,9.9,1.4,19.8,0.5
		C940.5,268,940.2,266.2,939.8,264.4z M892.6,268.4c2-0.8,4.4-1.6,7.4-2.4c10-2.7,15.1-2.5,20-2.3c4.8,0.2,9.7,0.4,19.4-2.1
		c-0.4-2-0.8-4-1.2-5.9c0,0,0,0,0,0c-3.8,2.1-10,3.2-17.2,4.5C911.6,261.8,900.4,263.8,892.6,268.4z M848,266.2
		c-5.1,0.2-10.4,0.3-20.5-1.8c-0.3,1.8-0.6,3.6-0.9,5.4c9.9,0.9,14.9,0.2,19.8-0.5c5.1-0.7,10.3-1.5,21-0.4c4.2,0.5,7.3,1,9.8,1.6
		c-2.2-0.8-5-1.6-8.7-2.4C858.2,265.9,853.2,266,848,266.2z M840.2,221.9L829.9,253c8.7,5.6,40.7,4.3,52.8,18.5v-33.1
		C879.4,224.2,848.9,227.5,840.2,221.9z M927.1,221.9c-8.7,5.6-39.2,2.3-42.4,16.5v33.1c12-14.2,44-12.9,52.8-18.5L927.1,221.9z"/>
	<g>
		<path fill="#FFFFFF" d="M784.8,138.8l1.4,2.5c0.6,1,1.6,1.6,2.8,1.6h0.1c-0.7,1.3-1.1,2.9-1.2,5c0,0.4,0,0.8,0,1.2
			c0,1,0,2.6-0.4,3.3c-0.2,0.3-0.5,0.6-0.7,0.9c-0.7,0.8-1.8,2-1.3,3.7l0,0v0c0.6,1.7,2.2,2,3.2,2.3c0.4,0.1,0.8,0.2,1.1,0.3
			c0.7,0.3,1.6,1.6,2.2,2.4c0.2,0.3,0.5,0.7,0.7,1c1.4,1.8,3,3.1,4.6,3.7c-1.2,0.7-1.9,2.1-1.6,3.5l0.6,2.8c0.3,1.5,1.6,2.5,3.1,2.5
			c0.2,0,0.5,0,0.7-0.1l2.8-0.6c1.2-0.3,2.1-1.1,2.4-2.2c1.1,1.1,2.6,2,4.4,2.7c0.4,0.1,0.7,0.3,1.2,0.4c1,0.3,2.5,0.8,3,1.4
			c0.2,0.3,0.4,0.6,0.7,1c0.5,0.9,1.3,2.3,3.1,2.3v0l0,0l0,0v0c1.8,0,2.6-1.5,3.1-2.3c0.2-0.4,0.4-0.7,0.7-1c0.5-0.6,2-1,3-1.4
			c0.4-0.1,0.8-0.2,1.2-0.4c2.2-0.8,3.8-1.9,4.9-3.2c0.1,0.5,0.3,1,0.7,1.4c0.5,0.7,1.3,1.1,2.2,1.2l2.8,0.3c0.1,0,0.2,0,0.3,0
			c1.7,0,3-1.2,3.2-2.9l0.3-2.8c0.1-0.9-0.2-1.7-0.7-2.4c-0.2-0.2-0.4-0.4-0.7-0.6c1.4-0.7,2.7-1.8,3.9-3.4c0.2-0.3,0.5-0.6,0.7-1
			c0.6-0.8,1.5-2.1,2.2-2.4c0.3-0.1,0.7-0.2,1.1-0.3c1-0.2,2.6-0.6,3.2-2.3l-0.1,0l0,0l0.1,0c0.5-1.7-0.6-3-1.3-3.7
			c-0.3-0.3-0.6-0.6-0.7-0.9c-0.4-0.7-0.4-2.2-0.4-3.3c0-0.4,0-0.8,0-1.2c-0.1-2.5-0.7-4.3-1.5-5.7c0.1,0,0.3,0,0.4,0
			c1.3,0,2.4-0.8,2.9-1.9l1.2-2.6c0.3-0.8,0.4-1.7,0.1-2.5c-0.3-0.8-0.9-1.4-1.7-1.8l-2.6-1.2c-0.4-0.2-0.8-0.3-1.3-0.3
			c-0.7,0-1.4,0.2-2,0.7c-0.2-1.5-0.9-3.1-2-4.8c-0.2-0.3-0.5-0.6-0.7-1c-0.6-0.8-1.6-2.1-1.6-2.9c0-0.3,0-0.8,0.1-1.2
			c0.1-1,0.3-2.7-1.2-3.7l-0.2,0.3l0,0l0.2-0.3c-0.5-0.4-1.1-0.6-1.7-0.6c-0.8,0-1.5,0.3-2.2,0.6c-0.4,0.2-0.8,0.3-1.1,0.4
			c-0.1,0-0.2,0-0.3,0c-0.8,0-2-0.4-2.9-0.7c-0.4-0.1-0.8-0.3-1.2-0.4c-1.3-0.4-2.5-0.6-3.6-0.6c-0.7,0-1.4,0.1-2.2,0.3
			c0.2-0.5,0.3-1,0.3-1.6c0-0.9-0.4-1.6-1.1-2.2l-2.1-1.9c-0.6-0.5-1.4-0.8-2.1-0.8c-0.9,0-1.8,0.4-2.4,1.1l-1.9,2.1
			c-0.8,0.9-1,2.1-0.6,3.2c-0.6-0.1-1.1-0.1-1.5-0.1c-1.1,0-2.3,0.2-3.6,0.6c-0.4,0.1-0.8,0.2-1.2,0.4c-0.9,0.3-2.1,0.7-2.9,0.7
			c-0.1,0-0.2,0-0.3,0c-0.3-0.1-0.7-0.2-1.1-0.4c-0.7-0.3-1.4-0.6-2.2-0.6c-0.6,0-1.2,0.2-1.7,0.6l0,0l0,0c-1.4,1.1-1.3,2.7-1.2,3.7
			c0,0.4,0.1,0.9,0.1,1.2c-0.1,0.8-1,2-1.6,2.9c-0.3,0.3-0.5,0.7-0.7,1c-1.3,1.9-2,3.8-2.1,5.5c-0.6-0.6-1.4-0.9-2.2-0.9
			c-0.6,0-1.1,0.2-1.6,0.4l-2.5,1.4c-0.7,0.4-1.3,1.1-1.5,2C784.3,137.2,784.4,138.1,784.8,138.8"/>
		<path fill="#FFFFFF" d="M817.6,132.5c3.2,0,5.8,2.3,6.5,5.3c0.3,0,0.6-0.1,0.9-0.1c2.9,0,5.4,1.8,6.3,4.6c1,3-0.3,6.3-3,7.8
			c0.6,1.2,0.8,2.5,0.6,3.9c-0.3,1.7-1.2,3.3-2.6,4.3c-1.1,0.8-2.5,1.3-3.9,1.3c-1.7,0-3.2-0.6-4.4-1.7c-1.2,1.2-2.9,1.8-4.6,1.8
			c-1.4,0-2.7-0.4-3.9-1.3c-2.6-1.9-3.4-5.3-2.1-8.1c-1.2-0.6-2.1-1.6-2.7-2.8c-0.8-1.6-0.9-3.4-0.4-5c0.9-2.7,3.4-4.6,6.3-4.6
			c0.2,0,0.5,0,0.7,0c0.2-1.3,0.9-2.5,1.8-3.5C814.2,133.2,815.8,132.5,817.6,132.5"/>
		<path fill="#B20E10" d="M818.5,132.6c2.8,0.4,5,2.5,5.6,5.2c0.3,0,0.6-0.1,0.9-0.1c2.6,0,4.9,1.5,6,3.8c2.2-0.6,4.1-1.6,5.3-2.2
			c5.2-2.6,5.6-6,2.8-10.1c-0.8-1.2-2.6-3.1-2.8-5c-0.1-1.4,0.4-2.8-0.1-3.2h0c-0.5-0.4-1.7,0.6-3,0.9c-1.8,0.4-4.2-0.7-5.6-1.1
			c-4.7-1.3-7.9,0.1-8.7,5.8C818.7,128.1,818.3,130.3,818.5,132.6 M817.1,120.4c0.3,0.3,0.8,0.2,1-0.1l1.9-3c0.3-0.3,0.2-0.8-0.1-1
			l-2.1-1.9c-0.3-0.3-0.8-0.2-1,0.1l-1.9,2.1c-0.3,0.3-0.2,0.8,0.1,1L817.1,120.4z M799.3,139.4c1.2,0.6,3,1.5,5.2,2.1
			c1.1-2.2,3.4-3.6,5.9-3.6c0.2,0,0.5,0,0.7,0c0.2-1.3,0.9-2.5,1.8-3.5c1.1-1.1,2.6-1.8,4.1-1.9c0.1-2.3-0.2-4.4-0.4-5.8
			c-0.9-5.7-4-7.2-8.7-5.8c-1.4,0.4-3.8,1.5-5.6,1.1c-1.4-0.3-2.5-1.3-3-0.9c-0.5,0.4,0,1.8-0.1,3.2c-0.2,1.9-1.9,3.8-2.8,5
			C793.7,133.4,794.1,136.8,799.3,139.4 M787,137.6l1.4,2.5c0.2,0.3,0.6,0.5,1,0.3l3.3-1.2c0.3-0.2,0.5-0.6,0.3-1l-2.3-2.7
			c-0.2-0.3-0.6-0.5-1-0.3l-2.5,1.4C786.9,136.8,786.8,137.2,787,137.6 M842.8,138.8l3.4,0.8c0.4,0.2,0.8,0,1-0.4l1.1-2.6
			c0.2-0.4,0-0.8-0.4-1l-2.6-1.2c-0.4-0.2-0.8,0-1,0.4l-2,2.9C842.3,138.2,842.5,138.6,842.8,138.8 M803,168.1
			c-0.1-0.4-0.5-0.6-0.9-0.6l-3.3,1.4c-0.4,0.1-0.6,0.5-0.6,0.9l0.6,2.8c0.1,0.4,0.5,0.6,0.9,0.6l2.8-0.6c0.4-0.1,0.6-0.5,0.6-0.9
			L803,168.1z M845.2,147.9c-0.2-4.9-2.5-7.5-8.2-6.5c-1.3,0.2-3.5,0.6-5.6,1.4c0.7,2.9-0.6,5.8-3.2,7.3c0.6,1.2,0.8,2.5,0.6,3.9
			c-0.2,1.5-0.9,2.8-2,3.7c1.2,1.8,2.6,3.2,3.5,4.1c4.1,4.1,7.4,3.4,10.5-0.4c0.9-1.2,2.2-3.4,3.9-4.2c1.3-0.6,2.8-0.5,3-1.1v0v0
			c0.2-0.6-1.1-1.4-1.8-2.6C845,151.9,845.3,149.4,845.2,147.9 M807.3,150.3c-1.2-0.6-2.1-1.6-2.7-2.8c-0.7-1.5-0.9-3.1-0.5-4.7
			c-2.1-0.8-4.1-1.1-5.3-1.3c-5.7-1-8.1,1.6-8.2,6.5c-0.1,1.5,0.2,4-0.7,5.6c-0.7,1.2-2,2-1.8,2.6v0c0.2,0.6,1.7,0.5,3,1.1
			c1.7,0.8,3,3,3.9,4.2c3,3.8,6.4,4.6,10.5,0.4c0.9-0.9,2.3-2.3,3.5-4.1C806.7,155.9,806.1,152.9,807.3,150.3 M837.1,168.3l-3.4-1
			c-0.4,0-0.8,0.2-0.8,0.6l0.3,3.5c0,0.4,0.3,0.8,0.7,0.8l2.8,0.3c0.4,0,0.8-0.3,0.8-0.6l0.3-2.8
			C837.8,168.7,837.5,168.3,837.1,168.3 M828.6,163.2c2.7,5.1,1,8.2-3.6,9.8c-1.4,0.5-3.9,1-5.2,2.4c-0.9,1-1.3,2.5-1.9,2.5
			c-0.6,0-1-1.5-1.9-2.5c-1.3-1.4-3.8-1.9-5.2-2.4c-4.6-1.7-6.3-4.7-3.6-9.8c0.6-1.1,1.5-2.8,2.7-4.5c1,0.6,2.2,0.9,3.4,0.9
			c1.7,0,3.3-0.7,4.6-1.8c1.2,1.1,2.8,1.7,4.4,1.7c1.2,0,2.4-0.3,3.5-1C827.1,160.2,828,162.1,828.6,163.2"/>
		<path fill="#B20E10" d="M809.1,148.4c0.4,0.1,0.7,0.2,1.1,0.2c0,0,0,0,0,0c0.2,0,0.4,0.1,0.5,0.3c0.2,0.3,0.2,0.7-0.1,1v0
			c-0.2,0.2-0.5,0.5-0.7,0.7c-1.3,1.8-0.9,4.4,0.9,5.7c1.8,1.3,4.4,0.9,5.7-0.9c0.2-0.3,0.4-0.6,0.5-1h0c0.1-0.2,0.2-0.3,0.4-0.4
			c0.4-0.1,0.7,0.1,0.9,0.4h0c0.1,0.3,0.3,0.6,0.5,0.9c1.3,1.8,3.9,2.2,5.7,0.9c1.8-1.3,2.2-3.9,0.9-5.7c-0.2-0.3-0.5-0.6-0.8-0.8
			c0,0,0,0,0,0c-0.2-0.1-0.3-0.3-0.3-0.6c0-0.4,0.3-0.7,0.7-0.7c0,0,0,0,0,0c0.3,0,0.7-0.1,1-0.2c2.2-0.7,3.3-3,2.6-5.2
			c-0.7-2.2-3-3.3-5.2-2.6c-0.4,0.1-0.7,0.3-1,0.5c0,0,0,0,0,0c-0.2,0.1-0.4,0.1-0.6,0.1c-0.4-0.1-0.6-0.5-0.5-0.9c0,0,0,0,0,0
			c0.1-0.3,0.1-0.6,0.1-1c0-2.3-1.8-4.1-4.1-4.1c-2.3,0-4.1,1.8-4.1,4.1c0,0.4,0.1,0.7,0.1,1.1l0,0c0,0.2,0,0.4-0.1,0.6
			c-0.2,0.3-0.6,0.4-1,0.2v0c-0.3-0.2-0.6-0.3-0.9-0.4c-2.2-0.7-4.5,0.5-5.2,2.6C805.8,145.4,807,147.7,809.1,148.4"/>
		<path fill="#FFFFFF" d="M814.2,146.7c0-1.8,1.5-3.2,3.2-3.2c1.8,0,3.2,1.4,3.2,3.2c0,1.8-1.4,3.2-3.2,3.2
			C815.7,150,814.2,148.5,814.2,146.7"/>
	</g>
	<g>
		<path fill="#FFFFFF" d="M982.4,138.8l-1.4,2.5c-0.6,1-1.6,1.6-2.8,1.6h-0.1c0.7,1.3,1.1,2.9,1.2,5c0,0.4,0,0.8,0,1.2
			c0,1,0,2.6,0.4,3.3c0.2,0.3,0.5,0.6,0.7,0.9c0.7,0.8,1.8,2,1.3,3.7l0,0v0c-0.6,1.7-2.2,2-3.2,2.3c-0.4,0.1-0.8,0.2-1.1,0.3
			c-0.7,0.3-1.6,1.6-2.2,2.4c-0.2,0.3-0.5,0.7-0.7,1c-1.4,1.8-3,3.1-4.6,3.7c1.2,0.7,1.9,2.1,1.6,3.5l-0.6,2.8
			c-0.3,1.5-1.6,2.5-3.1,2.5c-0.2,0-0.5,0-0.7-0.1l-2.8-0.6c-1.2-0.3-2.1-1.1-2.4-2.2c-1.1,1.1-2.6,2-4.4,2.7
			c-0.4,0.1-0.7,0.3-1.2,0.4c-1,0.3-2.5,0.8-3,1.4c-0.2,0.3-0.4,0.6-0.7,1c-0.5,0.9-1.3,2.3-3.1,2.3v0l0,0l0,0v0
			c-1.8,0-2.6-1.5-3.1-2.3c-0.2-0.4-0.4-0.7-0.7-1c-0.5-0.6-2-1-3-1.4c-0.4-0.1-0.8-0.2-1.2-0.4c-2.2-0.8-3.8-1.9-4.9-3.2
			c-0.1,0.5-0.3,1-0.7,1.4c-0.5,0.7-1.3,1.1-2.2,1.2l-2.8,0.3c-0.1,0-0.2,0-0.3,0c-1.7,0-3-1.2-3.2-2.9l-0.3-2.8
			c-0.1-0.9,0.2-1.7,0.7-2.4c0.2-0.2,0.4-0.4,0.7-0.6c-1.4-0.7-2.7-1.8-3.9-3.4c-0.2-0.3-0.5-0.6-0.7-1c-0.6-0.8-1.5-2.1-2.2-2.4
			c-0.3-0.1-0.7-0.2-1.1-0.3c-1-0.2-2.6-0.6-3.2-2.3l0.1,0l0,0l-0.1,0c-0.5-1.7,0.6-3,1.3-3.7c0.3-0.3,0.6-0.6,0.7-0.9
			c0.4-0.7,0.4-2.2,0.4-3.3c0-0.4,0-0.8,0-1.2c0.1-2.5,0.7-4.3,1.5-5.7c-0.1,0-0.3,0-0.4,0c-1.3,0-2.4-0.8-2.9-1.9l-1.2-2.6
			c-0.3-0.8-0.4-1.7-0.1-2.5c0.3-0.8,0.9-1.4,1.7-1.8l2.6-1.2c0.4-0.2,0.8-0.3,1.3-0.3c0.7,0,1.4,0.2,2,0.7c0.2-1.5,0.9-3.1,2-4.8
			c0.2-0.3,0.5-0.6,0.7-1c0.6-0.8,1.6-2.1,1.6-2.9c0-0.3,0-0.8-0.1-1.2c-0.1-1-0.3-2.7,1.2-3.7l0.2,0.3l0,0l-0.2-0.3
			c0.5-0.4,1.1-0.6,1.7-0.6c0.8,0,1.5,0.3,2.2,0.6c0.4,0.2,0.8,0.3,1.1,0.4c0.1,0,0.2,0,0.3,0c0.8,0,2-0.4,2.9-0.7
			c0.4-0.1,0.8-0.3,1.2-0.4c1.3-0.4,2.5-0.6,3.6-0.6c0.7,0,1.4,0.1,2.2,0.3c-0.2-0.5-0.3-1-0.3-1.6c0-0.9,0.4-1.6,1.1-2.2l2.1-1.9
			c0.6-0.5,1.4-0.8,2.1-0.8c0.9,0,1.8,0.4,2.4,1.1l1.9,2.1c0.8,0.9,1,2.1,0.6,3.2c0.6-0.1,1.1-0.1,1.5-0.1c1.1,0,2.3,0.2,3.6,0.6
			c0.4,0.1,0.8,0.2,1.2,0.4c0.9,0.3,2.1,0.7,2.9,0.7c0.1,0,0.2,0,0.3,0c0.3-0.1,0.7-0.2,1.1-0.4c0.7-0.3,1.4-0.6,2.2-0.6
			c0.6,0,1.2,0.2,1.7,0.6l0,0l0,0c1.4,1.1,1.3,2.7,1.2,3.7c0,0.4-0.1,0.9-0.1,1.2c0.1,0.8,1,2,1.6,2.9c0.3,0.3,0.5,0.7,0.7,1
			c1.3,1.9,2,3.8,2.1,5.5c0.6-0.6,1.4-0.9,2.2-0.9c0.6,0,1.1,0.2,1.6,0.4l2.5,1.4c0.7,0.4,1.3,1.1,1.5,2
			C982.9,137.2,982.8,138.1,982.4,138.8"/>
		<path fill="#FFFFFF" d="M949.6,132.5c-3.2,0-5.8,2.3-6.5,5.3c-0.3,0-0.6-0.1-0.9-0.1c-2.9,0-5.4,1.8-6.3,4.6c-1,3,0.3,6.3,3,7.8
			c-0.6,1.2-0.8,2.5-0.6,3.9c0.3,1.7,1.2,3.3,2.6,4.3c1.1,0.8,2.5,1.3,3.9,1.3c1.7,0,3.2-0.6,4.4-1.7c1.2,1.2,2.9,1.8,4.6,1.8
			c1.4,0,2.7-0.4,3.9-1.3c2.6-1.9,3.4-5.3,2.1-8.1c1.2-0.6,2.1-1.6,2.7-2.8c0.8-1.6,0.9-3.4,0.4-5c-0.9-2.7-3.4-4.6-6.3-4.6
			c-0.2,0-0.5,0-0.7,0c-0.2-1.3-0.9-2.5-1.8-3.5C953,133.2,951.4,132.5,949.6,132.5"/>
		<path fill="#B20E10" d="M948.8,132.6c0.1-2.3-0.2-4.5-0.4-5.9c-0.9-5.7-4-7.2-8.7-5.8c-1.4,0.4-3.8,1.5-5.6,1.1
			c-1.4-0.3-2.5-1.2-3-0.9h0c-0.5,0.4,0,1.8-0.1,3.2c-0.2,1.9-1.9,3.8-2.8,5c-2.7,4.1-2.3,7.5,2.8,10.1c1.2,0.6,3.1,1.6,5.3,2.2
			c1.1-2.3,3.4-3.8,6-3.8c0.3,0,0.6,0,0.9,0.1C943.7,135.1,946,133,948.8,132.6 M952.3,117.6c0.3-0.3,0.3-0.7,0.1-1l-1.9-2.1
			c-0.3-0.3-0.7-0.3-1-0.1l-2.1,1.9c-0.3,0.3-0.3,0.7-0.1,1l1.9,3c0.3,0.3,0.7,0.3,1,0.1L952.3,117.6z M967.9,139.4
			c5.2-2.6,5.6-6,2.8-10.1c-0.8-1.2-2.6-3.1-2.8-5c-0.1-1.4,0.4-2.8-0.1-3.2c-0.5-0.4-1.7,0.6-3,0.9c-1.8,0.4-4.2-0.7-5.6-1.1
			c-4.7-1.3-7.9,0.1-8.7,5.8c-0.2,1.3-0.5,3.5-0.4,5.8c1.6,0.1,3,0.8,4.1,1.9c1,1,1.6,2.2,1.8,3.5c0.2,0,0.5,0,0.7,0
			c2.5,0,4.8,1.4,5.9,3.6C964.9,140.9,966.8,140,967.9,139.4 M980.2,137.6c0.2-0.3,0.1-0.8-0.3-1l-2.5-1.4c-0.3-0.2-0.8-0.1-1,0.3
			l-2.3,2.7c-0.2,0.3-0.1,0.8,0.3,1l3.3,1.2c0.3,0.2,0.8,0.1,1-0.3L980.2,137.6 M924.4,138.8c0.4-0.2,0.5-0.6,0.4-1l-2-2.9
			c-0.2-0.4-0.6-0.5-1-0.4l-2.6,1.2c-0.4,0.2-0.5,0.6-0.4,1l1.1,2.6c0.2,0.4,0.6,0.5,1,0.4L924.4,138.8 M964.1,171.6
			c-0.1,0.4,0.2,0.8,0.6,0.9l2.8,0.6c0.4,0.1,0.8-0.2,0.9-0.6l0.6-2.8c0.1-0.4-0.2-0.8-0.6-0.9l-3.3-1.4c-0.4-0.1-0.8,0.2-0.9,0.6
			L964.1,171.6z M922,147.9c-0.1,1.5,0.2,4-0.7,5.6c-0.7,1.2-2,2-1.8,2.6v0v0c0.2,0.6,1.7,0.5,3,1.1c1.7,0.8,3,3,3.9,4.2
			c3,3.9,6.4,4.6,10.5,0.4c0.9-0.9,2.3-2.3,3.5-4.1c-1-1-1.7-2.3-2-3.7c-0.2-1.3,0-2.7,0.6-3.9c-2.5-1.4-3.8-4.4-3.2-7.3
			c-2.1-0.8-4.3-1.2-5.6-1.4C924.5,140.5,922.2,143,922,147.9 M960,150.3c1.2,2.6,0.6,5.6-1.5,7.6c1.2,1.8,2.6,3.2,3.5,4.1
			c4.1,4.1,7.5,3.4,10.5-0.4c0.9-1.2,2.2-3.4,3.9-4.2c1.3-0.6,2.8-0.5,3-1.1v0c0.2-0.6-1.1-1.4-1.8-2.6c-0.9-1.6-0.6-4.2-0.7-5.6
			c-0.2-4.9-2.5-7.5-8.2-6.5c-1.3,0.2-3.3,0.5-5.3,1.3c0.4,1.6,0.2,3.2-0.5,4.7C962.1,148.7,961.1,149.7,960,150.3 M930.1,168.3
			c-0.4,0-0.7,0.4-0.7,0.8l0.3,2.8c0,0.4,0.4,0.7,0.8,0.6l2.8-0.3c0.4,0,0.7-0.4,0.7-0.8l0.3-3.5c0-0.4-0.4-0.7-0.8-0.6L930.1,168.3
			 M938.7,163.2c0.6-1.1,1.5-2.9,2.8-4.7c1,0.6,2.2,1,3.5,1c1.7,0,3.2-0.6,4.4-1.7c1.2,1.2,2.9,1.8,4.6,1.8c1.2,0,2.4-0.3,3.4-0.9
			c1.3,1.7,2.2,3.4,2.7,4.5c2.7,5.1,1,8.2-3.6,9.8c-1.4,0.5-3.9,1-5.2,2.4c-0.9,1-1.3,2.5-1.9,2.5c-0.6,0-1-1.5-1.9-2.5
			c-1.3-1.4-3.8-1.9-5.2-2.4C937.7,171.3,936,168.3,938.7,163.2"/>
		<path fill="#B20E10" d="M958.1,148.4c-0.4,0.1-0.7,0.2-1.1,0.2c0,0,0,0,0,0c-0.2,0-0.4,0.1-0.5,0.3c-0.2,0.3-0.2,0.7,0.1,1v0
			c0.2,0.2,0.5,0.5,0.7,0.7c1.3,1.8,0.9,4.4-0.9,5.7c-1.8,1.3-4.4,0.9-5.7-0.9c-0.2-0.3-0.4-0.6-0.5-1h0c-0.1-0.2-0.2-0.3-0.4-0.4
			c-0.4-0.1-0.7,0.1-0.9,0.4h0c-0.1,0.3-0.3,0.6-0.5,0.9c-1.3,1.8-3.9,2.2-5.7,0.9c-1.8-1.3-2.2-3.9-0.9-5.7
			c0.2-0.3,0.5-0.6,0.8-0.8c0,0,0,0,0,0c0.2-0.1,0.3-0.3,0.3-0.6c0-0.4-0.3-0.7-0.7-0.7c0,0,0,0,0,0c-0.3,0-0.7-0.1-1-0.2
			c-2.2-0.7-3.3-3-2.6-5.2c0.7-2.2,3-3.3,5.2-2.6c0.4,0.1,0.7,0.3,1,0.5c0,0,0,0,0,0c0.2,0.1,0.4,0.1,0.6,0.1
			c0.4-0.1,0.6-0.5,0.5-0.9c0,0,0,0,0,0c-0.1-0.3-0.1-0.6-0.1-1c0-2.3,1.8-4.1,4.1-4.1c2.3,0,4.1,1.8,4.1,4.1c0,0.4-0.1,0.7-0.1,1.1
			l0,0c0,0.2,0,0.4,0.1,0.6c0.2,0.3,0.6,0.4,1,0.2v0c0.3-0.2,0.6-0.3,0.9-0.4c2.2-0.7,4.5,0.5,5.2,2.6
			C961.4,145.4,960.3,147.7,958.1,148.4"/>
		<path fill="#FFFFFF" d="M953,146.7c0-1.8-1.5-3.2-3.2-3.2c-1.8,0-3.2,1.4-3.2,3.2c0,1.8,1.4,3.2,3.2,3.2
			C951.6,150,953,148.5,953,146.7"/>
	</g>
	<path d="M293.1,75.6c0-13,3.8-24.9,13.1-32.4c7-5.7,16.9-8.9,26.7-8.9c9.4,0,17.7,2.9,24.2,7.4c0,0,8.7,5.4,8.7,14.8
		c0,4.6-3.7,8.4-8.2,8.4c-4.5,0-7.8-3.6-7.6-8.4c0.1-2.3,0.4-6.2-1-9c-3.8-7.7-14.5-7.3-14.5-7.3c-15.8,0-22.6,15.7-22.6,35.1
		c0,25.8,14.2,35.1,26.3,35.1c0,0,13.6,0.2,25.4-15.2l4.9,3.1c-7.3,11.2-19.9,18.6-34.2,18.6C311.5,116.8,293.1,98.4,293.1,75.6z
		 M325.7,157.2h-31.5v4.1l11.7,3.2l-18.7,52.1l-19.3-52.3l11-2.9v-4.5h-36.3v4.4l9.5,2.6l26.7,65.9h8.6l27.8-65.6l10.5-2.8V157.2z
		 M96,135.7L96,135.7c0,0,0-0.1,0-0.1l13.3-3.5v-5.1H73v4.7l14.5,3.8V202c0,0,1,22.4-28.4,22.4c-29.5,0-29.5-19.4-29.5-22.4
		c0-2.6,0-55.9,0-66.5l14.7-4.1v-4.5H0.2v4.7l14.4,3.8v65.5c0,0-2.4,31,41.9,31c42.1,0,39.5-29.3,39.5-29.3V135.7z M679.9,161.4
		l12.9,3.5l-19.2,51l-20.8-51.5l10.5-2.9V157h-35.4v4.7l9.8,2.6l28.6,70.4c-1.9,3.4-3.7,6.9-5.5,10.4c-2.1,4.2-6.8,10.9-12,11.3
		c-4.8,0.4-6.1-5.4-9.9-7.5c-6.9-3.7-13.3,5.4-8.6,11.2c2.3,2.8,6.2,4.6,9.8,4.8c3.8,0.2,8-0.5,11.5-2.1c1.9-0.9,3.9-2.1,5.5-3.5
		c3.3-2.9,5.8-6.6,7.8-10.5c3.4-6.4,6.6-12.8,9.4-19.5c2.4-5.7,4.8-11.5,7.3-17.2c3-6.9,5.8-13.9,8.8-20.9c2.5-6,5.1-12,7.6-18.1
		c1.2-2.9,2.4-5.8,3.7-8.7c0-0.1,0.1-0.1,0.1-0.2l10.4-2.8v-4.7h-32.2V161.4z M97.2,80.2l-3.9-1.5v0l-0.7-0.3
		c-10.9,19-32.6,30.4-46.8,30.4c0,0-14.9,0.8-14.9-12.5h0V11.8l14.3-4l0.2-3.7H0.2v4.3L13.7,12v94L0,109.6v5.4h84.1L97.2,80.2z
		 M204.4,105.7l-13.5,4.4v4.9h42.9v-4.9l-13.7-4.4V55.9l0-0.1c3.8-3,7.8-5.7,12-7.9c5.3-2.8,12.2-6.1,18.3-5.1
		c3.1,0.5,6.7,2.6,8.6,5.2c2.8,3.8,3.7,9,3.7,13.7l-0.1,43.8c0-0.3,0,0.4,0,0.4l-13.5,4.2v5h43.3l0-4.9l-13.5-4.4V55.6
		c0-5.6-1.9-10.7-6.3-14.4c-4.5-3.8-10.3-5.8-16.1-6.4c-10.5-1.2-20.6,2.5-29.3,8.1c-2.5,1.6-4.9,3.4-7.3,5.1V36.2h-5.7l-24,6.4v4.8
		h14.2V105.7z M262.7,105.5c0,0.1,0,0.1,0,0.3V105.5z M172,221c0,0.1,0,0.1,0,0.3V221z M186.9,221.2v-45.9c0-5.2-1.8-9.8-5.7-13.2
		c-4.2-3.5-9.5-5.3-14.8-5.9c-9.6-1.1-19,2.3-26.9,7.4c-2.3,1.5-4.5,3.1-6.7,4.7v-10.8h-5.3l-22.1,5.8v4.4h13v53.7l-12.4,4v4.5h39.4
		v-4.5l-12.6-4v-45.8l0-0.1c3.5-2.7,7.2-5.2,11.1-7.3c4.9-2.6,11.2-5.6,16.8-4.7c2.9,0.4,6.1,2.4,7.9,4.8c2.6,3.5,3.4,8.3,3.4,12.6
		L172,221c0-0.2,0,0.4,0,0.4l-12.4,3.9v4.6h39.7l0-4.6L186.9,221.2z M500.8,65.5c-12.1-2.3-21.8-5.6-21.8-13.6
		c0-9.8,11.7-10.6,16.6-10.4c22.3,0.8,28.5,19.5,28.5,19.5h5L524,36.3h-4.5l-1.6,5.3c-3.9-2.6-12.1-7.1-21.9-7.1
		c-19.7,0-31,11.4-31,24.1c0,12.6,16.1,17.8,28.3,21.3C505.1,83.3,521,84,521,95.7c0,14.3-19.4,14-19.4,14
		c-26.3,0-33.2-23.5-33.2-23.5h-5.5L468,115h5.2l1.9-6.5c0,0,13.1,7.7,27,7.7c19.7,0,32.9-12.9,32.9-26.6
		C535.1,71.2,513.5,67.9,500.8,65.5z M610.7,225c-6.3,0-10.5-4.9-11.3-10c-0.4-2.1-0.2-6.1-0.2-9.7l0-43.7h21.5V157h-21.5v-27.8
		h-6.8c0,0,0.3,12.3-5.8,21.1c-4.7,6.7-14,7.1-14,7.1v4.6h11.9v44.5c0,3.5,0,6.9,0,9.1c0,9.8,9.5,15.5,20.2,15.5
		c13.8,0,19.4-6,23.1-9.8l-3.7-3.2C619.8,221.6,616,225,610.7,225z M548.1,89.6c0,3.8,0,7.5,0,9.8c0,10.6,10.3,16.7,21.9,16.7
		c13.6,0,19.8-5.4,23.8-9.5c-1.1-1.4-2.2-2.9-3.1-4.5c-4.5,3.8-8.5,7.3-14.1,7.3c-6.8,0-11.3-5.3-12.3-10.8
		c-0.4-2.3-0.2-6.6-0.2-10.5l0-46.9h23.3v-5.3H564V5.9h-7.4c0,0,0.4,13.4-6.3,22.9c-5,7.3-15.1,7.6-15.1,7.6v5h12.9V89.6z
		 M590.3,75.6c0-13.6,5.5-26.2,15.6-33.6c6.6-4.9,14.5-7.1,23.3-7.1c19.5,0,34.1,13.2,35.2,33.3h-57.2c0,0-6,40.9,26.3,40.9
		c0,0,16.9,0.7,25.1-14.8l5,2.4c-4,11.5-17.7,19.6-32.3,19.6C609,116.3,590.3,98.1,590.3,75.6z M607.7,61.2h39.6
		c-0.6-12.3-8.4-20.4-19.5-20.4C619,40.8,607.7,46,607.7,61.2z M340.2,186.7c0,0-5.5,37.8,24.3,37.8c0,0,15.6,0.6,23.1-13.6l4.6,2.2
		c-3.7,10.6-16.4,18.1-29.8,18.1c-20.6,0-37.8-16.8-37.8-37.6c0-12.5,5.1-24.2,14.4-31.1c6.1-4.5,13.4-6.6,21.5-6.6
		c18,0,31.5,12.2,32.5,30.7H340.2z M340.7,180.3h36.6c-0.6-11.4-7.8-18.9-18-18.9C351.1,161.5,340.7,166.3,340.7,180.3z M729.8,35.1
		L729.8,35.1c-0.1,0-0.2,0-0.3-0.1c-0.1,0-0.2,0-0.3-0.1c-16.4-3.6-29.3,9.9-32,13.1V36.3h-6.5l-23.5,6.4v4.8h14.1v59.3l-13.7,3.7
		v4.7h44.2v-4.7l-14.6-3.8v-51c0.9-1,8.4-8.8,14.8-8.8c7.3,0,7.5,4.6,14.7,5.3c0,0,0.1,0,0.1,0c0,0,0,0,0,0v0c0.3,0,0.5,0,0.8,0
		c4.7,0,8.6-3.9,8.6-8.6C736.2,39.5,733.5,36.1,729.8,35.1z M456,156.3L456,156.3c-0.1,0-0.2,0-0.2-0.1c-0.1,0-0.2,0-0.2-0.1
		c-15.1-3.3-26.9,9.1-29.5,12.1v-11h-6l-21.6,5.8v4.4h13v54.5l-12.6,3.4v4.4h40.7v-4.4l-13.5-3.5V175c0.9-0.9,7.7-8.1,13.6-8.1
		c6.7,0,6.9,4.2,13.5,4.9c0,0,0.1,0,0.1,0c0,0,0,0,0,0c0.2,0,0.5,0,0.7,0c4.4,0,7.9-3.5,7.9-7.9C461.9,160.2,459.4,157.2,456,156.3z
		 M231.7,157.2l-26.8,2.8v6h12.6v55.2l-13,4l0,4.6h39.7v-4.6l-12.4-4V157.2z M225.5,131.6c-5,0-9.1,4.1-9.1,9.1c0,5,4.1,9.1,9.1,9.1
		c5,0,9.1-4.1,9.1-9.1C234.6,135.6,230.5,131.6,225.5,131.6z M562.9,157.2l-26.8,2.8v6h12.6v55.2l-12.7,4v4.6h39.4v-4.6l-12.4-4
		V157.2z M547.1,140.6c0,5,4.1,9.1,9.1,9.1c5,0,9.1-4.1,9.1-9.1c0-5-4.1-9.1-9.1-9.1C551.1,131.6,547.1,135.6,547.1,140.6z
		 M429.2,69.1l0-15.6c0-11.9-12.7-12.2-18.1-12.2c-4.4,0-12.7,0.2-16.7,5.3c-2.1,2.7-1.5,7.5-1.3,9.8c0.2,4.8-3,8.4-7.6,8.4
		c-4.5,0-8.2-3.8-8.2-8.4c0-9.4,8.7-14.8,8.7-14.8c6.5-4.4,17.8-6.7,27.2-6.7c9.8,0,18,2,25.2,7.4c3.7,2.8,6.6,7.5,6.6,17.4
		c0,12.8,0,46,0,46l15.6,4.3l0.9,4.9h-23l-9.3-10.1c0,0-13.3,11.2-30.1,11.2c-16.8,0-24.4-9.1-24.4-17.3c0,0-2.8-17.2,22.1-24.6
		c4.7-1.4,8.9-2.2,12.5-2.9C422.6,68.9,429.2,69.1,429.2,69.1z M429,74.8c0,0-15.7,0.5-26.3,5.2c-8,3.5-12.4,9.6-12.1,17
		c0.2,4.4,5,11.9,16.3,11.1c11.2-0.7,22-10.5,22-10.5V74.8z M499.7,183.9c-11.2-2.1-20.2-5.1-20.2-12.6c0-9,10.8-9.8,15.3-9.7
		c20.6,0.7,26.3,18,26.3,18h4.6l-4.7-22.8H517l-1.4,4.9c-3.6-2.4-11.1-6.6-20.3-6.6c-18.2,0-28.7,10.6-28.7,22.2
		c0,11.7,14.9,16.5,26.2,19.7c10.9,3.2,25.5,3.8,25.5,14.6c0,13.2-17.9,12.9-17.9,12.9c-24.3,0-30.7-21.7-30.7-21.7h-5.1l4.8,26.7
		h4.9l1.8-6c0,0,12.1,7.2,24.9,7.2c18.2,0,30.4-11.9,30.4-24.6C531.4,189.2,511.4,186.1,499.7,183.9z M155.3,69.1l0-15.6
		c0-11.9-12.7-12.2-18.1-12.2c-4.4,0-12.7,0.2-16.7,5.3c-2.1,2.7-1.5,7.5-1.3,9.8c0.2,4.8-3,8.4-7.6,8.4s-8.2-3.8-8.2-8.4
		c0-9.4,8.7-14.8,8.7-14.8c6.5-4.4,17.8-6.7,27.2-6.7c9.8,0,18,2,25.2,7.4c3.7,2.8,6.6,7.5,6.6,17.4c0,12.8,0,46,0,46l14.7,4.1v5.2
		h-21.2l-9.3-10.1c0,0-13.3,11.2-30.1,11.2c-16.8,0-24.4-9.1-24.4-17.3c0,0-2.8-17.2,22.1-24.6c4.7-1.4,8.9-2.2,12.5-2.9
		C148.7,68.9,155.3,69.1,155.3,69.1z M155.1,74.8c0,0-15.7,0.5-26.3,5.2c-8,3.5-12.4,9.6-12.1,17c0.2,4.4,5,11.9,16.3,11.1
		c11.2-0.7,22-10.5,22-10.5V74.8z"/>
	<g>
		<path fill="#FFFFFF" d="M982.2,211.4c-6,1.7-13.2,2.8-23.5,2.8c-9.2,0-15.9-0.9-21.5-2.3c-4.2-1-7.8-2.3-11.3-3.7
			c-5.3-2.1-10.4-4.4-17-6.3c-6.6-1.8-14.5-3.1-25.3-3.1c-9.6,0-16.9,1-23,2.5c-4.6,1.1-8.5,2.5-12.1,4c-5.5,2.2-10.3,4.4-16.3,6
			c-6,1.7-13.2,2.8-23.5,2.8c-9.2,0-15.9-0.9-21.5-2.3c-3.9-1-7.3-2.2-10.6-3.5c1.2,2.8,2.5,5.5,3.9,8.3c0.9,0.3,1.9,0.6,2.9,0.9
			c6.6,1.8,14.5,3.1,25.3,3.1c9.6,0,16.9-1,23-2.5c4.6-1.1,8.5-2.5,12.1-4c5.5-2.2,10.3-4.4,16.3-6c6-1.7,13.2-2.8,23.5-2.8
			c9.2,0,15.9,0.9,21.5,2.3c4.2,1,7.8,2.3,11.3,3.7c5.3,2.1,10.4,4.4,17,6.3c6.6,1.8,14.5,3.1,25.3,3.1c9.6,0,16.9-1,23.1-2.5
			c1.8-0.4,3.5-0.9,5.1-1.5c1.4-2.8,2.7-5.5,3.9-8.3C988.1,209.6,985.3,210.6,982.2,211.4z"/>
		<path fill="#FFFFFF" d="M958.7,201.2c-9.2,0-15.9-0.9-21.5-2.3c-4.2-1-7.8-2.3-11.3-3.7c-5.3-2.1-10.4-4.4-17-6.3
			c-6.6-1.8-14.5-3.1-25.3-3.1c-9.6,0-16.9,1-23,2.5c-4.6,1.1-8.5,2.5-12.1,4c-5.5,2.2-10.3,4.4-16.3,6c-6,1.7-13.2,2.8-23.5,2.8
			c-9.2,0-15.9-0.9-21.5-2.3c-4.2-1-7.8-2.3-11.3-3.7c-1.9-0.7-3.7-1.5-5.6-2.3c1,2.7,2,5.5,3.2,8.3c3,1.2,6.3,2.4,9.9,3.4
			c6.6,1.8,14.5,3.1,25.3,3.1c9.6,0,16.9-1,23-2.5c4.6-1.1,8.5-2.5,12.1-4c5.5-2.2,10.3-4.4,16.3-6c6-1.7,13.2-2.8,23.5-2.8
			c9.2,0,15.9,0.9,21.5,2.3c4.2,1,7.8,2.3,11.3,3.7c5.3,2.1,10.4,4.4,17,6.3c6.6,1.8,14.5,3.1,25.3,3.1c9.6,0,16.9-1,23.1-2.5
			c4.6-1.1,8.5-2.5,12.1-4c1.1-2.8,2.2-5.6,3.2-8.3c-4.8,2-9.3,3.9-14.7,5.4C976.2,200,969,201.2,958.7,201.2z"/>
		<path fill="#FFFFFF" d="M768.2,186.6c4.7,1.9,9.4,3.9,15.2,5.6c6.6,1.8,14.5,3.1,25.3,3.1c9.6,0,16.9-1,23-2.5
			c4.6-1.1,8.5-2.5,12.1-4c5.5-2.2,10.3-4.4,16.3-6c6-1.7,13.2-2.8,23.5-2.8c9.2,0,15.9,0.9,21.5,2.3c4.2,1,7.8,2.3,11.3,3.7
			c5.3,2.1,10.4,4.4,17,6.3c6.6,1.8,14.5,3.1,25.3,3.1c9.6,0,16.9-1,23.1-2.5c4.6-1.1,8.5-2.5,12.1-4c1.8-0.7,3.5-1.4,5.2-2.1
			c0.9-2.7,1.6-5.3,2.4-7.9c-1,0.4-2,0.8-2.9,1.1c-5.5,2.2-10.3,4.4-16.3,6c-6,1.7-13.2,2.8-23.5,2.8c-9.2,0-15.9-0.9-21.5-2.3
			c-4.2-1-7.8-2.3-11.3-3.7c-5.3-2.1-10.4-4.4-17-6.3c-6.6-1.8-14.5-3.1-25.3-3.1c-9.6,0-16.9,1-23,2.5c-4.6,1.1-8.5,2.5-12.1,4
			c-5.5,2.2-10.3,4.4-16.3,6c-6,1.7-13.2,2.8-23.5,2.8c-9.2,0-15.9-0.9-21.5-2.3c-4.2-1-7.8-2.3-11.3-3.7c-3.3-1.3-6.5-2.7-10.1-4
			C766.5,181.2,767.3,183.9,768.2,186.6z"/>
	</g>
	<rect x="758.2" y="102.7" fill="#FFFFFF" width="250.8" height="3.3"/>
</g>
</svg>
