<?xml version="1.0" encoding="utf-8"?>
<!-- Generator: Adobe Illustrator 18.1.0, SVG Export Plug-In . SVG Version: 6.00 Build 0)  -->
<svg version="1.1" id="Layer_1" xmlns="http://www.w3.org/2000/svg" xmlns:xlink="http://www.w3.org/1999/xlink" x="0px" y="0px"
	 viewBox="0 0 1009.1 274.4" enable-background="new 0 0 1009.1 274.4" xml:space="preserve">
<g>
	<g>
		<path fill="#CB1517" d="M488.6,167.4l-13.6,1.2c-2.6-0.7-6.8-1.9-10.6-1.9c-12,0-19.9,6.7-19.9,15.4c0,8.2,5.2,12.2,12.1,14.4v0.2
			c-6.3,0.5-9,2.8-9,5.6c0,3,2.1,4.6,8.2,5.7v0.2c-6.4,0.6-14,4-14,11.2c0,7.3,6.3,13,20.8,13c15.4,0,23.8-4.9,23.8-13.3
			c0-10.6-8.6-11.8-17.2-12.5c-10.1-0.7-11.7-1.6-11.7-4.1c0-3,4.1-3.4,7.1-3.9l2.2-0.4c12.8-2.1,16.8-8.8,16.8-16
			c0-3.9-1.7-7.4-4-9.1v-0.2h8.9V167.4z M475.3,219.1c0,4.1-2.8,8.4-11.5,8.4c-7.7,0-10.7-3.6-10.7-8c0-4.8,2.8-8.7,11-8.7
			C472,210.9,475.3,214.6,475.3,219.1 M471.5,182.3c0,7.8-2.3,11.6-7.2,11.6c-4.8,0-8-3.4-8-11.5c0-7.8,2.8-10.8,7.9-10.8
			C468.6,171.7,471.5,174.2,471.5,182.3 M492.8,172.8h3.9c3.7,0,4.1,0.8,4.1,6.8v21.9c0,4.1-0.5,5.6-5.1,5.6h-2.9v4.4H522v-4.4h-4.9
			c-4.7,0-5.1-1.5-5.1-5.6v-14.7c0-7.5,4.2-13.1,8.4-13.1c3.6,0,4.6,2.5,4.7,7h8.8v-12.9c-2.1-0.7-4.7-1.1-7.3-1.1
			c-7.4,0-12.6,3-15.7,10.3h-0.2v-10c-4.5,0.5-12.6,1.1-17.9,1.1V172.8z M549.9,189.9c0-12.2,2.7-17.9,10.3-17.9
			c7.5,0,10.3,5.7,10.3,17.9c0,12.2-2.8,17.9-10.3,17.9C552.7,207.8,549.9,202.1,549.9,189.9 M538.2,189.9c0,13.3,6.6,23.1,22,23.1
			c15.4,0,22-9.9,22-23.1s-6.6-23.2-22-23.2C544.8,166.7,538.2,176.6,538.2,189.9 M588.3,172.8h3.4c3.7,0,4.1,0.8,4.1,6.8v21.9
			c0,4.1-0.5,5.6-5.1,5.6h-2.9v4.4h25.6v-4.4h-1.3c-4.7,0-5.1-1.5-5.1-5.6v-14.7c0-8.4,4.6-13.1,11.3-13.1c4.9,0,8.1,2.9,8.1,9.2
			v18.6c0,4.1-0.5,5.6-5.1,5.6h-1.3v4.4H645v-4.4h-2.4c-4.7,0-5.1-1.5-5.1-5.6v-21.2c0-9.7-7-13.6-15.9-13.6
			c-7.4,0-12.6,3-15.7,10.3h-0.2v-10c-4.5,0.5-12.6,1.1-17.3,1.1V172.8z M649.8,172.8h3.4c3.7,0,4.1,0.8,4.1,6.8v21.9
			c0,4.1-0.5,5.6-5.1,5.6h-2.9v4.4H676v-4.4h-2.4c-4.7,0-5.1-1.5-5.1-5.6v-34.5c-5.9,0.5-14,1.1-18.7,1.1V172.8z M656.1,152.8
			c0,3.9,2.4,6.7,6.7,6.7c4.3,0,6.7-2.9,6.7-6.7c0-3.9-2.4-6.7-6.7-6.7C658.4,146.1,656.1,149,656.1,152.8 M680.9,172.8h3.4
			c3.7,0,4.1,0.8,4.1,6.8v21.9c0,4.1-0.5,5.6-5.1,5.6h-2.9v4.4H706v-4.4h-1.3c-4.7,0-5.1-1.5-5.1-5.6v-14.7
			c0-8.4,4.6-13.1,11.3-13.1c4.9,0,8.1,2.9,8.1,9.2v18.6c0,4.1-0.5,5.6-5.1,5.6h-1.3v4.4h25.1v-4.4h-2.4c-4.7,0-5.1-1.5-5.1-5.6
			v-21.2c0-9.7-7-13.6-15.9-13.6c-7.4,0-12.6,3-15.7,10.3h-0.2v-10c-4.5,0.5-12.6,1.1-17.3,1.1V172.8z M789,167.4l-13.6,1.2
			c-2.6-0.7-6.8-1.9-10.6-1.9c-12,0-19.9,6.7-19.9,15.4c0,8.2,5.2,12.2,12.1,14.4v0.2c-6.3,0.5-9,2.8-9,5.6c0,3,2.1,4.6,8.2,5.7v0.2
			c-6.4,0.6-14,4-14,11.2c0,7.3,6.3,13,20.8,13c15.4,0,23.8-4.9,23.8-13.3c0-10.6-8.6-11.8-17.2-12.5c-10.1-0.7-11.7-1.6-11.7-4.1
			c0-3,4.1-3.4,7.2-3.9l2.2-0.4c12.8-2.1,16.8-8.8,16.8-16c0-3.9-1.7-7.4-4-9.1v-0.2h8.9V167.4z M775.8,219.1
			c0,4.1-2.8,8.4-11.5,8.4c-7.7,0-10.7-3.6-10.7-8c0-4.8,2.8-8.7,11-8.7C772.5,210.9,775.8,214.6,775.8,219.1 M771.9,182.3
			c0,7.8-2.3,11.6-7.2,11.6c-4.9,0-8-3.4-8-11.5c0-7.8,2.8-10.8,7.9-10.8C769,171.7,771.9,174.2,771.9,182.3 M806.8,185.4
			c0-7.5,2.3-13.7,10.2-13.7c7.9,0,9.8,6.4,9.8,13.7H806.8z M837.9,190.6v-2.1c0-15.1-6.1-21.8-20.9-21.8c-15.4,0-22,9.9-22,23.2
			s6.6,23.1,22,23.1c15.3,0,19.9-7.7,20-15.4h-9.3c-0.1,6.7-2.8,10.2-9.5,10.2c-11.3,0-11.4-11.1-11.4-17.2H837.9z M845.2,172.8h3.4
			c3.7,0,4.1,0.8,4.1,6.8v21.9c0,4.1-0.5,5.6-5.1,5.6h-2.9v4.4h25.6v-4.4H869c-4.7,0-5.1-1.5-5.1-5.6v-14.7
			c0-8.4,4.6-13.1,11.3-13.1c4.9,0,8.1,2.9,8.1,9.2v18.6c0,4.1-0.5,5.6-5.1,5.6h-1.3v4.4h25.1v-4.4h-2.4c-4.7,0-5.1-1.5-5.1-5.6
			v-21.2c0-9.7-7-13.6-15.9-13.6c-7.4,0-12.6,3-15.8,10.3h-0.2v-10c-4.5,0.5-12.6,1.1-17.3,1.1V172.8z"/>
		<path fill="#CB1517" d="M481.4,121.9h17.3v-4.4h-2.4c-4.7,0-5.1-1.5-5.1-5.7V77.4c-5.9,0.5-14,1.1-18.7,1.1v4.7h3.4
			c3.7,0,4.1,0.8,4.1,6.8v12.3c0,9.2-3.4,14.1-11.2,14.1c-5.2,0-8.2-2.6-8.2-7.9v-31c-5.9,0.5-14,1.1-18.7,1.1v4.7h3.4
			c3.7,0,4.1,0.8,4.1,6.8v21c0,8.3,5.5,12.4,14.6,12.4c9.2,0,15-3.9,17.1-10h0.2V121.9z M503.6,83.1h3.4c3.7,0,4.1,0.8,4.1,6.8v21.9
			c0,4.1-0.5,5.7-5.1,5.7H503v4.4h25.6v-4.4h-1.3c-4.7,0-5.1-1.5-5.1-5.7V97.1c0-8.4,4.6-13.1,11.3-13.1c4.9,0,8.1,2.9,8.1,9.2v18.6
			c0,4.1-0.5,5.7-5.1,5.7h-1.3v4.4h25.1v-4.4h-2.4c-4.7,0-5.1-1.5-5.1-5.7V90.7c0-9.7-7-13.6-15.9-13.6c-7.4,0-12.6,3.1-15.8,10.3
			h-0.2v-10c-4.5,0.5-12.6,1.1-17.3,1.1V83.1z M565.1,83.1h3.4c3.7,0,4.1,0.8,4.1,6.8v21.9c0,4.1-0.5,5.7-5.1,5.7h-2.9v4.4h26.7
			v-4.4h-2.4c-4.7,0-5.1-1.5-5.1-5.7V77.4c-5.9,0.5-14,1.1-18.7,1.1V83.1z M571.3,63.1c0,3.9,2.4,6.7,6.7,6.7c4.3,0,6.7-2.9,6.7-6.7
			c0-3.8-2.4-6.7-6.7-6.7C573.7,56.4,571.3,59.3,571.3,63.1 M622.3,82.9h3.8c2.1,0,2.7,0.5,2.7,1.2c0,0.7-0.2,1.6-0.5,2.2l-9.5,26.7
			h-0.2l-8.8-25.3c-0.3-0.9-0.8-2-0.8-3.1c0-1,0.9-1.6,3.7-1.6h3v-4.4h-22.9v4.4h1.1c2,0,2.6,0.5,3.7,3.5l14.2,36.1h10.8l14.2-36.5
			c0.9-2.3,1.7-3,3.7-3h1.2v-4.4h-19.4V82.9z M656.1,95.7c0-7.5,2.3-13.7,10.2-13.7c7.9,0,9.8,6.4,9.8,13.7H656.1z M687.3,100.9
			v-2.1c0-15.1-6.1-21.8-20.9-21.8c-15.4,0-22,9.9-22,23.2c0,13.3,6.6,23.1,22,23.1c15.3,0,19.9-7.7,20-15.4H677
			c-0.1,6.7-2.8,10.2-9.5,10.2c-11.3,0-11.4-11.1-11.4-17.2H687.3z M694,83.1h4c3.7,0,4.1,0.8,4.1,6.8v21.9c0,4.1-0.5,5.7-5.1,5.7
			H694v4.4h29.2v-4.4h-4.9c-4.7,0-5.1-1.5-5.1-5.7V97.1c0-7.5,4.2-13.1,8.4-13.1c3.6,0,4.6,2.5,4.7,7h8.8V78.1
			c-2.1-0.7-4.7-1.1-7.3-1.1c-7.4,0-12.6,3.1-15.8,10.3h-0.2v-10c-4.5,0.5-12.6,1.1-17.9,1.1V83.1z M741.5,120.4
			c2.6,1.1,9.3,2.9,16.8,2.9c9.6,0,19.8-4,19.8-14.5c0-6.8-3.5-9.4-11.4-11.9l-7.5-2.4c-4.2-1.3-6.6-3.8-6.6-7.2
			c0-3.6,2.7-5.3,6.9-5.3c6.6,0,8.3,2.9,8.3,9.8h7.7V79.4c-2.7-1.2-8.8-2.4-15.8-2.4c-10.8,0-18.3,4.9-18.3,13.1
			c0,7,5.1,10.8,15.7,13.9c8.4,2.5,9.7,4.5,9.7,7.8c0,4.1-3.8,6.6-9.7,6.6c-6.3,0-8.1-4.1-8.1-10.5h-7.7V120.4z M785.4,83.1h3.4
			c3.7,0,4.1,0.8,4.1,6.8v21.9c0,4.1-0.5,5.7-5.1,5.7h-2.9v4.4h26.7v-4.4h-2.4c-4.7,0-5.1-1.5-5.1-5.7V77.4
			c-5.9,0.5-14,1.1-18.7,1.1V83.1z M791.6,63.1c0,3.9,2.4,6.7,6.7,6.7c4.3,0,6.7-2.9,6.7-6.7c0-3.8-2.4-6.7-6.7-6.7
			C794,56.4,791.6,59.3,791.6,63.1 M815.9,83.7h8v25.7c0,11.1,5.1,14.1,14.4,14.1c8.9,0,14-4.3,14-13.9v-2h-7.7v4.6
			c0,3.9-1.5,5.6-4.8,5.6s-4.8-1.7-4.8-5.6V83.7h14.6v-5.2h-14.6V65.8h-8c-0.7,9.1-2.7,11.7-11.3,12.6V83.7z M877.2,120.8l-4.4,10.9
			c-1.2,3.1-2.4,5-5.9,5h-4.1v4.4h24.5v-4.4h-3c-3.6,0-4.6-0.8-4.6-2.7c0-1.4,0.9-3.5,1.5-4.8l18-42.1c1.3-3,2.1-4.4,4-4.4h2v-4.4
			h-19.4v4.4h3.8c1.6,0,2.2,0.3,2.2,1.5c0,0.8-0.5,1.9-1,3.1l-8.3,20.9L875,88.5c-0.5-1.4-1.2-2.7-1.2-4c0-1.3,0.9-1.6,2.5-1.6h3.4
			v-4.4H857v4.4h1.4c2.2,0,3.3,1.3,5.1,5.6L877.2,120.8z M933.8,100.2c0-12.2,2.7-17.9,10.3-17.9c7.5,0,10.3,5.7,10.3,17.9
			c0,12.2-2.8,17.9-10.3,17.9C936.6,118.1,933.8,112.4,933.8,100.2 M922.1,100.2c0,13.3,6.6,23.1,22,23.1s22-9.9,22-23.1
			c0-13.3-6.6-23.2-22-23.2S922.1,86.9,922.1,100.2 M971.7,83.7h8.1v28.2c0,4.1-0.5,5.7-5.1,5.7h-2.9v4.4h29.2v-4.4H996
			c-4.7,0-5.1-1.5-5.1-5.7V83.7h12v-5.2h-12v-8.9c0-5.4,2.2-8,5.9-8c3.4,0,4.6,2,4.6,7.9h7.7V57.6c-3.7-0.7-7.7-1.3-12.2-1.3
			c-16.7,0-17.2,9.9-17.2,22.1h-8.1V83.7z"/>
	</g>
	<polygon fill="#CB1517" points="379.5,77.8 216.9,274.4 229.8,274.4 392.4,77.8 	"/>
	<g>
		<path fill="#CB1517" d="M96.6,186.1c8.7,0,13.2,5.3,16.1,6.4c6.9,2.7,8,1.3,8,1.3v-49.2c0-0.5-0.7-0.5-0.7-0.5s-6.7-1-9-2.4
			c-2.2-1.3-10.3-6.1-16.3-6.1c-6,0-7,2.5-7,2.5v49.7C87.8,187.9,90.6,186.1,96.6,186.1 M52.8,144.7v49c0,0,0.5,0.7,3.9-0.2
			c3.8-1,8.6-5.8,15.3-7.3c5-1.1,11.8,0.5,13.3,1.6v-49c0,0-3-2.9-8-2.9c-4.9,0-13.1,4.3-16.2,5.8c-2.7,1.3-5.6,2.4-7.7,2.6
			C52.8,144.2,52.8,144.7,52.8,144.7 M83.6,192.8c0,1.8,1.5,3.2,3.3,3.2c1.8,0,3.3-1.4,3.3-3.2c0-1.8-1.4-3.2-3.3-3.2
			C85,189.7,83.6,191.1,83.6,192.8 M42.7,124.2c6.8,0,7.4-6.3,7.4-6.3H35.2C35.2,117.9,35.9,124.2,42.7,124.2 M35.1,112.6h15.2v-6
			H35.1V112.6z M125.5,216.5c6.8,0,7.4-6.3,7.4-6.3H118C118,210.1,118.7,216.5,125.5,216.5 M117.9,204.8h15.1v-6h-15.2L117.9,204.8z
			 M122.9,190.4c0.8,1,1.7,1.8,2.6,2c2.6-0.5,5.1-6,5-7.4c0.1-0.6-0.5-1.3-0.4-1.5c0.1-0.2,1.3,0.2,2,0.2c0.7,0,2.2-0.7,3.2-0.7
			c1.9,0,2.2,1.1,2.5,1.2c0.3,0.1,0.7,0,1.3,0.2c0.6,0.3,1.4,1.1,1.1,1.8c-0.9,0.1-1.3,0-1.8,0c-0.7,0-1.5,0.7-1.6,1.2
			c0,0.1,1.9,0.2,2.8,0.2c2.9,0.1,1.9-1.6,1.9-1.7c-0.1-0.3,1.6,0,1.6,1.3c0,1.1-1.9,1.7-3.5,1.6c-1.2-0.1-2.7-0.7-3-0.7
			c-0.1,0-1,1.7,0.4,1.7c0.5,0,1.1-0.3,1.1-0.3c0.3,0,0.7,0.8-1.1,1.2c-2.5,0.5-3.9,0.6-4.5,2.2c-0.5,1.2-0.3,2.5,0.4,3.6
			c2,3.1,8.2,2.6,9.7,0.7c0.5-0.7,0.6-1.6,0-1.6c-1.8,0.2-4.4,0.4-4.6-1.7c0-1.8,3.1-1.8,6-4.6c2.3-2.3,2.7-3.7,2.9-4.9
			c0.1-0.4,0.1-1.4,0.1-1.4c0.1-0.4,0.9,1,1,1.3c0.6,1.7,0.2,3.5,0.2,3.5c0.7-0.6,1.5-1.5,1.9-2.2c0.2-0.4,0.6-1,0.7-1.3
			c0.2-0.5,0.3,1.1,0.1,2.3c-0.3,1.7-1.9,3.2-1.9,3.2c3.1,0,4.4-3.5,4.4-3.5c2.4,2.7-1.4,6.2-1.4,6.2s0.5,0.2,1.1,0
			c0.9-0.2,1.5-0.4,2-1.1c0.6-0.6,0,1.6-1.6,2.5c-2.6,1.6-5.2,1.7-5.2,1.7c0.5,1.2,2.6,1.4,3.8,1.3c1.7-0.1,3-1.3,3-1.3
			c1.9,3.3-3,5.4-3.4,5.5c1.3,1,2.4,1.5,3.2,1.6c0.3,0,0.6,0,0.8,0c0.2,0-0.4,0.8-1.8,0.7c-2.3-0.2-4.3-0.9-4.3-0.9
			c3,6.3,6.7,6.1,7,6c0,0,0,2.8-4,2.8c-0.2,0-0.4,0-0.6,0c-1.5-0.2-2.7-1.2-2.9-1.3c0.1,2.1,4.7,4.2,4.7,4.2c0.2,0.2-1,0.7-2.7,0.4
			c-0.8-0.1-1.8-0.4-2.7-1.1c-2.2-1.4-3.9-4.5-4-4.7c-1.2,4.8,2.8,7,3.7,7.2c0.6,0.1-0.9,0.7-2.4,0.5c-0.3,0-0.6-0.1-0.8-0.2
			c-2.8-1.2-4.3-4-4.4-4.2c-0.1,0.2-0.6,2.6,1.4,4.9c0.1,0.1-0.1,0.1-0.4,0.1c-0.3-0.1-0.8-0.2-1.2-0.5c-1.5-1.1-2.8-2.8-3-5
			c-1.3,0.2-2.3,1.5-2.8,2.5c-0.5,0.9-0.4,2.1,0.1,3c0.7,1.2,1.4,1.8,2.4,2c0.8,0.2,1.6,0.1,2.4,0.3c0.7,0.1,1.3,0.4,1.9,1
			c0.7,0.9,0.2,2.9-1,2.6c0,0,0.4-1-0.4-1.7c-0.3-0.2-0.6-0.3-0.9-0.4c-0.6-0.1-1.2,0.2-1.5,0.8c-0.7,1.3,2,3,3.3,3.5
			c0,0,0.7,0.4,1.5,0.5c0.8,0.1,1.6-0.1,1.8-1.5c-0.3-0.3-1-0.4-1-1.7c0-1.1,0.9-1.5,0.9-1.5c0.3-1.3,2.3-1.2,2.3-1.2
			c0.2,0,0,0.1-0.1,0.2c-0.5,0.2-0.6,0.6-0.5,0.9c0.1,0.3,1.1,0.9,0.3,2.9c0.1,0,1,0.1,1.2-1.4c0.1-0.6-0.1-1.1,0.1-1.5
			c0.2-0.4,0.7-0.6,1.3-0.5c0.6-0.2,1.1-0.3,1.4-0.2c1.1,0.2,1.3,1.2,1.3,1.2s0,0.1-0.1,0.1c-0.1,0-0.2-0.1-0.4-0.1
			c-0.5-0.1-1.2,0-1.1,0.4c0.1,0.3,0.3,0.6-0.3,1.3c-0.8,1-2.5,0.3-2,2.4c0.1-0.1,0.5-0.7,1.4-0.6c0.8,0.1,1.6,1,1.6,2.3
			c0,0.5-0.2,0.9-0.7,1.2c0,0-0.1-0.1,0-0.1c0.1-0.6-0.1-1-0.5-1.1c-0.8-0.1-0.6,0.5-1.6,0.5c-0.1,0-0.3,0-0.4,0
			c-0.4-0.1-0.6-0.2-0.9-0.2c-0.1,0-0.2,0-0.2,0c-1.3,0.2-2.9,1.1-3.5,2c-0.6,0.9,0.1,1.1-0.5,1.9c-0.5,0.7-1,0.6-1,0.6s0,0.2,0,0.4
			c0,0.3,0.2,0.8,0.6,0.9c0,0,0.1,0.1,0,0.1c-0.1,0-0.4,0.1-0.7,0.1c-0.4-0.1-0.8-0.3-1-1c-0.1-0.2-0.1-0.5-0.1-0.7
			c0,0-0.7-0.7-0.4-1.6c0.4-1.1,1.4-0.7,1-2c-0.5-1.4-3.2-3.8-5-4.1c-0.4-0.1-0.8,0-1,0.2c-0.6,0.5-0.7,2,1.2,2.1
			c-0.4,0.8-1,1-2.1,0.7c-0.9-0.2-1.7-1.5-1.4-3.2c0.4-2.2-1-4-2.3-4.2c-0.2,0-0.4,0-0.6,0c-1.6,0.3-1.3,2.6-1.3,2.6l0.8,8.9
			c0,0.3,0.1,0.7,0.4,1.1c0.5,0.8,1.6,1.8,3.1,2.1c1.3,0.2,2.3-0.1,2.7-0.5c0.1-0.1,0.6-1,0.4-1.6c-0.1-0.2-0.2-0.4-0.5-0.5
			c-0.1,0-0.1-0.1-0.2-0.1c-0.5-0.1-0.8,0.4-0.9,0.3c-0.2-0.6,0.1-1.7,1.8-1.4c1.1,0.2,1.5,0.9,1.6,1.7c0.1,0.9-0.2,1.7-0.2,1.7
			s1-0.3,2.1-0.2c0.1,0,0.2,0,0.3,0.1c0.9,0.4,1.6,0.8,1.7,1.8c0.1,1.1-0.8,1.6-0.8,1.6s0.3-0.8-0.6-1.3c-0.2-0.1-0.4-0.2-0.6-0.2
			c-1.1-0.2-1.7,1-1.6,1.8c0.1,1.4-0.3,2.4-1.3,2.6c-0.2,0-0.4,0-0.6,0c-0.7-0.1-0.8-0.6-0.8-0.6s1.1,0.1,1.1-0.9
			c0.1-2.5-4.4-2.5-6-3.3c-1.4-0.7-2-1.5-2-1.5s-0.1,0.1-0.1,0.6c0.3,2.6,1.9,2.7,3.5,3.1c1.1,0.3,2.3,1.1,2.3,2.6
			c0,2.1-1.4,1.9-1.4,1.9s0.6-1.7-1-1.9c-0.1,0-0.2,0-0.4,0c-0.9,0-1.4,0.4-1.9,0.8c-0.8,0.6-3.3,3.4-3.7,3.9
			c-0.5-0.5-2.9-3.3-3.7-3.9c-0.5-0.4-1-0.8-1.9-0.8c-0.1,0-0.3,0-0.4,0c-1.6,0.2-1,1.9-1,1.9s-1.4,0.2-1.4-1.9
			c0-1.5,1.2-2.4,2.3-2.6c1.6-0.4,3.2-0.5,3.5-3.1c0-0.5-0.1-0.6-0.1-0.6s-0.6,0.9-2,1.5c-1.7,0.8-6.1,0.8-6,3.3
			c0,1,1.1,0.9,1.1,0.9s-0.1,0.5-0.8,0.6c-0.2,0-0.4,0-0.6,0c-1-0.1-1.4-1.2-1.3-2.6c0.1-0.8-0.5-2-1.6-1.8c-0.2,0-0.4,0.1-0.6,0.2
			c-0.9,0.5-0.6,1.3-0.6,1.3s-1-0.5-0.8-1.6c0.1-1,0.8-1.4,1.7-1.8c0.1,0,0.2,0,0.3-0.1c1.2-0.2,2.2,0.2,2.2,0.2s-0.3-0.9-0.2-1.7
			c0.1-0.7,0.5-1.5,1.6-1.7c1.7-0.3,2,0.8,1.8,1.4c-0.1,0-0.4-0.4-0.9-0.3c-0.1,0-0.1,0-0.2,0.1c-0.3,0.1-0.5,0.3-0.5,0.5
			c-0.3,0.7,0.3,1.5,0.4,1.6c0.3,0.4,1.4,0.7,2.7,0.5c1.5-0.3,2.6-1.3,3.1-2.1c0.3-0.5,0.4-0.9,0.4-1.1l0.8-8.9c0,0,0.3-2.3-1.3-2.6
			c-0.2,0-0.4,0-0.6,0c-1.3,0.2-2.8,2-2.3,4.2c0.3,1.7-0.5,3-1.4,3.2c-1.1,0.2-1.7,0-2.1-0.7c1.9-0.1,1.8-1.6,1.2-2.1
			c-0.3-0.2-0.6-0.3-1.1-0.2c-1.8,0.3-4.6,2.6-5,4.1c-0.4,1.3,0.6,1,1,2c0.3,0.9-0.4,1.6-0.4,1.6c0,0.3-0.1,0.5-0.1,0.7
			c-0.2,0.7-0.6,1-1,1c-0.3,0-0.6,0-0.7-0.1c0.5-0.2,0.6-0.6,0.7-1c0-0.2,0-0.4,0-0.4s-0.5,0-1-0.6c-0.5-0.8,0.1-1.1-0.5-1.9
			c-0.6-0.9-2.2-1.8-3.5-2c-0.1,0-0.2,0-0.2,0c-0.3,0-0.5,0.2-0.9,0.2c-0.1,0-0.2,0-0.4,0c-1,0-0.7-0.6-1.6-0.5
			c-0.4,0.1-0.7,0.5-0.5,1.1c0,0.1,0,0.1,0,0.1c-0.5-0.3-0.7-0.7-0.7-1.2c0-1.3,0.8-2.2,1.6-2.3c0.9-0.1,1.4,0.5,1.4,0.6
			c0.5-2.1-1.2-1.4-2-2.4c-0.6-0.7-0.3-1.1-0.3-1.3c0.1-0.4-0.6-0.4-1.1-0.4c-0.1,0-0.3,0-0.4,0.1c-0.1-0.1,0.2-1.1,1.2-1.3
			c0.4-0.1,0.8,0,1.4,0.2c0.6-0.2,1.1,0.1,1.3,0.5c0.2,0.4,0,1,0.1,1.5c0.2,1.4,1.1,1.4,1.2,1.4c-0.8-2,0.2-2.6,0.3-2.9
			c0.1-0.3,0-0.8-0.5-0.9c-0.1,0-0.3-0.1-0.1-0.2c0,0,2-0.1,2.3,1.2c0,0,0.9,0.5,0.9,1.5c0,1.3-0.7,1.4-1,1.7c0.2,1.4,1,1.6,1.8,1.5
			c0.8-0.1,1.5-0.5,1.5-0.5c1.3-0.5,4-2.2,3.3-3.5c-0.3-0.6-0.9-0.9-1.5-0.8c-0.3,0-0.6,0.2-0.9,0.4c-0.8,0.7-0.4,1.7-0.4,1.7
			c-1.2,0.3-1.8-1.7-1-2.6c0.5-0.6,1.2-0.8,1.9-1c0.8-0.1,1.6-0.1,2.4-0.3c1-0.2,1.7-0.8,2.4-2c0.5-0.8,0.5-2,0.1-3
			c-0.5-1-1.4-2.3-2.8-2.5c-0.3,2.2-1.5,3.9-3,5c-0.4,0.2-0.9,0.4-1.2,0.5c-0.3,0-0.4,0-0.4-0.1c2-2.3,1.5-4.6,1.4-4.9
			c-0.1,0.3-1.7,3-4.4,4.2c-0.3,0.1-0.5,0.2-0.8,0.2c-1.5,0.2-3-0.5-2.4-0.5c1-0.1,4.9-2.4,3.7-7.2c-0.1,0.3-1.9,3.3-4,4.7
			c-0.9,0.6-1.9,0.9-2.7,1.1c-1.7,0.3-3-0.2-2.7-0.4c0,0,4.7-2.2,4.7-4.2c-0.1,0.1-1.4,1.1-2.9,1.3c-0.2,0-0.4,0-0.6,0
			c-4,0-4-2.8-4-2.8c0.3,0,4,0.3,7-6c0,0-2,0.7-4.3,0.9c-1.4,0.1-1.9-0.7-1.8-0.7c0.2,0.1,0.5,0.1,0.8,0c0.7-0.1,1.8-0.6,3.2-1.6
			c-0.4-0.2-5.2-2.3-3.4-5.5c0,0,1.3,1.1,3,1.3c1.2,0.1,3.3-0.1,3.8-1.3c0,0-2.6-0.1-5.2-1.7c-0.1,0-0.2-0.1-0.2-0.1
			c-1.2,0-2.4,0-3.6,0.2c-0.8,3.2-3.5,5.5-6.7,5.5c-3.2,0-5.9-2.3-6.7-5.5c-2.1-0.4-4.1-0.4-6-0.3l-45.6,47.6
			c4.4,4,9.2,7.5,14.3,10.3l42.7-44.5v23.6l-26.8,28c9.7,3.2,19.6,4.7,28.3,4.7c33.3,0,83-21.4,81.9-81.1v-38.4l-21.3,22.2h-22.6
			l43.9-45.8V94.9l-46.1,48c0.2,0.2,0.3,0.4,0.3,0.6L122.9,190.4z M108.3,195.2c-0.2,0.5-0.2,1.5,0.1,1.9c1.3,1.7,6.6,2.3,9,0
			C114.3,196.7,111.3,195.9,108.3,195.2 M50.8,144.9c0-0.1,0-0.4,0-0.7c-1.2-0.3-2.6-0.5-3.4-0.9c-1.4-0.7-2-1.5-2-1.5
			s-0.1,0.1-0.1,0.6c0.3,2.6,1.9,2.7,3.5,3.1c0.7,0.2,1.5,0.6,1.9,1.3V144.9z M55.5,141.7c0.8-0.2,1.7-0.5,2.6-0.9
			c-0.1-0.1-0.2-0.4-0.3-0.6c-0.1-0.2-0.1-0.5-0.1-0.7c0,0-0.7-0.7-0.4-1.6c0.4-1.1,1.4-0.8,1-2c-0.5-1.4-3.2-3.8-5-4.1
			c-0.4-0.1-0.8,0-1,0.2c-0.6,0.5-0.7,2,1.2,2.1c-0.4,0.8-1,1-2.1,0.7c-0.8-0.2-1.7-1.5-1.4-3.2c0.5-2.2-1-4-2.3-4.2
			c-0.2,0-0.4,0-0.6,0c-1.6,0.3-1.3,2.6-1.3,2.6l0.8,9c0,0.3,0.1,0.7,0.4,1.1c0.5,0.8,1.6,1.8,3.1,2.1c1.3,0.2,2.3-0.1,2.7-0.5
			c0.1-0.1,0.7-1,0.4-1.6c-0.1-0.2-0.3-0.4-0.5-0.5c-0.1,0-0.2-0.1-0.2-0.1c-0.5-0.1-0.8,0.4-0.9,0.3c-0.3-0.6,0.1-1.7,1.8-1.4
			c1.1,0.2,1.5,1,1.6,1.7c0.1,0.9-0.2,1.7-0.2,1.7S54.9,141.8,55.5,141.7 M58.9,140.4c0.4-0.2,0.9-0.4,1.4-0.6
			c1.6-0.8,4.5-2.3,7.6-3.5c3.1-1.3,6.7-2.5,9.6-2.5c2.9,0,5.2,0.9,6.8,1.7c0.8,0.4,1.4,0.8,1.9,1.2l0.2,0.1
			c0.1-0.1,0.1-0.2,0.2-0.3c0.3-0.4,0.8-0.9,1.5-1.3c1.4-0.9,3.6-1.6,6.9-1.6c3.4,0,7.3,1.3,10.4,2.7l0.7,0.3l53.3-55.6h-24.1
			l-46.9,49v-23.6l24.3-25.4H4.8v101c-0.1,3.8,0.1,7.4,0.4,10.9l23.2-24.2h22.3v-19.3c-0.4,0.6-1.1,0.5-1.1,0.5s0.6-1.7-1-1.9
			c-0.1,0-0.2,0-0.4,0c-0.9,0-1.4,0.4-1.9,0.8c-0.8,0.6-3.3,3.4-3.7,3.9c-0.5-0.5-2.9-3.2-3.7-3.9c-0.5-0.4-1-0.8-1.9-0.8
			c-0.1,0-0.3,0-0.4,0c-1.6,0.2-1,1.9-1,1.9s-1.4,0.2-1.4-1.9c0-1.5,1.2-2.4,2.3-2.6c1.6-0.4,3.2-0.5,3.5-3.1c0-0.5-0.1-0.6-0.1-0.6
			s-0.6,0.9-2,1.5c-1.7,0.8-6.1,0.8-6,3.3c0,1,1.1,0.9,1.1,0.9s-0.1,0.5-0.8,0.6c-0.2,0-0.4,0-0.6,0c-1-0.1-1.4-1.2-1.3-2.6
			c0.1-0.8-0.5-2-1.6-1.8c-0.2,0-0.4,0.1-0.6,0.2c-0.8,0.5-0.6,1.3-0.6,1.3s-1-0.5-0.8-1.6c0.1-1,0.8-1.4,1.7-1.8
			c0.1,0,0.2,0,0.3-0.1c1.2-0.2,2.1,0.2,2.1,0.2s-0.3-0.9-0.2-1.7c0.1-0.7,0.5-1.5,1.6-1.7c1.7-0.3,2,0.8,1.8,1.4
			c-0.1,0.1-0.4-0.4-0.9-0.3c-0.1,0-0.1,0-0.2,0.1c-0.3,0.1-0.4,0.3-0.5,0.5c-0.3,0.7,0.3,1.5,0.4,1.6c0.3,0.4,1.4,0.8,2.7,0.5
			c1.5-0.3,2.6-1.3,3.1-2.1c0.3-0.4,0.4-0.9,0.4-1.1l0.8-9c0,0,0.3-2.3-1.3-2.6c-0.2,0-0.4,0-0.6,0c-1.3,0.2-2.8,2-2.3,4.2
			c0.3,1.7-0.5,3-1.4,3.2c-1.1,0.3-1.7,0-2.1-0.7c1.9-0.1,1.8-1.6,1.2-2.1c-0.2-0.2-0.6-0.3-1-0.2c-1.8,0.3-4.6,2.6-5,4.1
			c-0.4,1.3,0.6,1,1,2c0.3,0.9-0.4,1.6-0.4,1.6c0,0.3-0.1,0.5-0.1,0.7c-0.2,0.7-0.6,1-1,1.1c-0.3,0-0.6,0-0.7-0.1
			c0.5-0.2,0.6-0.6,0.7-1c0-0.2,0-0.4,0-0.4s-0.5,0.1-1-0.6c-0.5-0.8,0.1-1.1-0.5-1.9c-0.6-0.9-2.2-1.8-3.5-2c-0.1,0-0.2,0-0.2,0
			c-0.2,0-0.5,0.2-0.9,0.2c-0.1,0-0.2,0-0.4,0c-1,0-0.7-0.6-1.6-0.5c-0.4,0.1-0.7,0.5-0.5,1.1c0,0.1,0,0.1,0,0.1
			c-0.5-0.3-0.6-0.7-0.7-1.2c0-1.3,0.8-2.2,1.6-2.3c1-0.1,1.4,0.5,1.5,0.6c0.5-2.1-1.2-1.4-2-2.4c-0.6-0.7-0.3-1.1-0.3-1.3
			c0.1-0.4-0.6-0.4-1.1-0.4c-0.1,0-0.3,0.1-0.4,0.1c-0.1-0.1,0.2-1.1,1.2-1.2c0.4-0.1,0.8,0,1.4,0.2c0.6-0.2,1.1,0.1,1.3,0.5
			c0.2,0.5,0,1,0.1,1.5c0.2,1.4,1.1,1.4,1.2,1.4c-0.8-2,0.2-2.6,0.3-3c0.1-0.3,0-0.7-0.5-0.9c-0.1,0-0.3-0.1-0.1-0.2
			c0,0,2-0.1,2.3,1.2c0,0,0.9,0.4,0.9,1.5c0,1.3-0.7,1.4-1,1.7c0.2,1.4,1,1.6,1.8,1.5c0.8-0.1,1.5-0.6,1.5-0.6
			c1.3-0.5,4-2.2,3.3-3.5c-0.3-0.6-0.9-0.9-1.5-0.8c-0.3,0-0.6,0.2-0.9,0.4c-0.8,0.7-0.4,1.7-0.4,1.7c-1.2,0.3-1.8-1.7-1-2.6
			c0.5-0.6,1.2-0.8,1.8-1c0.8-0.1,1.6-0.1,2.4-0.3c1-0.2,1.7-0.8,2.4-2c0.5-0.8,0.5-2,0.1-3c-0.5-1-1.4-2.3-2.8-2.5
			c-0.2,2.2-1.5,3.9-3,5c-0.4,0.3-0.9,0.4-1.2,0.5c-0.3,0-0.4,0-0.4-0.1c2-2.3,1.5-4.6,1.4-4.9c-0.1,0.3-1.7,3-4.4,4.2
			c-0.3,0.1-0.6,0.2-0.8,0.2c-1.5,0.2-3-0.5-2.4-0.5c1-0.1,4.9-2.4,3.7-7.2c-0.1,0.3-1.9,3.3-4,4.8c-0.9,0.6-1.9,0.9-2.7,1.1
			c-1.7,0.3-3-0.2-2.7-0.4c0,0,4.7-2.2,4.7-4.2c-0.1,0.1-1.4,1.1-2.9,1.3c-0.2,0-0.4,0-0.6,0c-4,0-4-2.8-4-2.8c0.3,0,4,0.3,7-6
			c0,0-2,0.7-4.3,0.9c-1.3,0.2-1.9-0.7-1.8-0.7c0.2,0.1,0.5,0.1,0.8,0c0.7-0.1,1.8-0.6,3.2-1.6c-0.4-0.2-5.2-2.3-3.4-5.5
			c0,0,1.3,1.1,3,1.3c1.2,0.1,3.3-0.1,3.8-1.3c0,0-2.6-0.1-5.2-1.7c-1.5-0.9-2.1-3.1-1.6-2.5c0.6,0.7,1.2,0.9,2,1.1
			c0.7,0.2,1.1,0,1.1,0s-3.8-3.5-1.4-6.2c0,0,1.3,3.5,4.4,3.5c0,0-1.6-1.4-1.9-3.2c-0.2-1.2-0.1-2.8,0.1-2.3
			c0.1,0.3,0.5,0.9,0.7,1.3c0.4,0.7,1.2,1.6,1.9,2.2c0,0-0.5-1.8,0.2-3.5c0.1-0.2,1-1.6,1-1.3c0,0,0,1.1,0.1,1.4
			c0.2,1.2,0.7,2.7,2.9,4.9c2.9,2.9,6,2.9,6,4.7c-0.1,2.1-2.8,1.9-4.6,1.7c-0.6,0-0.5,0.9,0,1.6c1.5,1.9,7.7,2.4,9.6-0.7
			c0.7-1.1,0.9-2.4,0.4-3.6c-0.6-1.6-1.9-1.7-4.5-2.2c-1.8-0.4-1.3-1.2-1-1.2c0,0,0.5,0.3,1.1,0.3c1.3,0,0.5-1.7,0.4-1.6
			c-0.3,0-1.8,0.6-3,0.7c-1.6,0.1-3.5-0.5-3.5-1.6c0-1.3,1.7-1.7,1.6-1.3c0,0.1-1,1.8,1.9,1.7c0.9,0,2.8-0.1,2.8-0.2
			c-0.1-0.5-0.9-1.2-1.6-1.2c-0.5,0-0.9,0.1-1.8,0c-0.3-0.8,0.5-1.5,1.1-1.8c0.6-0.3,1-0.2,1.3-0.2c0.3-0.1,0.5-1.2,2.5-1.2
			c1,0,2.5,0.7,3.2,0.7c0.7,0,1.9-0.4,2-0.2c0.1,0.2-0.5,0.9-0.4,1.5c0,1.4,2.4,6.9,5,7.4c2.6-0.5,5.1-6,5-7.4
			c0.1-0.6-0.5-1.3-0.4-1.5c0.1-0.2,1.3,0.2,2,0.2c0.7,0,2.2-0.7,3.2-0.7c1.9,0,2.2,1.1,2.5,1.2c0.2,0.1,0.7,0,1.2,0.2
			c0.6,0.3,1.4,1.1,1.1,1.8c-0.9,0.1-1.3,0-1.8,0c-0.7,0-1.5,0.7-1.6,1.2c0,0.1,1.8,0.2,2.8,0.2c2.9,0.1,1.9-1.6,1.9-1.7
			c-0.1-0.4,1.6,0,1.6,1.3c0,1.1-1.9,1.7-3.5,1.6c-1.2-0.1-2.7-0.7-3-0.7c-0.1,0-1,1.7,0.4,1.6c0.5,0,1.1-0.3,1.1-0.3
			c0.3,0,0.8,0.8-1,1.2c-2.5,0.5-3.9,0.6-4.5,2.2c-0.5,1.2-0.3,2.5,0.4,3.6c1.9,3.1,8.2,2.7,9.7,0.7c0.5-0.7,0.6-1.6,0-1.6
			c-1.8,0.2-4.4,0.4-4.6-1.7c0-1.8,3.1-1.8,6-4.7c2.3-2.3,2.7-3.7,2.9-4.9c0.1-0.4,0.1-1.4,0.1-1.4c0.1-0.3,0.9,1.1,1,1.3
			c0.7,1.7,0.2,3.5,0.2,3.5c0.7-0.6,1.5-1.5,1.9-2.2c0.2-0.4,0.6-1,0.7-1.3c0.2-0.5,0.3,1.1,0.1,2.3c-0.3,1.7-1.9,3.2-1.9,3.2
			c3.1,0,4.4-3.5,4.4-3.5c2.4,2.7-1.4,6.2-1.4,6.2s0.5,0.2,1.1,0c0.9-0.2,1.4-0.4,2-1.1c0.6-0.6,0,1.6-1.6,2.5
			c-2.6,1.6-5.2,1.7-5.2,1.7c0.5,1.2,2.6,1.4,3.8,1.3c1.7-0.1,3-1.3,3-1.3c1.9,3.3-3,5.4-3.4,5.5c1.4,1,2.4,1.5,3.2,1.6
			c0.3,0.1,0.6,0,0.8,0c0.2,0-0.4,0.8-1.8,0.7c-2.3-0.2-4.2-0.9-4.2-0.9c3,6.3,6.7,6.1,7,6c0,0,0,2.8-4,2.8c-0.2,0-0.4,0-0.6,0
			c-1.5-0.2-2.7-1.2-2.9-1.3c0.1,2.1,4.7,4.2,4.7,4.2c0.2,0.2-1,0.7-2.7,0.4c-0.8-0.1-1.8-0.4-2.7-1.1c-2.1-1.4-3.9-4.5-4-4.8
			c-1.2,4.8,2.8,7,3.7,7.2c0.6,0.1-0.9,0.8-2.4,0.5c-0.3,0-0.6-0.1-0.8-0.2c-2.8-1.2-4.3-4-4.4-4.2c-0.1,0.2-0.6,2.6,1.4,4.9
			c0.1,0.1-0.1,0.1-0.4,0.1c-0.3-0.1-0.8-0.2-1.2-0.5c-1.5-1.1-2.8-2.8-3-5c-1.3,0.2-2.3,1.5-2.8,2.5c-0.5,0.9-0.4,2.1,0.1,3
			c0.7,1.2,1.4,1.8,2.4,2c0.8,0.2,1.6,0.1,2.4,0.3c0.7,0.1,1.3,0.4,1.9,1c0.7,0.9,0.2,2.9-1,2.6c0,0,0.4-1-0.4-1.7
			c-0.3-0.2-0.6-0.3-0.9-0.4c-0.6-0.1-1.2,0.2-1.5,0.8c-0.7,1.3,2,3,3.3,3.5c0,0,0.7,0.4,1.5,0.6c0.8,0.1,1.6-0.1,1.8-1.5
			c-0.3-0.3-1-0.4-1-1.7c0-1.1,0.9-1.5,0.9-1.5c0.3-1.3,2.3-1.2,2.3-1.2c0.2,0,0,0.1-0.1,0.2c-0.5,0.2-0.6,0.6-0.5,0.9
			c0.1,0.3,1.1,0.9,0.3,3c0.1,0,1,0.1,1.2-1.4c0.1-0.5-0.1-1.1,0.1-1.5c0.2-0.4,0.7-0.6,1.3-0.5c0.6-0.2,1.1-0.3,1.4-0.2
			c1.1,0.1,1.3,1.2,1.3,1.2s0,0.1-0.1,0.1c-0.1,0-0.2-0.1-0.4-0.1c-0.5-0.1-1.2,0-1.1,0.4c0.1,0.3,0.3,0.6-0.3,1.3
			c-0.8,1-2.5,0.3-2,2.4c0.1-0.1,0.5-0.7,1.5-0.6c0.8,0.1,1.6,1,1.6,2.3c0,0.5-0.2,0.9-0.7,1.2c0,0-0.1-0.1-0.1-0.1
			c0.1-0.6-0.1-1-0.5-1.1c-0.8-0.1-0.6,0.5-1.6,0.5c-0.1,0-0.3,0-0.4,0c-0.4,0-0.6-0.2-0.9-0.2c-0.1,0-0.2,0-0.2,0
			c-1.3,0.2-2.9,1.1-3.5,2c-0.6,0.9,0.1,1.1-0.5,1.9c-0.5,0.7-1,0.6-1,0.6s0,0.2,0,0.4C58.8,140.2,58.8,140.3,58.9,140.4
			 M17.6,228.9l33.2-34.6v-10.1L47,184c0,0-2.6-0.7-1.9-3.2c0.6-2.3,3-1.8,3-1.8s-0.6-2.1,1.6-3c0.4-0.2,0.8-0.3,1.1-0.3l0-6.7
			L9.3,212.3C11.4,218.5,14.2,224,17.6,228.9 M171.7,78v104.1c1.2,62.2-50.7,84.2-85,84.2s-86.2-22.1-85-84.2V78h31.7
			c-0.2-1.9,0.4-3.3,0.4-3.3c43.3-8.5,64.2-8.9,107.5,0c0.9,1.1,1.1,2.3,1,3.3H171.7z M107.7,176.2l-1.1,3.5l2.5,0.8L107.7,176.2z
			 M107.2,175.2c0.2-0.6-0.4-0.7-0.3-1c0.1-0.2,0.8,0.2,1.3,0.4c0.5,0.2,1.2,0.4,1.3,1c0.2,0.6,2.6,8.5,2.8,9.3
			c0.2,0.8,0.7,0.6,0.6,1c-0.1,0.1-0.8-0.2-2.1-0.7c-1.2-0.4-1.7-0.6-1.7-0.8c0-0.4,1.2,0.2,0.9-0.5c-0.2-0.5-0.6-1.9-0.6-1.9
			l-3.2-1l-0.5,1.5c-0.2,0.8,0.5,0.6,0.4,0.9c-0.1,0.2-0.5,0-1.1-0.3c-0.6-0.2-0.8-0.3-0.8-0.4c0-0.3,0.5,0.1,0.7-0.4
			C105.1,181.8,107.1,175.7,107.2,175.2 M111.3,161.6v3.6c0.2,0.1,2.1,1.2,2.1-1C113.4,161.9,111.3,161.6,111.3,161.6 M108.5,169.5
			c0-0.6,0.8,0.2,0.8-0.7V161c0-1-0.5-0.9-0.5-1.3c0-0.4,0.9,0.2,1.1,0.3c0.2,0.1,2.5,1.2,2.8,1.4c0.2,0.1,2.7,1.1,2.7,3.7
			c0,1.8-1.5,1.5-1.5,1.5s1.5,0.9,1.6,2.2c0.1,1.3,0.3,2.5,0.3,2.6c0,0.2,0.3,0.9,1.1,0.2c0,0,0.1,1.6-1.8,1
			c-1.2-0.4-1.6-1.5-1.6-2.2c-0.1-0.7-0.5-4.3-2.2-4.3v3.6c0,1,0.6,0.7,0.6,1.2c0,0.4-0.8-0.2-1.6-0.5
			C109.1,170,108.5,169.9,108.5,169.5 M97.1,140.9c0-0.2,0.5,0,0.5,0l2.9,1c0,0,0.5,0.2,0.5,0.4c0,0.2-1-0.3-1,0.6v8.1
			c0,0,0.2,0.5,1.2,0.2c1-0.4,2.4-1.3,2.4-1.3s0.7-0.3,0.5,0.1c-0.2,0.5-0.9,2-0.9,2s-0.1,0.6-0.9,0.4c-0.8-0.1-2.7-0.7-3.3-0.9
			c-0.5-0.1-2-0.6-2-0.6s-0.3-0.1-0.3-0.3c0-0.2,0.9,0,0.9-0.7v-7.9C97.6,141.2,97.1,141.2,97.1,140.9 M104.6,143.7
			c0.1-0.4,0.9,0.1,2.1,0.6c1.3,0.5,2.2,0.8,2.1,1c-0.1,0.2-1-0.1-0.9,0.4c0.1,0.6,1.5,5.2,1.5,5.2s1.7-3.8,1.7-4
			c0.1-0.5-0.4-0.5-0.4-0.8c0.1-0.2,0.6,0.1,1,0.3c0.4,0.2,1.1,0.4,0.9,0.7c-0.1,0.3-0.6-0.3-0.8,0.1c-0.2,0.5-3.5,7.7-3.5,7.7
			l-3.3-10.4C105,143.9,104.6,143.9,104.6,143.7 M98.8,155.7c0.4,0,0.3,1.5,0.4,2c0.1,1,0.4,1.8,0.1,1.8c-0.5,0-1-1.5-1.7-2.2
			c-0.7-0.7-3.3-2-3.3,3.3c0,4.5,2,4.4,3.1,4.1c1.1-0.3,1.5-1.2,1.6-1.1c0.1,0.1-0.9,2.2-3.1,2.5c-2.2,0.2-4.4-1.9-4.4-5.3
			s1.7-5.5,3.8-5.5c1.7,0,2.2,1.2,3,1.2C98.8,156.6,98.4,155.7,98.8,155.7 M100.8,157.1c0-0.3,1.5,0.3,2.7,0.6
			c1.2,0.4,3.4,0.7,3.4,1.4c0,0.9,0.2,1.7-0.1,1.7c-0.2,0-0.5-1.1-0.9-1.5c-0.6-0.5-1.7-0.8-2-0.8c-0.3-0.1-0.2,0-0.2,0.2v2.8
			c0,0,0.8,0.4,1.2,0.2c0.4-0.2,0.5-0.8,0.7-0.8c0.2,0.1,0.2,0.6,0.1,1.6c0,1,0.1,1.9-0.2,1.8c-0.2-0.1-0.3-0.9-0.8-1.4
			c-0.5-0.5-1.1-0.6-1.1-0.6v4.6c0,0,0.6,0.6,1.8,0.2c1.2-0.4,2-1.2,2.2-1c0.2,0.2,0.1,0.4-0.5,1.3c-0.6,0.9-0.9,1.5-1.5,1.2
			c-0.6-0.2-1.9-0.7-2.7-1.1c-0.8-0.4-2.5-0.8-2.5-1.1c0-0.3,0.8,0.3,0.8-0.7v-7.9C101.4,157.5,100.8,157.3,100.8,157.1 M96.3,171
			c0-0.2,0.3-0.1,0.8,0c0.5,0.1,1.1,0.3,1.6,1c0.4,0.7,3.6,6,3.6,6l0-4.8c0-0.6-0.6-0.7-0.6-0.9c0-0.2,0.4,0,0.9,0.2
			c0.5,0.2,1.1,0.2,1.1,0.4c0,0.2-0.6-0.1-0.6,0.5v9.1c0,0,0,0.4-0.3,0c-0.2-0.3-5-7.8-5-7.8s0,4.7,0,5.2c0,0.6,0.6,0.5,0.6,0.8
			s-0.7,0.1-1.1,0.1c-0.4-0.1-1.1,0-1.1-0.4c0-0.4,0.6,0.2,0.6-0.7v-7.7C96.9,171.3,96.3,171.3,96.3,171 M57.9,147.9
			c0.5-0.2,1.9-0.7,1.9-0.6c0.2,0.4-0.7,0.3-0.4,1.2c0.3,0.7,1.9,4.4,1.9,4.4l1.4-5.3c0.3-1.2-0.7-0.8-0.7-1c0-0.2,0.7-0.4,1.1-0.6
			c0.3-0.2,1.5-0.6,1.5-0.5c0.1,0.4-0.4,0.4-0.7,1.4c-0.4,1.2-2.5,9.6-3.1,9.9c-0.3,0.2-3.2-7-3.5-7.6c-0.2-0.6-1-0.3-1.1-0.7
			C56.2,148.3,57.4,148,57.9,147.9 M65.8,144.6c0.9-0.3,2.5-1,4.2-1.9c0.2-0.1,0.9-0.6,1.3,0.1c0.4,0.6,0.6,1.5,0.4,1.6
			c-0.3,0.1-0.5-0.1-0.9-0.3c-0.3-0.2-0.8-0.4-1.2-0.3c-0.4,0.1-1,0.4-1,0.4l0,2.9c0,0,1.1,0,1.2-0.6c0.1-0.4,0.3-1,0.6-1.1
			c0.2-0.1,0.1,0.5,0.2,1.4c0,0.3,0,0.5,0,0.6c0,1,0,1.4-0.2,1.4c-0.3,0-0.5-0.7-0.6-0.9c-0.1-0.3-1.2,0-1.2,0.1v4.2
			c0,0,0.8-0.4,1.2-0.6c0.5-0.3,1.3-1.2,1.7-1.8c0.3-0.6,0.4-1,0.7-1c0.2,0-0.2,1.8-0.2,1.8s0,0.7-0.6,1c-0.6,0.3-4,1.8-4.3,2
			c-0.6,0.3-1.3,0.7-1.3,0.5c0-0.4,0.6-0.2,0.6-1.4l0-7c0,0,0-0.6-0.5-0.7C65.5,145,65.2,144.9,65.8,144.6 M80.5,149.5
			c0.5,0.1,0.8-0.1,0.8-0.1s-0.2,1.3-1.6,1.3c-1.9,0-1.9-3.3-2.5-4.2s-1.4-0.4-1.4-0.4v3.3c0,1.1,0.7,0.6,0.7,1
			c0,0.2-0.5,0.2-0.5,0.2s-1.5,0.4-2,0.5c-0.5,0.1-0.8,0.2-0.8,0c0-0.4,0.5-0.1,0.5-1.3V143c0-1.3-0.8-0.9-0.8-1.3
			c0-0.2,0.5-0.3,1.1-0.5c0.9-0.2,1.3-0.5,2.6-0.8c1.3-0.3,3.5,0.3,3.5,2c0,1.9-1.1,2.3-1.7,2.7C80.5,146.2,79.5,149.4,80.5,149.5
			 M75.8,141.2v3.7c0,0,1.8-0.1,1.8-2.1C77.6,140.4,75.8,141.2,75.8,141.2 M59,162c1-0.4,3.7-0.9,3.7,1.4c0,1.6-1.1,2-1.1,2
			s2,0.4,2,2c0,1.8-0.9,3.1-1.9,3.7c-0.5,0.3-3.7,1.8-4.1,2c-0.3,0.2-1,0.6-1.1,0.4c-0.2-0.4,0.5-0.3,0.5-1.5v-7.4
			c0-1.6-0.8-0.9-0.8-1.3C56.3,162.9,58,162.4,59,162 M58.8,162.8v3.1c0,0,1.8-0.6,1.8-2.1C60.6,161.9,58.8,162.8,58.8,162.8
			 M58.9,166.8v4.6c0,0,2.4-0.5,2.4-3.4C61.3,165.6,58.9,166.8,58.9,166.8 M69.5,158c0.3-0.1,1.2-0.6,1.3-0.5
			c0.2,0.2-0.3,0.2-0.7,1.7c-0.1,0.5-1.8,8.9-2.4,9.2c-0.2,0.1-3-6.6-3.2-7.1c-0.5-1-0.9-0.3-1-0.6c-0.1-0.2,0.7-0.5,1.3-0.8
			c0.3-0.2,1.6-0.9,1.7-0.7c0.3,0.3-0.7,0.3-0.2,1.3c0.3,0.7,1.8,4,1.8,4s0.9-3.8,1.2-5c0.3-1.3-0.7-0.6-0.8-0.9
			C68.5,158.4,69,158.2,69.5,158L69.5,158z M72.3,157c0-0.2,0.8-0.4,1.3-0.5c0.8-0.2,1.2-0.3,1.6,0c0.3,0.3,1.9,2.8,1.9,2.8
			s2-2.8,2.2-3c0.2-0.2,0.2-0.5,1-0.5c0.9,0,1.3-0.1,1.3,0.1c0,0.3-0.6,0.2-0.6,0.9c0,0.6,0,7.2,0,7.6c0,0.8,0.6,0.6,0.6,0.8
			c0,0.3-0.4,0.2-1.7,0.1c-1.1,0-1.9,0.1-1.9-0.1c0-0.4,0.6-0.1,0.6-0.8v-5c0,0-1.9,2.8-2,2.8c-0.1,0-2.5-3.5-2.5-3.5v6.1
			c0,1,1,0.4,1,0.8c0,0.2-0.7,0.3-1.3,0.4c-0.6,0.1-1.2,0.4-1.3,0.2c-0.1-0.4,0.7-0.2,0.7-1.3c0-1,0-6.5,0-6.9
			C73,156.8,72.3,157.3,72.3,157 M57.6,178c0-0.2,1.1-0.6,1.8-1c1.3-0.6,5.5-2.7,5.5,2.4c0,4.7-3.3,5.4-4.4,5.9
			c-1.1,0.5-2.5,1.2-2.6,0.9c-0.2-0.4,0.6-0.4,0.6-1.3v-5.8C58.5,177.7,57.6,178.5,57.6,178 M62.8,179.4c0-3.4-2.2-2.2-2.2-2.2v7.1
			C60.6,184.3,62.8,184.3,62.8,179.4 M66.1,174.3c0-0.2,0.3-0.3,0.8-0.5c0.6-0.3,0.9-0.6,1.4-0.1c0.5,0.4,3.1,3.4,3.1,3.4v-4.2
			c0-0.5-0.8,0.1-0.8-0.3c0-0.4,0.4-0.4,1-0.6c0.6-0.2,1.5-0.9,1.5-0.5c0,0.5-0.6,0.4-0.6,1v8.1c0,0.7-0.1,0.7-0.4,0.7
			c-0.2,0-4.4-5.2-4.4-5.2v5.5c0,0.5,1-0.2,1,0.3c0,0.3-0.6,0.4-1.2,0.6c-0.6,0.2-1.4,0.6-1.4,0.3c0-0.5,0.7-0.3,0.7-0.8v-7.2
			C66.8,174.3,66.1,174.7,66.1,174.3 M75.3,170.7c0-0.3,0.6-0.3,1.7-0.5c1.1-0.2,2.1-0.5,2.1-0.2c0,0.5-0.7,0.1-0.7,1v8.3
			c0,0.4,0.6,0.1,0.6,0.4c0,0.4-1,0.2-1.8,0.2c-0.8,0-1.8,0.2-1.8-0.1c0-0.6,0.7,0,0.7-0.5v-7.9C76,170.6,75.3,171.4,75.3,170.7
			 M156.5,161.6c0.6-2.3,3-1.8,3-1.8s-0.6-2.1,1.6-3c2.4-1.1,3.6,1.5,3.6,1.5l1,6.7l-7.3-0.2C158.4,164.8,155.8,164.1,156.5,161.6
			 M72.6,252.5c0.6-2.3,3-1.7,3-1.7s-0.6-2.1,1.6-3c2.4-1.1,3.6,1.6,3.6,1.6l1,6.7l-7.3-0.2C74.5,255.7,71.9,255,72.6,252.5
			 M156.4,114.1c0.6-2.3,3-1.8,3-1.8s-0.6-2.1,1.6-3c2.4-1.1,3.6,1.6,3.6,1.6l1,6.7l-7.3-0.2C158.3,117.3,155.8,116.6,156.4,114.1
			 M145.6,125.6c0.6-2.3,3-1.7,3-1.7s-0.6-2.1,1.6-3c2.4-1.1,3.6,1.6,3.6,1.6l1,6.7l-7.3-0.2C147.5,128.8,145,128.1,145.6,125.6
			 M134.8,137.2c0.6-2.3,3-1.8,3-1.8s-0.6-2.1,1.6-3c2.4-1.1,3.6,1.5,3.6,1.5l1,6.7l-7.3-0.2C136.7,140.4,134.2,139.7,134.8,137.2
			 M124,148.7c0.6-2.3,3-1.7,3-1.7s-0.6-2.1,1.6-3c2.4-1.1,3.6,1.5,3.6,1.5l1,6.7l-7.3-0.2C126,151.9,123.4,151.2,124,148.7
			 M71.3,202.9c0.6-2.3,3-1.8,3-1.8s-0.6-2.1,1.6-3c2.4-1.1,3.6,1.5,3.6,1.5l1,6.7l-7.3-0.2C73.2,206.1,70.6,205.4,71.3,202.9
			 M59.3,215.7c0.6-2.3,3-1.8,3-1.8s-0.6-2.1,1.6-3c2.4-1.1,3.6,1.5,3.6,1.5l1,6.7l-7.3-0.2C61.2,218.9,58.7,218.2,59.3,215.7
			 M47.3,228.4c0.6-2.3,3-1.8,3-1.8s-0.6-2.1,1.6-3c2.4-1.1,3.6,1.5,3.6,1.5l1,6.7l-7.3-0.2C49.3,231.6,46.7,230.9,47.3,228.4
			 M35.4,241.2c0.6-2.3,3-1.7,3-1.7s-0.6-2.1,1.6-3c2.4-1.1,3.6,1.6,3.6,1.6l1,6.7l-7.3-0.2C37.3,244.4,34.7,243.7,35.4,241.2
			 M7.2,174c0.6-2.3,3-1.7,3-1.7s-0.6-2.1,1.6-3c2.4-1.1,3.6,1.5,3.6,1.5l1,6.7l-7.3-0.2C9.2,177.2,6.6,176.5,7.2,174 M134,89.4
			c0.6-2.3,3-1.7,3-1.7s-0.6-2.1,1.6-3c2.4-1.1,3.6,1.5,3.6,1.5l1,6.7l-7.3-0.2C136,92.6,133.4,91.9,134,89.4 M121.9,102
			c0.6-2.3,3-1.7,3-1.7s-0.6-2.1,1.6-3c2.4-1.1,3.6,1.5,3.6,1.5l1,6.7l-7.3-0.2C123.8,105.2,121.3,104.5,121.9,102 M109.8,114.5
			c0.6-2.3,3-1.8,3-1.8s-0.6-2.1,1.6-3c2.4-1.1,3.6,1.5,3.6,1.5l1,6.7l-7.3-0.2C111.7,117.7,109.2,117,109.8,114.5 M97.7,127.1
			c0.6-2.3,3-1.8,3-1.8s-0.6-2.1,1.6-3c2.4-1.1,3.6,1.5,3.6,1.5l1,6.7l-7.3-0.2C99.6,130.3,97,129.6,97.7,127.1 M87.6,89.3
			c0.6-2.3,3-1.8,3-1.8s-0.6-2.1,1.6-3c2.4-1.1,3.6,1.5,3.6,1.5l1,6.7l-7.3-0.2C89.5,92.5,87,91.8,87.6,89.3 M34.7,191.9
			c0.6-2.3,3-1.7,3-1.7s-0.6-2.1,1.6-3c2.4-1.1,3.6,1.5,3.6,1.5l1,6.7l-7.3-0.2C36.7,195.1,34.1,194.4,34.7,191.9 M24.4,203
			c0.6-2.3,3-1.8,3-1.8s-0.6-2.1,1.6-3c2.4-1.1,3.6,1.5,3.6,1.5l1,6.7l-7.3-0.2C26.3,206.2,23.8,205.5,24.4,203 M14.1,214.1
			c0.6-2.3,3-1.8,3-1.8s-0.6-2.1,1.6-3c2.4-1.1,3.6,1.6,3.6,1.6l1,6.7l-7.3-0.2C16,217.3,13.5,216.6,14.1,214.1 M57.5,64l4.3-5
			l5.1,4.2l-4.3,5L57.5,64z M82.5,62.4c0-1.9,2.4-3.4,5.3-3.4c2.9,0,5.3,1.5,5.3,3.4c0,1.9-2.4,3.4-5.3,3.4
			C84.9,65.8,82.5,64.3,82.5,62.4 M37.4,71.2c-1.7,0.4-4.5,0.2-5.2-2.2c-0.6-2.4,1.7-4,3.4-4.4c1.7-0.4,4.5-0.2,5.2,2.2
			C41.5,69.1,39.1,70.7,37.4,71.2 M118.1,64l-5.1,4.2l-4.3-5l5.1-4.2L118.1,64z M140,64.6c1.7,0.4,4,2,3.4,4.4
			c-0.6,2.4-3.5,2.6-5.2,2.2c-1.7-0.4-4-2-3.4-4.4C135.5,64.4,138.4,64.2,140,64.6 M60.3,48.7c0,0-2.1-1.1-2.7-1.4
			c-0.7-0.5-1.8-1.6-1.8-1.6c-1,1.6-3.1,4-3.1,4S57.7,48.6,60.3,48.7 M87.5,43.5c-1,1.1-3,3-5.1,3.7c0,0,3.5-0.1,5-0.1h0.2
			c1.5,0,5,0.1,5,0.1C90.5,46.5,88.5,44.6,87.5,43.5 M114.7,48.7c2.6-0.1,7.7,1,7.7,1s-2.2-2.4-3.1-4c0,0-1.1,1.1-1.8,1.6
			C116.9,47.6,114.7,48.7,114.7,48.7 M81.5,23.1c0,3.2,2.7,5.9,6,5.9c3.3,0,6-2.6,6-5.9c0-3.3-2.7-5.9-6-5.9
			C84.2,17.2,81.5,19.8,81.5,23.1 M78.6,39.5c-1.2,0.2-2.8,0.6-3.8-1.4c-0.9-1.9,2.4-4.9,3.5-5.9c1.4-1.3-0.4-2.6-1.5-1.2
			c-0.3,0.4-2.9,4-4.9,4c-3.2,0-3-3.6-3-3.6s-3.5-2.2-3.5-9.2c0-6.2,4.2-9.2,4.2-9.2s0-3.5,2.9-3.5c2.8,0.1,4.6,3.9,4.8,4.2
			c1.4,2.1,3.2,0.3,2-1.2c-3-3.5-3.6-6.3-0.4-7.8C80,2.2,83.5,0.3,87.4,0l0.1,0l0.1,0c3.9,0.3,7.4,2.2,8.6,4.8
			c3.2,1.5,2.6,4.3-0.3,7.8c-1.2,1.5,0.5,3.3,2,1.2c0.2-0.3,2-4.1,4.8-4.2c2.8-0.1,2.9,3.5,2.9,3.5s4.2,3,4.2,9.2
			c0,7-3.5,9.2-3.5,9.2s0.2,3.6-3,3.6c-2,0-4.6-3.6-4.9-4c-1.1-1.5-2.9-0.1-1.5,1.2c1.1,1,4.4,4,3.5,5.9c-1,2.1-2.6,1.6-3.8,1.4
			c0,0-1.1,1.8-2.7,1.8c8.2,6,21,2.6,22.8-1.8c0,0-2.2,0.4-2.2-1.8c0-1.4,1.4-2.1,3.3-2.4c-0.4-0.9-0.6-1.9-0.5-3
			c0.2-3.1,2.4-5.8,4.9-5.9c2.5-0.1,4.5,2.4,4.3,5.5c-0.1,1.6-0.7,3-1.6,4.1c1.9,0.6,3.2,1.6,3,2.6c-0.5,2.9-3.2,2.2-3.2,2.2
			c-0.3,6.6,9.9,7.9,12.6,6.1c-1-3.8,0.5-4.9,1.7-6c0.8-0.7,3.4-2.3,3.7-2.5c0.8-0.5,1.2-1.6,0.7-2c-0.5-0.4-1.5,0.3-2,0.8
			c-0.7,0.8-1.9,2.6-3.8,2.1c-2.3-0.6-1.3-3.2-1.7-4.6c-2.5-8.8-0.4-14.9,8.6-18.6c0,0,3.4-3.5,6.5-1.9c2.9,1.5,1.1,6.2,1.1,6.2
			l0.9,0.4c3.3-5.8,8-10.1,14.8-10.2c4.8-0.1,7.1,2.7,7.3,6.5c0.4,8.5-8.4,5.3-7.8,2.2c0,0-2.1,0.2-3.3,2.1c0-0.5,0.1-5.6-4.5-2.9
			c-1.3,0.8-3.6,4.6-3.8,5c-0.6,1.7,0.2,1.9-0.6,3.6c-0.7,1.3-1.7,1.6-2.1,2.5c-0.4,0.9,0.2,2.6-0.4,3.8c-0.7,1.4-1.7,1.5-2.3,2.7
			c-0.5,1-6.9,17-6.9,17s2.5,1.6,2.1,4c-0.6,3.2-2.7,2.5-3.8,4.6C106.7,53,70.7,53,33.4,61.7c-1.1-1.9-3.1-1.3-3.7-4.4
			c-0.5-2.4,2.1-4,2.1-4s-6.4-16-6.9-17c-0.6-1.3-1.6-1.4-2.3-2.7c-0.6-1.1,0-2.9-0.4-3.8c-0.4-0.9-1.4-1.2-2.1-2.5
			c-0.9-1.6-0.1-1.9-0.6-3.6c-0.2-0.5-2.5-4.3-3.8-5C11,16,11.1,21,11.1,21.6c-1.2-1.8-3.3-2.1-3.3-2.1c0.7,3.2-8.2,6.3-7.7-2.2
			c0.2-3.8,2.5-6.6,7.3-6.5c6.8,0.2,11.5,4.4,14.8,10.2l0.9-0.4c0,0-1.8-4.7,1.1-6.2c3.1-1.6,6.5,1.9,6.5,1.9
			c9,3.7,11.1,9.8,8.6,18.6c-0.4,1.4,0.6,4-1.7,4.6c-1.9,0.5-3.1-1.3-3.8-2.1c-0.5-0.5-1.5-1.2-2-0.8c-0.5,0.4-0.1,1.5,0.7,2
			c0.3,0.2,2.9,1.7,3.7,2.5c1.2,1,2.7,2.2,1.7,6c2.6,1.7,12.9,0.4,12.6-6.1c0,0-2.7,0.7-3.2-2.2c-0.2-1.1,1.1-2,3-2.6
			c-0.9-1.1-1.5-2.5-1.6-4.1c-0.2-3.1,1.7-5.6,4.3-5.5c2.5,0.1,4.8,2.8,4.9,5.9c0.1,1.1-0.1,2.1-0.5,3c1.9,0.3,3.3,1,3.3,2.4
			c0,2.2-2.2,1.8-2.2,1.8c1.7,4.4,14.6,7.8,22.8,1.8C79.6,41.4,78.6,39.5,78.6,39.5"/>
	</g>
</g>
</svg>
