<?xml version="1.0" encoding="utf-8"?>
<!-- Generator: Adobe Illustrator 26.2.0, SVG Export Plug-In . SVG Version: 6.00 Build 0)  -->
<svg version="1.1" id="Layer_1" xmlns="http://www.w3.org/2000/svg" xmlns:xlink="http://www.w3.org/1999/xlink" x="0px" y="0px"
	 viewBox="0 0 911.5 498.9" style="enable-background:new 0 0 911.5 498.9;" xml:space="preserve">
<style type="text/css">
	.st0{display:none;}
	.st1{display:inline;fill:#878787;}
	.st2{fill:#13130A;}
	.st3{fill:#183A68;}
</style>
<g class="st0">
	<path class="st1" d="M29.5,248.1l2.3,1.2c2.1,1,3.7,1.6,4.7,3.6c0.1,0.5,1.1,5.8,1.8,8c-1.8,0.5-4,0.2-6.1-1
		c-2.5-1.3-4-3.7-4.4-6.1c0-0.1,0-0.3,0-0.3l-0.1-0.7l-1.2-5.6l-0.4-2C27,246.3,28.1,247.3,29.5,248.1 M37.1,211.4
		c-1.9-0.4-3.6-1.7-4.9-3.6c-1.4-2.3-2-5.1-1.2-7.4c0-0.1,0.1-0.3,0.1-0.3l0.3-0.7c0.6-1.8,1-3.7,1.4-5.5l0.6-2
		c0.4,1.5,1,2.9,1.8,4.2l1.6,2.1c1.5,1.8,2.5,3.1,2.5,5.2C39,203.9,37.7,209.2,37.1,211.4 M34.8,236.2c-1.9,0-4-0.8-5.7-2.4
		c-1.9-1.9-3-4.5-2.9-6.9c0-0.1,0-0.3,0-0.3l0-0.8c0.2-1.9,0.2-3.8,0.1-5.7l0.1-2.1c0.8,1.3,1.7,2.6,2.9,3.7l2,1.7
		c1.8,1.4,3.1,2.4,3.6,4.5C35,228.5,34.5,233.9,34.8,236.2 M42.5,204.4c1.2-1.7,2.9-2.1,5.1-2.5l2.4-0.5c1.4-0.4,2.7-0.9,4-1.5
		l-0.8,1.5c-0.7,1.3-1.4,2.7-1.9,4.2l-0.2,0.6l-0.1,0.2c-0.7,1.9-2.2,3.6-4.6,4.7c-2,1-4.2,1.3-6,0.9C41,210,42.3,204.9,42.5,204.4
		 M41.4,183.1c-1-2.6-0.7-5.4,0.6-7.5c0-0.1,0.1-0.2,0.1-0.2l0.4-0.7l2.7-5l1-1.8c0.1,1.5,0.3,3.1,0.8,4.5l1,2.4
		c1,2.1,1.8,3.6,1.2,5.7c-0.3,0.4-3,5.2-3.9,7.2C43.6,186.9,42.2,185.3,41.4,183.1 M52.2,182.3c1.6-1.4,3.2-1.4,5.5-1.3l2.6,0.1
		c1.5,0,2.9-0.2,4.2-0.5l-1.1,1.3c-1.1,1.1-2.1,2.3-2.9,3.7l-0.3,0.5l-0.1,0.2c-1,1.7-3.1,3-5.6,3.6c-2.1,0.5-4.3,0.3-6-0.5
		C49.3,187.3,51.9,182.7,52.2,182.3 M56,161.3c-0.3-2.7,0.6-5.4,2.3-7.2l0.2-0.2l0.5-0.5c1.4-1.3,2.6-2.8,3.8-4.3l1.4-1.5
		c-0.3,1.5-0.4,3.1-0.2,4.6l0.4,2.6c0.5,2.3,0.8,3.9-0.2,5.8c-0.3,0.4-4.1,4.4-5.4,6.2C57.4,165.5,56.3,163.6,56,161.3 M66.7,162.9
		c1.8-1,3.5-0.6,5.7,0l2.4,0.6c1.5,0.3,2.8,0.4,4.2,0.5l-1.4,1c-1.2,0.9-2.5,1.8-3.7,2.9l-0.4,0.4l-0.2,0.2
		c-1.3,1.5-3.6,2.3-6.2,2.2c-2.2-0.1-4.2-0.7-5.7-1.9C62.8,167.1,66.4,163.3,66.7,162.9 M75.4,143.5c0.3-2.7,1.8-5.2,3.9-6.5
		l0.2-0.1l0.7-0.4l4.6-3.3l1.7-1.1c-0.6,1.4-1.1,2.9-1.3,4.4L85,139c-0.1,2.4-0.1,4-1.5,5.7c-0.5,0.2-4.9,3.3-6.7,4.7
		C75.7,147.8,75.1,145.8,75.4,143.5 M90.9,148.7l2.2,1.2c1.3,0.7,2.7,1.1,4,1.5l-1.6,0.7c-1.5,0.5-2.9,1.1-4.2,2l-0.5,0.3l-0.2,0.1
		c-1.7,1-4.1,1.3-6.6,0.7c-2.1-0.5-4-1.7-5.2-3.1c1.7-1.3,6-4.4,6.5-4.6C87.4,146.9,88.9,147.7,90.9,148.7 M94.7,138.1
		c0.1-2.4,4.2-6,6.8-7.1c1.6-0.7,3.4-1,5.4-1.3l2.1-0.4c0,0,1.7-0.5,2.5-0.7c-0.6,1.1-1.1,2.2-1.7,3.3c-1.4,2.9-2.7,5.6-5.1,7.6
		c-1.7,1.4-6.1,2-8.5,0.8C95.1,139.9,94.7,139.2,94.7,138.1L94.7,138.1z M38.3,228.2c0.6-2,2.2-2.7,4.3-3.6l2.3-1.1
		c1.3-0.7,2.5-1.5,3.5-2.3l-0.3,1.6c-0.4,1.5-0.8,3-1,4.5l0,0.6v0.2c-0.1,2-1.3,4-3.4,5.7c-1.7,1.4-3.6,2.2-5.6,2.3
		C38,233.9,38.4,228.7,38.3,228.2 M43.1,247.8l2-1.6c1.1-1,2.1-2,2.9-3.1l0,1.7c0,1.5-0.2,3.1,0.2,4.6l0.1,0.6l0,0.2
		c0.4,1.9-0.5,4.3-1.9,6.3c-1.3,1.7-3.1,3-4.9,3.5c-0.7-2.1-1.6-7.2-1.7-7.7C40.1,250.2,41.2,249.2,43.1,247.8 M47.2,284.1
		c-1.7,0.9-3.8,1.1-6.1,0.4c-2.6-0.8-4.9-2.6-5.8-4.9c0-0.1-0.1-0.3-0.1-0.3l-0.3-0.7c-0.7-1.8-1.8-3.4-2.5-5.1l-0.8-1.9
		c1.3,0.9,2.6,1.6,4.1,2.1l2.6,0.6c2.3,0.4,4,0.7,5.3,2.4C43.8,277.3,46.2,282.1,47.2,284.1 M49,270.2l1.5-2
		c0.9-1.2,1.6-2.5,2.1-3.7l0.4,1.6c0.2,1.5,0.7,3,1.3,4.5l0.3,0.6l0.1,0.2c0.7,1.9,0.6,4.2-0.4,6.6c-0.9,2-2.3,3.6-4,4.6
		c-1-1.9-3.4-6.6-3.5-7.1C46.6,273.3,47.6,272,49,270.2 M61.5,304.6c-1.4,1.2-3.6,2-5.9,1.8c-2.7-0.2-5.3-1.5-6.8-3.4l-0.2-0.2
		l-0.4-0.6c-1.1-1.6-2.4-3-3.6-4.4l-1.3-1.6c1.4,0.6,3,0.9,4.5,1h2.6c2.3-0.1,4-0.2,5.7,1.1C56.7,298.7,60,303,61.5,304.6 M60,290.7
		l1-2.3c0.6-1.4,0.8-2.7,1.2-4l0.8,1.5c0.7,1.4,1.4,2.8,2.3,4.1l0.4,0.5l0.1,0.2c1.2,1.6,1.7,3.9,1.2,6.5c-0.4,2.2-1.4,4-2.8,5.3
		c-1.5-1.6-4.7-5.8-5.1-6.1C58.4,294.3,59,292.7,60,290.7 M73.7,316.3c0.4,0.4,4.6,3.7,6.5,5c-1.1,1.5-3,2.7-5.3,3.1
		c-2.8,0.6-5.4-0.3-7.4-1.8l-0.2-0.2l-0.6-0.5l-4.6-3.4l-1.6-1.3c1.5,0.2,3.1,0.2,4.6-0.1l2.5-0.6C70,316,71.7,315.5,73.7,316.3
		 M75.5,308.1l0.5-2.5c0.2-1.5,0.3-2.9,0.2-4.2l1.1,1.3c0.9,1.2,1.9,2.5,3.1,3.5l0.5,0.4l0.2,0.1c1.6,1.2,2.4,3.6,2.6,6
		c0.1,2.2-0.4,4.3-1.5,5.8c-1.9-1.2-6-4.5-6.3-4.8C74.7,311.9,74.9,310.4,75.5,308.1 M94.7,329.9c0.4,0.4,5.4,2.4,7.5,3.3
		c-0.7,1.7-2.2,3.3-4.4,4.2c-2.5,1-5.4,1.2-7.6,0c-0.1-0.1-0.2-0.1-0.2-0.1l-0.7-0.4c-1.7-0.9-3.5-1.5-5.2-2.3l-1.9-0.9
		c1.5-0.2,3-0.5,4.5-1.1l2.4-1.2C91.2,330.3,92.6,329.5,94.7,329.9 M93.7,314.8l1.3,1c1.2,1,2.5,1.8,3.9,2.6l0.6,0.3l0.2,0.1
		c1.8,1,3.3,2.7,4,5.2c0.6,2.1,0.6,4.3-0.1,6c-2-0.9-6.9-2.9-7.3-3.2c-1.5-1.5-1.6-3.1-1.7-5.4l-0.1-2.5
		C94.3,317.6,94,316.1,93.7,314.8 M180.7,324c0.7-2.5,2.2-4.2,4-5.2l0.2-0.1l0.6-0.3c1.4-0.7,2.7-1.6,3.9-2.6l1.3-1
		c-0.4,1.3-0.6,2.7-0.8,4.2l-0.1,2.5c-0.1,2.2-0.2,3.9-1.7,5.4c-0.4,0.4-5.3,2.3-7.3,3.2C180.2,328.3,180.1,326.1,180.7,324
		 M195.3,331.5l2.4,1.2c1.5,0.6,2.9,0.9,4.5,1.1l-1.9,0.9c-1.7,0.8-3.6,1.4-5.3,2.3l-0.7,0.4c0,0-0.2,0.1-0.2,0.1
		c-2.1,1.2-5.1,1-7.6,0c-2.1-0.9-3.7-2.5-4.4-4.2c2.1-0.9,7.1-3,7.5-3.3C191.7,329.5,193.2,330.3,195.3,331.5 M200.7,312.7
		c0.2-2.5,1-4.8,2.6-6l0.2-0.1l0.5-0.4c1.2-1,2.2-2.3,3.1-3.5l1.1-1.3c-0.1,1.3,0,2.8,0.2,4.2l0.5,2.5c0.5,2.3,0.7,3.8-0.4,5.6
		c-0.4,0.4-4.5,3.6-6.3,4.8C201.1,316.9,200.6,314.8,200.7,312.7 M210.7,316.3c2-0.9,3.7-0.3,5.9,0.3l2.5,0.6
		c1.5,0.2,3.1,0.2,4.6,0.1l-1.6,1.3l-4.5,3.4l-0.6,0.5l-0.2,0.2c-1.9,1.5-4.6,2.3-7.4,1.8c-2.3-0.4-4.2-1.6-5.3-3.1
		C206.1,320.1,210.3,316.7,210.7,316.3 M217.5,297.1c-0.5-2.6-0.1-4.9,1.2-6.5l0.1-0.2l0.4-0.5c0.9-1.3,1.6-2.7,2.3-4.1l0.8-1.5
		c0.3,1.4,0.6,2.7,1.2,4l1,2.3c1,2,1.6,3.6,0.9,5.6c-0.3,0.4-3.5,4.5-5.1,6.1C218.8,301.1,217.9,299.3,217.5,297.1 M228.1,298.3
		c1.7-1.3,3.4-1.2,5.7-1.1h2.6c1.6-0.1,3.2-0.4,4.5-1l-1.3,1.6c-1.2,1.4-2.5,2.8-3.6,4.4l-0.4,0.6l-0.2,0.2
		c-1.5,1.9-4.1,3.2-6.8,3.4c-2.3,0.2-4.4-0.6-5.9-1.8C224.4,303,227.7,298.7,228.1,298.3 M230.1,278c-1-2.3-1.1-4.7-0.4-6.6l0.1-0.2
		l0.3-0.6c0.6-1.5,1.1-2.9,1.3-4.5l0.4-1.6c0.6,1.2,1.3,2.5,2.2,3.7l1.5,2c1.4,1.8,2.4,3.1,2.2,5.2c-0.1,0.5-2.4,5.2-3.5,7.1
		C232.4,281.6,231,280,230.1,278 M240.7,276.8c1.4-1.7,3-2,5.3-2.4l2.6-0.6c1.5-0.5,2.8-1.2,4.1-2.1l-0.8,1.9
		c-0.8,1.7-1.8,3.3-2.5,5.1l-0.3,0.7c0,0-0.1,0.2-0.1,0.3c-0.9,2.3-3.1,4.1-5.8,4.9c-2.2,0.7-4.4,0.5-6.1-0.4
		C238.2,282.1,240.6,277.3,240.7,276.8 M242.9,260c-1.8-0.5-3.6-1.8-4.9-3.5c-1.5-2-2.4-4.3-2-6.3l0-0.2l0.1-0.6
		c0.4-1.5,0.2-3.1,0.2-4.6l0-1.7c0.8,1.1,1.8,2.1,2.9,3.1l2,1.6c1.9,1.4,3,2.4,3.3,4.5C244.5,252.8,243.6,257.9,242.9,260
		 M248,252.9c0.9-1.9,2.6-2.6,4.7-3.6l2.3-1.2c1.3-0.8,2.5-1.8,3.6-2.9l-0.4,2l-1.2,5.6l-0.1,0.7c0,0,0,0.2-0.1,0.3
		c-0.5,2.4-2,4.8-4.4,6.1c-2,1.2-4.2,1.5-6.1,1C246.9,258.7,247.9,253.4,248,252.9 M245.2,203.4c-0.1-2.1,1-3.4,2.5-5.2l1.6-2.1
		c0.9-1.3,1.4-2.7,1.8-4.2l0.6,2c0.4,1.8,0.8,3.7,1.3,5.5l0.3,0.7c0,0,0.1,0.2,0.1,0.3c0.8,2.3,0.2,5.2-1.2,7.4
		c-1.3,1.9-3,3.2-4.9,3.6C246.7,209.2,245.4,203.9,245.2,203.4 M246.2,236.1c-1.9-0.1-3.9-0.9-5.6-2.3c-2-1.6-3.3-3.7-3.4-5.7l0-0.2
		l0-0.6c-0.2-1.6-0.6-3.1-1-4.5l-0.4-1.6c1,0.8,2.2,1.7,3.5,2.3l2.3,1.1c2.1,0.9,3.7,1.7,4.3,3.6C246,228.7,246.4,233.9,246.2,236.1
		 M237.9,211.2c-2.4-1.1-3.9-2.9-4.6-4.7l-0.1-0.2l-0.2-0.6c-0.5-1.5-1.2-2.9-1.9-4.2l-0.8-1.5c1.3,0.6,2.6,1.1,4,1.5l2.4,0.5
		c2.2,0.4,3.8,0.8,5.1,2.5c0.2,0.5,1.5,5.5,2,7.7C242,212.5,239.9,212.1,237.9,211.2 M235.2,180.6c-0.5-2.1,0.3-3.6,1.2-5.7l1-2.4
		c0.5-1.5,0.7-3,0.8-4.5l1,1.8l2.7,5l0.4,0.7c0,0,0.1,0.2,0.1,0.2c1.2,2.1,1.6,4.9,0.6,7.5c-0.8,2.2-2.2,3.8-3.9,4.7
		C238.1,185.7,235.5,181,235.2,180.6 M229.9,189.8c-2.4-0.6-4.5-1.8-5.6-3.6l-0.1-0.2l-0.3-0.5c-0.7-1.4-1.8-2.5-2.9-3.7l-1.1-1.3
		c1.3,0.3,2.7,0.5,4.2,0.5l2.6-0.1c2.3-0.1,3.9-0.1,5.4,1.3c0.3,0.4,2.9,5,3.7,7C234.2,190.1,232,190.2,229.9,189.8 M220.1,160.6
		c-1-1.9-0.7-3.5-0.2-5.8l0.4-2.6c0.2-1.5,0.1-3.2-0.2-4.6l1.4,1.5c1.2,1.5,2.4,3,3.8,4.3l0.6,0.5l0.2,0.2c1.7,1.8,2.5,4.5,2.3,7.2
		c-0.2,2.3-1.3,4.2-2.8,5.4C224.2,164.9,220.5,161,220.1,160.6 M217.2,170.7c-2.6,0.1-4.9-0.7-6.2-2.2l-0.2-0.2l-0.4-0.4
		c-1.1-1.1-2.4-2-3.7-2.9l-1.3-1c1.4-0.1,2.8-0.1,4.2-0.5l2.4-0.6c2.2-0.6,3.8-1,5.7,0c0.3,0.4,3.9,4.2,5.2,6
		C221.4,170.1,219.4,170.7,217.2,170.7 M200.8,144.6c-1.4-1.6-1.4-3.3-1.5-5.7l-0.2-2.6c-0.2-1.5-0.7-3-1.3-4.4l1.7,1.1l4.7,3.3
		l0.6,0.4l0.2,0.1c2.1,1.3,3.6,3.7,3.9,6.5c0.3,2.3-0.3,4.4-1.4,5.9C205.8,148,201.3,144.9,200.8,144.6 M200.3,155.2
		c-2.5,0.6-4.9,0.3-6.6-0.7l-0.2-0.1L193,154c-1.3-0.9-2.7-1.5-4.2-2l-1.6-0.7c1.3-0.3,2.7-0.8,4-1.5l2.2-1.2c2-1.1,3.5-1.8,5.5-1.2
		c0.5,0.2,4.8,3.2,6.5,4.6C204.3,153.6,202.4,154.7,200.3,155.2 M189.6,138.1c0,1-0.5,1.7-1.4,2.2c-2.4,1.2-6.9,0.5-8.5-0.8
		c-2.5-2-3.8-4.7-5.1-7.6c-0.5-1.1-1.1-2.2-1.7-3.3c0.8,0.2,2.5,0.7,2.5,0.7l2.1,0.4c1.9,0.3,3.8,0.6,5.4,1.3
		C185.4,132,189.6,135.7,189.6,138.1L189.6,138.1z M249.5,228c0.6-2.1,1.8-3.1,3.7-4.5l2-1.7c1.1-1.1,2-2.3,2.8-3.7l0.1,2.1
		c0,1.9-0.1,3.8,0.1,5.7l0,0.8c0,0,0,0.2,0,0.3c0.1,2.4-1,5.1-2.9,6.9c-1.7,1.6-3.8,2.4-5.7,2.4C249.8,233.9,249.4,228.5,249.5,228
		 M39.3,262.5c1.1,3.9,2.4,7.8,3.9,11.5c-2.1-1.3-4.6-1.3-7-2.1c-2.9-1-6.6-3.2-8.1-6.5c0,5.2,3.7,9.9,5.6,14.6
		c2.3,6.1,10.3,8.6,15,5.5c2,3.5,4.1,7,6.5,10.2c-2.3-0.7-4.7-0.2-7.3-0.4c-3.2-0.2-7-1.7-9.4-4.4c1.3,5,6,8.7,8.8,12.9
		c3.8,5.3,12,5.9,15.9,1.8c2.7,3,5.7,5.8,8.7,8.5c-2.4-0.2-4.6,0.8-7.2,1.2c-3.2,0.5-7.3,0-10.2-2.2c2.4,4.6,7.8,7.1,11.6,10.5
		c4.8,4.4,13.1,3,15.9-1.8c3.3,2.3,6.8,4.3,10.5,6.2c-2.4,0.4-4.3,2-6.7,2.9c-2.9,1.1-7.1,1.7-10.4,0.2c3.4,3.9,9.2,5.2,13.7,7.6
		c5.8,3.1,13.5-0.1,15-5.5c3.9,1.5,7.8,2.7,11.9,3.7l6.2,1.5c3.8,0.9,8.8,2.3,14.3,4c-14.3,3.6-29.4,7.8-36,11.2l5.9,4
		c6.9-3.6,22-9.1,35.6-13.4c13.7,4.4,28.7,9.9,35.6,13.4l5.9-4c-6.6-3.4-21.6-7.6-36-11.2c5.5-1.7,10.5-3.1,14.3-4l6.2-1.5
		c4.1-1,8.1-2.3,11.9-3.7c1.5,5.4,9.3,8.6,15,5.5c4.5-2.4,10.4-3.6,13.7-7.6c-3.3,1.5-7.5,0.9-10.4-0.2c-2.4-1-4.3-2.5-6.7-2.9
		c3.6-1.9,7.1-4,10.5-6.2c2.8,4.8,11.1,6.3,15.9,1.8c3.8-3.4,9.2-5.9,11.6-10.5c-2.9,2.2-7,2.7-10.2,2.2c-2.6-0.4-4.7-1.4-7.2-1.2
		c3.1-2.6,6-5.5,8.7-8.5c3.9,4.1,12.2,3.5,15.9-1.8c2.9-4.2,7.5-7.9,8.8-12.9c-2.4,2.7-6.2,4.2-9.4,4.4c-2.6,0.2-5-0.3-7.3,0.4
		c2.4-3.3,4.5-6.7,6.5-10.2c4.7,3.1,12.7,0.7,15-5.5c1.9-4.7,5.6-9.4,5.6-14.6c-1.5,3.3-5.2,5.5-8.1,6.5c-2.4,0.8-4.9,0.8-7,2.1
		c1.5-3.7,2.8-7.6,3.9-11.5c5.3,1.9,12.6-2.3,13.4-8.8c0.7-5,3.2-10.4,2-15.5c-0.8,3.5-3.6,6.6-6.4,8.2c-2.3,1.4-4.6,2-6.4,3.8
		c0.6-4,1-8.1,1.2-12.2c5.6,0.7,11.6-5.1,11-11.6c-0.6-5.1,0.7-10.9-1.7-15.5c-0.1,3.6-1.9,7.2-4.3,9.4c-1.9,1.9-4,3-5.3,5.1
		c-0.3-4.1-0.9-8.1-1.7-12.1c5.6-0.6,10.1-7.6,8-13.8c-1.7-4.8-1.9-10.7-5.2-14.7c0.9,3.5-0.3,7.5-1.9,10.2c-1.4,2.2-3.3,3.8-4,6.1
		c-1.3-3.8-2.7-7.6-4.4-11.3c5.2-1.9,8.1-9.8,4.4-15.3c-2.7-4.3-4.3-10-8.5-13.1c1.7,3.2,1.5,7.3,0.5,10.3c-0.8,2.4-2.2,4.4-2.4,6.8
		c-2.1-3.4-4.5-6.7-7-9.9c4.7-3.2,5.5-11.4,0.8-15.9c-3.7-3.5-6.6-8.7-11.4-10.8c2.3,2.8,3.2,6.8,2.9,10c-0.3,2.6-1.2,4.8-0.8,7.2
		c-2.9-2.8-5.9-5.5-9.1-8c3.8-4.1,2.8-12.3-2.9-15.6c-4-2.6-9.1-7.2-12.8-7.7c2.4,2.1,3.7,5.6,4.4,8.9c0.4,2.6,0,5,1,7.3
		c-2.3-1.4-4.7-2.7-7.2-4c0.2-0.5,0.3-1.1,0.3-1.7c-0.1-3.3-5-7.4-7.8-8.6c-2.5-1-5.3-1.3-7.9-1.8c-2.3-0.4-4.6-1.6-6.8-1.8
		c4.1,4.5,4.7,11,9.7,15c2.4,1.9,8.4,2.7,11.3,0.5c2.5,1.3,5,2.7,7.4,4.2c-2.5,0.1-4.4,1.7-6.7,2.9c-2.5,1.5-6.4,2.2-9.6,1.3
		c4.1,3.8,8,3.4,11.6,6.1c4.1,2.8,11.5,1.4,14.8-3.3c3.2,2.5,6.3,5.3,9.2,8.1c-2.5-0.5-4.8,0.6-7.3,1.2c-3,0.7-6.7,0.9-9.2-0.3
		c2.2,3.5,6.7,4.9,9.5,8c3.3,3.7,10.9,4,15.1,0.2c2.6,3.2,4.9,6.6,7.1,10.1c-2.3-1.1-4.8-0.5-7.4-0.5c-3,0-6.6-0.7-8.9-2.4
		c1.4,3.8,5.4,6.3,7.4,9.9c2.4,4.3,9.7,6.4,14.7,3.7c1.7,3.7,3.2,7.5,4.5,11.4c-2-1.5-4.5-1.6-7-2.2c-3.1-0.7-6.3-2.2-8.1-4.4
		c0.4,4.1,3.8,7.4,4.8,11.4c1.2,4.7,7.9,8.4,13.4,7c0.8,3.9,1.3,8,1.7,12c-1.6-1.9-4.1-2.5-6.3-3.7c-2.6-1.4-5.7-3.6-6.8-6.2
		c-0.5,4,1.9,8,2.1,12.2c0.1,4.9,5.7,10.1,11.3,9.9c-0.1,4.1-0.5,8.1-1.1,12c-1.1-2.2-3.4-3.3-5.3-5c-2.3-2-4.5-4.8-5.2-7.6
		c-1.4,3.8,0,8.3-0.8,12.3c-0.9,4.8,3.2,11.1,8.8,12.2c-1.1,3.9-2.4,7.8-3.9,11.5c-0.5-2.4-2.4-4-3.9-6.1c-1.9-2.5-3.2-5.7-3.3-8.6
		c-2.3,3.3-1.9,8.1-3.7,11.8c-2.1,4.4,0.6,11.5,5.7,13.9c-2,3.6-4.2,7.1-6.6,10.4c0.1-2.5-1.4-4.6-2.4-7c-1.1-2.8-2-6.4-1.2-9.1
		c-3.1,2.7-3.8,7.4-6.4,10.6c-3.2,3.8-2.2,11.4,2.3,14.9c-2.8,3-5.7,5.9-8.8,8.5c0.6-2.4-0.4-4.8-0.8-7.3c-0.4-3-0.4-6.6,1-9.1
		c-3.6,2-5.4,6.3-8.7,8.9c-3.8,3.1-4.8,10.5-1.2,15c-3.4,2.3-6.9,4.4-10.6,6.2c1.2-2.2,0.8-4.6,1-7.2c0.2-3.1,1.2-6.5,3-8.7
		c-4,1.1-6.7,4.9-10.5,6.6c-4.5,2-7.1,9.1-4.7,14.3c-3.8,1.4-7.7,2.7-11.7,3.7l-6.1,1.5c-4.9,1.1-11.9,2.8-19.4,4.6
		c-7.5-1.8-14.4-3.4-19.4-4.6l-6.1-1.5c-4-1-7.9-2.2-11.8-3.7c2.3-5.1-0.3-12.3-4.7-14.3c-3.8-1.7-6.5-5.5-10.5-6.6
		c1.9,2.2,2.9,5.5,3,8.7c0.2,2.6-0.2,5,1,7.2c-3.7-1.9-7.2-4-10.6-6.2c3.5-4.5,2.6-11.9-1.2-15c-3.3-2.5-5.1-6.9-8.7-8.9
		c1.3,2.5,1.4,6.2,0.9,9.1c-0.4,2.5-1.4,4.9-0.8,7.3c-3.1-2.7-6-5.5-8.8-8.5c4.4-3.5,5.4-11.1,2.3-14.9c-2.6-3.2-3.3-7.9-6.4-10.6
		c0.8,2.7,0,6.3-1.2,9.1c-1,2.4-2.4,4.4-2.4,7c-2.4-3.3-4.6-6.8-6.6-10.4c5.1-2.4,7.8-9.5,5.7-13.9c-1.8-3.7-1.4-8.4-3.7-11.8
		c-0.1,2.9-1.4,6.1-3.3,8.6c-1.6,2.1-3.4,3.7-4,6.1c-1.5-3.7-2.8-7.6-3.9-11.5c5.6-1.2,9.7-7.4,8.8-12.2c-0.9-4,0.6-8.5-0.8-12.3
		c-0.7,2.8-2.9,5.6-5.2,7.6c-1.9,1.6-4.2,2.8-5.3,5c-0.6-3.9-1-8-1.1-12c5.7,0.2,11.3-5,11.3-9.9c0.1-4.1,2.6-8.1,2-12.2
		c-1.2,2.6-4.2,4.8-6.8,6.2c-2.2,1.2-4.7,1.8-6.3,3.7c0.3-4.1,0.9-8.1,1.7-12c5.4,1.4,12.1-2.3,13.4-7c1-4,4.4-7.3,4.8-11.4
		c-1.8,2.2-5.1,3.7-8.1,4.4c-2.5,0.6-5,0.7-7,2.2c1.3-3.9,2.8-7.7,4.5-11.4c5,2.7,12.3,0.6,14.7-3.7l7.4-9.9
		c-2.3,1.7-5.9,2.4-8.9,2.4c-2.6,0-5.1-0.6-7.4,0.5c2.2-3.5,4.5-6.9,7.1-10.1c4.2,3.8,11.9,3.5,15.1-0.2c2.8-3.1,7.3-4.5,9.5-8
		c-2.5,1.3-6.2,1-9.2,0.3c-2.5-0.6-4.8-1.7-7.3-1.2c2.9-2.9,6-5.6,9.2-8.1c3.3,4.7,10.7,6,14.8,3.3c3.6-2.6,7.5-2.3,11.6-6.1
		c-3.2,0.9-7.1,0.2-9.6-1.3c-2.3-1.2-4.3-2.7-6.7-2.9c2.4-1.5,4.9-2.9,7.4-4.1c2.9,2.2,8.9,1.4,11.2-0.5c5-4,5.6-10.5,9.7-15
		c-2.2,0.2-4.5,1.3-6.8,1.8c-2.6,0.5-5.4,0.7-7.9,1.8c-2.9,1.2-7.7,5.3-7.8,8.6c0,0.7,0.1,1.3,0.3,1.8c-2.4,1.2-4.8,2.6-7.1,4
		c0.9-2.3,0.6-4.7,1-7.3c0.7-3.2,2-6.8,4.4-8.9c-3.7,0.5-8.8,5.1-12.8,7.7c-5.7,3.3-6.8,11.6-2.9,15.6c-3.2,2.5-6.2,5.2-9.1,8
		c0.3-2.3-0.6-4.6-0.8-7.2c-0.3-3.2,0.6-7.1,2.9-10c-4.8,2.1-7.7,7.3-11.3,10.8c-4.7,4.5-3.9,12.7,0.8,15.9c-2.5,3.2-4.8,6.5-7,9.9
		c-0.2-2.4-1.6-4.3-2.4-6.8c-1-3-1.2-7.2,0.5-10.3c-4.2,3.1-5.8,8.8-8.5,13.1c-3.6,5.4-0.8,13.4,4.5,15.3c-1.7,3.7-3.2,7.4-4.4,11.3
		c-0.8-2.3-2.6-3.9-4-6.1c-1.6-2.6-2.8-6.6-1.9-10.2c-3.3,4-3.6,9.9-5.2,14.7c-2.1,6.2,2.3,13.2,8,13.8c-0.8,4-1.3,8-1.7,12.1
		c-1.3-2.1-3.4-3.2-5.3-5.1c-2.4-2.2-4.3-5.8-4.3-9.4c-2.4,4.7-1.1,10.5-1.7,15.5c-0.6,6.5,5.4,12.3,11,11.6
		c0.2,4.1,0.6,8.2,1.2,12.2c-1.7-1.8-4-2.4-6.4-3.8c-2.8-1.6-5.6-4.7-6.4-8.2c-1.3,5.1,1.3,10.4,2,15.5
		C26.7,260.2,34,264.4,39.3,262.5"/>
	<path class="st1" d="M143.4,243.1c8.5,10.7,11.6,17.3,11.4,22c-0.2,5-2.9,9-5.6,14.4c-2.8,5.6-5.5,13.7-4.5,20.4
		c1-2.2,1.6-4.2,2.2-6.1c0.8-3,1.6-5.8,3.8-8.7c2.6-3.3,6.3-4.8,10.5-4.7c5.7,0,9.8,3.4,9.6,9.4c-0.3,7.7-7.1,8.9-10.3,9.6
		c-0.9,0.2-1.5,1.2-1.5,2.9c-1-0.2-1.3-0.8-1.4-1.5c-0.1-1.1,0.8-2.3,1.6-3.2c0.6-0.8,1-1.6,1.1-2.4c0.2-2.1-1.4-3.9-4-3.8
		c-3.7,0.2-7.3,3.3-10.1,9.1c-0.3,0.5-0.4,1.5-0.5,2.5h0.4c1.1,0,1.9,0.8,1.9,1.8v0c0,1-0.9,1.8-1.9,1.8h-0.7v0.5
		c0,0.4-0.1,0.8-0.3,1.1c1.8,0.4,3.9,0.2,5.9,1.3c1.5,0.7,1.9,1.9,2.5,2.8c0.4,0.7,1.2,1.3,2.4,1.4c1.5,0.1,3.2-0.7,3.9-1.2
		c-0.3,3-2.8,5.2-6,5.3c-4.8,0.2-4.3-3.6-7-6.5c-0.6-0.6-1.8-1.2-2.6-1.9c-0.1-0.1-0.7-0.7-0.7-0.7c0,0-0.5,0.6-0.6,0.7
		c-0.8,0.7-2.1,1.3-2.7,1.9c-2.7,2.9-2.2,6.7-7,6.5c-3.2-0.1-5.7-2.3-6-5.3c0.7,0.5,2.4,1.3,3.9,1.2c1.2-0.1,2-0.7,2.5-1.4
		c0.6-0.9,1-2,2.5-2.8c2-1,4.1-0.8,5.9-1.3c-0.2-0.3-0.3-0.7-0.3-1.1v-0.5h-0.7c-1.1,0-1.9-0.8-1.9-1.8c0-1,0.9-1.8,1.9-1.8h0.4
		c0-1-0.2-1.9-0.5-2.5c-2.8-5.8-6.4-8.9-10.1-9.1c-2.6-0.1-4.2,1.7-4,3.8c0.1,0.8,0.4,1.7,1.1,2.4c0.8,0.9,1.7,2.1,1.6,3.2
		c-0.1,0.7-0.4,1.3-1.4,1.5c0.1-1.7-0.6-2.7-1.5-2.9c-3.2-0.7-10-1.9-10.3-9.6c-0.2-5.9,3.9-9.4,9.6-9.4c4.1,0,7.9,1.5,10.5,4.7
		c2.3,2.9,3,5.7,3.9,8.7c0.5,1.9,1.1,3.9,2.1,6.1c0.9-6.7-1.7-14.8-4.5-20.4c-2.7-5.4-5.4-9.4-5.6-14.4
		C131.8,260.4,134.9,253.8,143.4,243.1 M129.8,265.2c0.2,4.6,2.2,8.3,4.4,12.6l1.4,2.7c0.3,0.5,0.5,1.1,0.8,1.7
		c-2.8-2.6-6.4-4.1-10.7-4c-3.6,0-6.8,1.2-8.9,3.4c-1.9,2-2.9,4.7-2.9,7.7c0,0.2,0,0.3,0,0.5c0.3,9.1,8.2,10.8,11.6,11.6l0,0
		c0,0.1,0.1,0.2,0.1,0.6c0,0-0.1,2.9-0.1,2.9l2.7-0.5c1.8-0.3,3-1.6,3.2-3.5c0.2-2.1-1.3-3.9-2.1-4.8c-0.3-0.4-0.5-0.8-0.5-1.2
		c0-0.4,0.1-0.7,0.3-1c0.3-0.3,0.8-0.4,1.4-0.4c2.9,0.1,5.8,3,8.1,7.8c-1.2,0.7-2,1.9-2,3.4c0,0.7,0.2,1.3,0.5,1.9
		c-0.7,0.2-1.5,0.4-2.2,0.8c-1.8,0.9-2.6,2.2-3.1,3.1l-0.3,0.5c-0.2,0.3-0.5,0.4-0.7,0.4c-0.8,0-2-0.5-2.5-0.8l-4-2.6l0.5,4.7
		c0.4,4.1,3.9,7.1,8.2,7.3c4.6,0.2,6.1-2.7,7.2-4.7c0.5-0.9,0.9-1.8,1.6-2.5l0.9-0.6c0,0,0.4-0.3,0.7-0.5c0.4,0.3,0.7,0.5,0.7,0.5
		l0.9,0.6c0.7,0.7,1.1,1.6,1.6,2.5c1.1,2.1,2.5,4.9,7.2,4.7c4.3-0.2,7.8-3.3,8.2-7.3l0.5-4.7l-4,2.6c-0.6,0.4-1.8,0.9-2.5,0.8
		c-0.2,0-0.5-0.1-0.7-0.4c0,0-0.3-0.5-0.3-0.5c-0.5-0.9-1.3-2.2-3.1-3.1c-0.8-0.4-1.5-0.6-2.2-0.8c0.3-0.6,0.6-1.2,0.6-1.9
		c0-1.5-0.8-2.7-2-3.4c2.3-4.8,5.3-7.6,8.1-7.8c0.6,0,1.1,0.1,1.4,0.4c0.2,0.2,0.3,0.6,0.3,1c0,0.4-0.2,0.8-0.5,1.2
		c-0.8,0.9-2.3,2.7-2.1,4.8c0.2,1.9,1.4,3.2,3.2,3.5l2.7,0.5c0,0-0.1-2.9-0.1-2.9c0-0.4,0.1-0.5,0.1-0.6l0,0
		c3.4-0.7,11.3-2.5,11.6-11.6c0-0.2,0-0.3,0-0.5c0-3.1-1-5.8-2.9-7.7c-2.1-2.2-5.3-3.4-8.9-3.4c-4.3,0-7.9,1.4-10.7,4
		c0.3-0.6,0.5-1.2,0.8-1.7l1.4-2.7c2.3-4.3,4.2-8,4.5-12.6c0-0.2,0-0.4,0-0.6c0-5.5-3.7-12.6-11.8-22.9l-1.8-2.2l-1.8,2.2
		c-8.2,10.3-11.9,17.4-11.9,22.9C129.8,264.8,129.8,265,129.8,265.2"/>
	<path class="st1" d="M165.6,201.2c4.1,0,7.9,1.5,10.5,4.7c2.3,2.9,3,5.7,3.9,8.7c0.5,1.9,1.1,3.9,2.2,6.1
		c0.9-6.7-1.7-14.8-4.5-20.4c-2.7-5.4-5.4-9.4-5.6-14.4c-0.2-4.7,2.8-11.3,11.4-22c8.5,10.7,11.6,17.3,11.4,22
		c-0.2,5-2.9,9-5.6,14.4c-2.8,5.6-5.5,13.7-4.5,20.4c1.1-2.2,1.6-4.2,2.1-6.1c0.8-3,1.6-5.8,3.9-8.7c2.6-3.3,6.4-4.8,10.5-4.7
		c5.7,0,9.8,3.4,9.6,9.4c-0.3,7.7-7.1,8.9-10.3,9.6c-0.9,0.2-1.5,1.2-1.5,2.9c-1-0.2-1.3-0.8-1.4-1.5c-0.1-1.1,0.8-2.3,1.6-3.2
		c0.7-0.8,1-1.6,1.1-2.4c0.2-2.1-1.4-3.9-4-3.8c-3.7,0.2-7.3,3.3-10.1,9.1c-0.3,0.5-0.5,1.5-0.5,2.5h0.4c1.1,0,1.9,0.8,1.9,1.8
		s-0.9,1.8-1.9,1.8h-0.7v0.5c0,0.4-0.1,0.8-0.3,1.1c1.8,0.5,3.9,0.2,5.9,1.3c1.5,0.8,1.9,1.9,2.5,2.8c0.4,0.7,1.2,1.3,2.4,1.4
		c1.5,0.1,3.2-0.7,3.9-1.2c-0.3,3-2.8,5.2-6,5.3c-4.8,0.2-4.3-3.6-7-6.5c-0.6-0.6-1.8-1.2-2.6-1.9c-0.1-0.1-0.7-0.7-0.7-0.7
		c0,0-0.5,0.6-0.6,0.7c-0.8,0.7-2.1,1.3-2.6,1.9c-2.7,2.9-2.2,6.7-7,6.5c-3.2-0.1-5.7-2.3-6-5.3c0.7,0.5,2.4,1.3,3.9,1.2
		c1.2-0.1,2-0.7,2.4-1.4c0.6-0.9,1-2,2.5-2.8c2-1,4.1-0.8,5.9-1.3c-0.2-0.3-0.3-0.7-0.3-1.1v-0.5h-0.7c-1.1,0-1.9-0.8-1.9-1.8
		c0-1,0.9-1.8,1.9-1.8h0.4c0-1-0.2-1.9-0.5-2.5c-2.8-5.8-6.4-8.9-10.1-9.1c-2.6-0.1-4.2,1.7-4,3.8c0.1,0.8,0.4,1.7,1.1,2.4
		c0.8,0.9,1.7,2.1,1.6,3.2c-0.1,0.7-0.3,1.3-1.4,1.5c0.1-1.7-0.6-2.7-1.5-2.9c-3.2-0.7-10-1.9-10.3-9.6
		C155.7,204.7,159.9,201.2,165.6,201.2 M165.3,222.3C165.3,222.3,165.3,222.3,165.3,222.3c0.1,0.1,0.1,0.3,0.1,0.6
		c0,0-0.1,2.9-0.1,2.9l2.8-0.5c1.8-0.3,3-1.6,3.2-3.5c0.2-2.1-1.2-3.8-2.1-4.8c-0.3-0.4-0.5-0.8-0.5-1.2c0-0.4,0.1-0.7,0.3-0.9
		c0.3-0.3,0.8-0.5,1.4-0.4c2.9,0.1,5.8,3,8.1,7.8c-1.2,0.7-2,1.9-2,3.4c0,0.7,0.2,1.3,0.6,1.9c-0.7,0.2-1.5,0.4-2.2,0.8
		c-1.8,0.9-2.6,2.2-3.1,3.1l-0.3,0.5c-0.2,0.3-0.5,0.4-0.7,0.4c-0.8,0-2-0.4-2.5-0.8l-4-2.5l0.5,4.7c0.4,4.1,3.9,7.1,8.2,7.3
		c4.6,0.2,6.1-2.6,7.2-4.7c0.5-0.9,0.9-1.8,1.6-2.5l0.9-0.6c0,0,0.4-0.3,0.7-0.5c0.4,0.3,0.7,0.5,0.7,0.5l0.9,0.6
		c0.7,0.7,1.1,1.6,1.6,2.5c1.1,2.1,2.5,4.9,7.2,4.7c4.3-0.2,7.7-3.3,8.2-7.3l0.5-4.7l-4,2.5c-0.6,0.4-1.8,0.9-2.6,0.8
		c-0.2,0-0.5-0.1-0.7-0.4l-0.3-0.5c-0.5-0.9-1.3-2.2-3.1-3.1c-0.8-0.4-1.5-0.6-2.2-0.8c0.3-0.6,0.5-1.2,0.5-1.9c0-1.5-0.8-2.7-2-3.4
		c2.3-4.8,5.3-7.6,8.1-7.8c0.6,0,1.1,0.1,1.4,0.4c0.2,0.2,0.3,0.6,0.3,0.9c0,0.4-0.2,0.8-0.5,1.2c-0.8,0.9-2.3,2.7-2.1,4.8
		c0.2,1.9,1.4,3.2,3.2,3.5l2.7,0.5c0,0-0.1-2.9-0.1-2.9c0-0.4,0.1-0.5,0.1-0.6c0,0,0,0,0,0c3.4-0.7,11.3-2.5,11.6-11.6
		c0-0.2,0-0.3,0-0.5c0-3.1-1-5.7-2.9-7.7c-2.1-2.2-5.3-3.4-8.9-3.5c-4.3,0-7.9,1.4-10.7,4c0.3-0.6,0.5-1.2,0.8-1.7l1.4-2.7
		c2.3-4.3,4.2-8,4.4-12.6c0-0.2,0-0.4,0-0.6c0-5.5-3.7-12.6-11.9-22.9l-1.8-2.2l-1.8,2.2c-8.2,10.3-11.9,17.4-11.9,22.9
		c0,0.2,0,0.4,0,0.6c0.2,4.6,2.2,8.3,4.4,12.6l1.4,2.7c0.3,0.5,0.5,1.1,0.8,1.7c-2.8-2.6-6.4-4.1-10.7-4c-3.6,0-6.8,1.2-8.9,3.5
		c-1.9,2-2.9,4.7-2.9,7.7c0,0.2,0,0.4,0,0.5C154,219.8,161.9,221.5,165.3,222.3"/>
	<path class="st1" d="M104.8,220.7c1-2.2,1.6-4.2,2.1-6.1c0.8-3,1.6-5.8,3.8-8.7c2.6-3.3,6.3-4.8,10.5-4.7c5.7,0,9.8,3.4,9.6,9.4
		c-0.3,7.7-7.1,8.9-10.3,9.6c-0.9,0.2-1.5,1.2-1.5,2.9c-1-0.2-1.3-0.8-1.4-1.5c-0.1-1.1,0.8-2.3,1.6-3.2c0.7-0.8,1-1.6,1.1-2.4
		c0.2-2.1-1.4-3.9-4-3.8c-3.7,0.2-7.3,3.3-10.1,9.1c-0.3,0.5-0.4,1.5-0.5,2.5h0.4c1.1,0,1.9,0.8,1.9,1.8c0,1-0.9,1.8-1.9,1.8h-0.7
		v0.5c0,0.4-0.1,0.8-0.3,1.1c1.8,0.5,3.9,0.2,5.9,1.3c1.5,0.8,1.9,1.9,2.5,2.8c0.5,0.7,1.2,1.3,2.4,1.4c1.5,0.1,3.2-0.7,3.9-1.2
		c-0.3,3-2.8,5.2-6,5.3c-4.8,0.2-4.3-3.6-7-6.5c-0.6-0.6-1.8-1.2-2.6-1.9c-0.1-0.1-0.7-0.7-0.7-0.7s-0.5,0.6-0.6,0.7
		c-0.8,0.7-2.1,1.3-2.6,1.9c-2.7,2.9-2.2,6.7-7,6.5c-3.2-0.1-5.7-2.3-6-5.3c0.7,0.4,2.4,1.3,3.9,1.2c1.2-0.1,2-0.7,2.5-1.4
		c0.6-0.9,1-2,2.5-2.8c2-1,4.1-0.8,5.9-1.3c-0.2-0.3-0.3-0.7-0.3-1.1v-0.5h-0.7c-1.1,0-1.9-0.8-1.9-1.8c0-1,0.9-1.8,1.9-1.8h0.4
		c0-1-0.2-1.9-0.5-2.5c-2.8-5.8-6.4-8.9-10.1-9.1c-2.6-0.1-4.2,1.7-4,3.8c0.1,0.8,0.4,1.7,1.1,2.4c0.8,0.9,1.7,2.1,1.6,3.2
		c-0.1,0.7-0.4,1.3-1.4,1.5c0.1-1.7-0.6-2.7-1.5-2.9c-3.2-0.7-10-1.9-10.3-9.6c-0.2-5.9,3.9-9.4,9.6-9.4c4.1,0,7.9,1.5,10.5,4.7
		c2.3,2.9,3,5.7,3.9,8.7c0.5,1.9,1.1,3.9,2.2,6.1c0.9-6.7-1.7-14.8-4.5-20.4c-2.7-5.4-5.4-9.4-5.6-14.4c-0.2-4.7,2.8-11.3,11.4-22
		c8.5,10.7,11.6,17.3,11.4,22c-0.2,5-2.9,9-5.6,14.4C106.5,205.9,103.8,214,104.8,220.7 M112.7,198.6c2.3-4.3,4.2-8,4.4-12.6
		c0-0.2,0-0.4,0-0.6c0-5.5-3.7-12.6-11.8-22.9l-1.8-2.2l-1.8,2.2c-8.2,10.3-11.8,17.4-11.8,22.9c0,0.2,0,0.4,0,0.6
		c0.2,4.6,2.2,8.3,4.4,12.6l1.4,2.7c0.3,0.5,0.5,1.1,0.8,1.7c-2.8-2.6-6.4-4.1-10.7-4c-3.6,0-6.8,1.2-8.9,3.5
		c-1.9,2-2.9,4.7-2.9,7.7c0,0.2,0,0.3,0,0.5c0.3,9.1,8.2,10.8,11.6,11.6c0,0,0,0,0.1,0c0,0.1,0.1,0.2,0.1,0.6c0,0-0.1,2.9-0.1,2.9
		l2.7-0.5c1.8-0.3,3-1.6,3.2-3.5c0.2-2.1-1.3-3.9-2.1-4.8c-0.3-0.4-0.5-0.8-0.5-1.2c0-0.4,0.1-0.7,0.3-0.9c0.3-0.3,0.8-0.5,1.4-0.4
		c2.9,0.1,5.8,3,8.1,7.8c-1.2,0.7-2,1.9-2,3.4c0,0.7,0.2,1.3,0.6,1.9c-0.7,0.2-1.5,0.4-2.2,0.8c-1.8,0.9-2.6,2.2-3.1,3.1l-0.3,0.5
		c-0.2,0.3-0.5,0.4-0.7,0.4c-0.8,0-2-0.5-2.6-0.8l-4-2.5l0.5,4.7c0.4,4.1,3.9,7.1,8.2,7.3c4.6,0.2,6.1-2.6,7.2-4.7
		c0.5-0.9,0.9-1.8,1.6-2.5c0,0,0.9-0.6,0.9-0.6s0.4-0.3,0.7-0.5c0.4,0.3,0.7,0.5,0.7,0.5l0.9,0.6c0.7,0.7,1.1,1.6,1.6,2.5
		c1.1,2.1,2.5,4.9,7.2,4.7c4.3-0.2,7.8-3.3,8.2-7.3l0.5-4.7l-4,2.5c-0.6,0.4-1.7,0.9-2.5,0.8c-0.2,0-0.5-0.1-0.7-0.4
		c0,0-0.3-0.5-0.3-0.5c-0.5-0.9-1.3-2.2-3.1-3.1c-0.8-0.4-1.5-0.6-2.2-0.8c0.3-0.6,0.5-1.2,0.5-1.9c0-1.5-0.8-2.7-2-3.4
		c2.3-4.8,5.3-7.6,8.2-7.8c0.6,0,1.1,0.1,1.3,0.4c0.2,0.2,0.4,0.6,0.3,0.9c0,0.4-0.2,0.8-0.5,1.2c-0.9,1-2.3,2.7-2.1,4.8
		c0.2,1.9,1.4,3.2,3.2,3.5l2.8,0.5c0,0-0.1-2.9-0.1-2.9c0-0.4,0.1-0.5,0.1-0.6l0,0c3.4-0.7,11.3-2.5,11.6-11.6c0-0.2,0-0.3,0-0.5
		c0-3.1-1-5.7-2.9-7.7c-2.1-2.2-5.3-3.4-8.9-3.5c-4.3,0-7.9,1.4-10.7,4c0.3-0.6,0.5-1.2,0.8-1.7L112.7,198.6z"/>
	<path class="st1" d="M879.7,286.6l9.9-5.2v-1h-23.8v1l9.2,4.9l-15.7,43.9h-0.3l-17.3-45l10.6-3.8v-1h-31.8v1l9.3,3.8l24,58.2
		l-3.3,7.5c-2.1,4.6-5.9,11.8-8.8,14.2c-2.9-4-5.2-6.1-9.5-6.1c-3.8,0-6.4,2.9-6.4,6.4c0,3.5,3.2,6.7,9.3,6.7
		c7.4,0,13.5-6.4,18.7-19.6L879.7,286.6z M821,337.6l-0.3-1c-2.6,0.4-6,0.8-8.2,0.8c-4.5,0-8.2-0.6-10-1.8
		c-2.9-1.9-3.9-4.9-3.9-10.3v-39.4h22v-5.2h-22v-16.6h-1l-8.9,13.7l-10.7,7.2v0.8h10.6v43.5c0,9.9,2.8,14.6,12.8,14.6
		C807.9,344.1,814.9,341.4,821,337.6 M753.2,287.8v50.9l-10.6,3.3v1h30.8v-1l-10.2-3.3v-60.1l-0.6-0.4l-19.2,4.6v0.8L753.2,287.8z
		 M751.5,257.5c0,4.2,3.1,7,6.6,7c4.5,0,7-3.1,7-7.3c0-4-3.2-6.8-6.7-6.8C754,250.4,751.5,253.5,751.5,257.5 M734.1,323.1
		c0-21.5-35-15.2-35-31.8c0-5.9,5.6-10.6,12.1-10.6c7.4,0,13.7,5.9,18.3,16.3l1.2-0.3l-0.4-15.5c-3.9-1.5-11.1-3.2-16.6-3.2
		c-13.4,0-21.9,8.6-21.9,19.6c0,20.9,34.3,15.5,34.3,31.2c0,7.8-5.3,13.4-13.7,13.4c-8.2,0-15.9-6.7-20.3-18.8l-1.3,0.1v17
		c6.4,2.8,12.7,4.3,19.6,4.3C724.2,345,734.1,336.1,734.1,323.1 M684.2,285.7c0-4-2.9-7.4-8.5-7.4c-6.4,0-13.8,6.1-18.2,14.8h-0.3
		v-14.5l-0.6-0.4l-19.1,4.6v0.8l9.6,4.2v50.9l-10,3.3v1h30.5v-1l-10.5-3.3v-41.7c2-5.2,8.1-10.3,13.2-10.7c1,4.2,3.3,6.5,7.1,6.5
		C681.5,292.8,684.2,289.8,684.2,285.7 M582.9,302.4c1-12.4,10.3-21.9,19.2-21.9c9.1,0,14.2,9.2,14.8,21.5L582.9,302.4z
		 M628.6,304.5c0-15.5-8.6-26.2-25.9-26.2c-17.3,0-30.8,14.8-30.8,34.4c0,19.4,12.7,32.5,30.5,32.5c9.1,0,16.9-4.3,25.5-12.5
		l-0.6-1.1c-7.7,4.3-13.9,5.9-20.8,5.9c-16,0-24.5-13.1-23.8-32.9H628.6z M521.8,285.2l10.6-3.8v-1h-31.9v1l9.5,3.8l24.8,59.2h1.7
		l24.5-57.8l10.2-5.2v-1h-24.5v1l9.6,4.9l-8.9,23.8l-7.9,19.5h-0.3L521.8,285.2z M477.9,287.8v50.9l-10.6,3.3v1h30.8v-1l-10.2-3.3
		v-60.1l-0.6-0.4l-19.2,4.6v0.8L477.9,287.8z M476.3,257.5c0,4.2,3.1,7,6.5,7c4.5,0,7-3.1,7-7.3c0-4-3.2-6.8-6.7-6.8
		C478.8,250.4,476.3,253.5,476.3,257.5 M451.5,297.6c0-9.9-3.8-19.4-16.3-19.4c-7.5,0-15.5,3.9-23.8,11.7H411v-11.4l-0.6-0.4
		l-19.1,4.6v0.8l9.6,4.2v50.9l-10,3.3v1h29.5v-1l-9.5-3.3v-46.4c5.6-3.2,10.6-5.9,16.4-5.9c10,0,13.9,6.7,13.9,17.3v35l-9.6,3.3v1
		h29.7v-1l-10-3.3V297.6z M371.6,259.5V311c0,14.8-7.7,27.4-24.4,27.4c-18.1,0-28-7.7-28-27.3v-53l14.6-2.5v-1.5h-41.8v1.5l14.6,2.5
		v55.9c0,20.6,12.4,31.2,34.6,31.2c19.6,0,33.7-13.4,33.7-31.2v-54.6l11.3-3.8v-1.5h-25.9v1.5L371.6,259.5z"/>
	<path class="st1" d="M718.5,166.2c0-4-2.9-7.4-8.5-7.4c-6.4,0-13.8,6.1-18.3,14.8h-0.3v-14.5l-0.6-0.4l-19.1,4.6v0.8l9.6,4.2v50.9
		l-10,3.3v1h30.5v-1l-10.5-3.3v-41.7c2-5.2,8.1-10.3,13.2-10.7c1,4.2,3.3,6.5,7.1,6.5C715.8,173.3,718.5,170.4,718.5,166.2
		 M617.1,182.9c1-12.4,10.3-21.9,19.2-21.9c9.1,0,14.2,9.2,14.8,21.5L617.1,182.9z M662.8,185c0-15.5-8.6-26.2-25.9-26.2
		s-30.8,14.8-30.8,34.4c0,19.4,12.7,32.5,30.5,32.5c9.1,0,16.9-4.3,25.5-12.5l-0.6-1.1c-7.7,4.3-13.9,5.9-20.8,5.9
		c-16,0-24.5-13.1-23.8-32.9H662.8z M590.3,178.2c0-9.9-3.8-19.4-16.3-19.4c-7.5,0-15.5,3.9-23.8,11.7h-0.3v-11.4l-0.6-0.4
		l-19.1,4.6v0.8l9.6,4.2v50.9l-10,3.3v1h29.5v-1l-9.5-3.3v-46.4c5.6-3.2,10.6-5.9,16.4-5.9c10,0,13.9,6.7,13.9,17.3v35l-9.6,3.3v1
		h29.7v-1l-10-3.3V178.2z M526,218.2l-0.3-1c-2.6,0.4-6,0.8-8.2,0.8c-4.5,0-8.2-0.6-10-1.8c-2.9-2-3.9-4.9-3.9-10.3v-39.4h22v-5.2
		h-22v-16.6h-1l-8.9,13.7l-10.7,7.2v0.8h10.6V210c0,9.9,2.8,14.6,12.8,14.6C512.9,224.6,519.9,222,526,218.2 M479.6,166.2
		c0-4-2.9-7.4-8.5-7.4c-6.4,0-13.8,6.1-18.3,14.8h-0.3v-14.5l-0.6-0.4l-19.1,4.6v0.8l9.6,4.2v50.9l-10,3.3v1H463v-1l-10.4-3.3v-41.7
		c1.9-5.2,8.1-10.3,13.2-10.7c1,4.2,3.3,6.5,7.1,6.5C477,173.3,479.6,170.4,479.6,166.2 M407.1,213.2c-4.7,3.5-10,5.4-14.5,5.4
		c-7.2,0-11.6-3.3-11.6-9.8c0-7.5,8.1-16.2,26.1-16.2V213.2z M417.2,178.8c0-12.8-6-19.8-18.5-19.8c-11.7,0-25.9,7.1-25.9,15
		c0,3.6,2.1,6.4,6.3,6.4c3.9,0,6.1-2.8,6.1-6.3c0-2.6-1.5-5.4-4-7.5c3.2-1.3,7.3-2,11-2c9.1,0,15,5.6,15,15.3v9.5
		c-21.7,2.5-36.8,8.8-36.8,21.3c0,8.9,5.9,14.9,14.9,14.9c7.5,0,15.5-4.3,21.9-10.7h0.3c0,7.4,2.6,10.7,7.9,10.7c4.6,0,9.6-2,13.7-4
		l-0.1-1c-8.5,1-11.7-0.7-11.7-5.2V178.8z M352,158.7c0,14.5-7.9,22.3-21.5,22.3c-4.2,0-7.7-0.3-10.2-0.7v-42.1
		c2.9-0.3,6.1-0.6,9.6-0.6C343.1,137.7,352,145.5,352,158.7 M365.6,159.1c0-13.7-10.6-24.4-31.9-24.4h-40.3v1.5l14.6,2.5v80.7
		l-14.6,2.5v1.5H335V222l-14.6-2.5v-36.4c4.5,0.7,9.5,1.1,14.1,1.1C354.6,184.2,365.6,171.5,365.6,159.1"/>
</g>
<g>
	<g>
		<g>
			<path class="st2" d="M61.3,15.8c-5.8,17.5-13.1,39.1-19.8,55.3c14.1,16.4,17.3,30.8,17.3,43.2c0,11.9-2.5,20.6-8.5,24.7
				c-3.1,2.1-7.1,3.5-11.2,4.2c-4,0.4-8.9,0.4-13.7,0.2c-0.2-4.8-1.7-12.1-4.6-16.6c4.4,0.4,7.9,0.4,10.6,0.2c2.5,0,4.6-0.6,6.4-1.9
				c2.9-2.1,3.7-7.1,3.7-13.1c0-10.4-3.3-23.9-16.8-38.9c5.2-13.9,10.6-32.4,14.6-46.6H17v164.7H0V9.2h45.7l2.9-0.6L61.3,15.8z
				 M101.5,102.9c-2.1,4.4-4.2,8.5-6.7,12.5h81.3l-0.6,7.1c-2.1,40.5-4.8,56.3-10,62.2c-3.3,3.9-6.9,5.4-11.9,6
				c-4.2,0.6-11.4,0.8-19.1,0.4c-0.4-5-1.9-11.8-4.4-16.2c6.4,0.6,12.3,0.8,14.8,0.8c2.7,0,4.2-0.2,5.8-2.1c2.7-3.5,4.8-14.8,6.6-43
				h-9.8c-8.7,24.5-23.3,46.2-40.1,60.1c-2.5-2.7-8.7-8.3-12.3-11c15-11.4,27.9-28.9,35.3-49.1h-14.1
				c-11.8,23.1-30.6,43.2-50.1,56.3c-2.1-3.1-7.5-9.4-10.8-12.3c17-10.4,32.8-26,43.2-44.1H84.4c-7.3,9.1-15.4,16.8-24.1,23.1
				c-2.5-3.3-8.7-9.1-12.1-12.1c14.3-9.1,27.2-22.9,35.5-38.7H58.8V87.1h123.7v15.8H101.5z M166.5,76.7H75.9V8.3h90.6V76.7z
				 M148.2,22.5H93.6v13.3h54.7V22.5z M148.2,49.1H93.6v13.5h54.7V49.1z"/>
			<path class="st2" d="M260.9,136.6v18.7H243V12.5h69.2v124.1H260.9z M260.9,30.1v34.9h33.5V30.1H260.9z M294.3,118.7V82.3h-33.5
				v36.4H294.3z M419.3,167.6c0,10.8-2.7,16.6-9.8,19.8c-7.3,3.1-18.7,3.5-36.2,3.5c-1-5.2-4.2-13.7-7.1-18.7
				c12.5,0.4,25.2,0.2,28.9,0.2c3.5-0.2,5-1.5,5-5v-41.6h-55.7c-4.8,24.5-15.6,49.3-39.1,66.9c-2.7-3.9-10.2-10.6-14.3-13.3
				c34.7-26,38.3-64.9,38.3-96.7V8.9h90V167.6z M400.2,108.1v-32h-52v6.9c0,7.9-0.2,16.4-1,25.2H400.2z M348.2,26.8v31.6h52V26.8
				H348.2z"/>
			<path class="st2" d="M621.3,90.4c-8.1,20.2-19.1,36.8-32.6,50.7c20.8,15.6,47.6,26.2,80.9,31.6c-4.6,4.6-10,13.1-12.9,18.5
				c-34.5-6.6-61.9-18.7-83.4-36.6c-22.7,17.5-50.5,29.1-83.2,37.2c-2.3-4.8-8.3-13.7-12.3-18.3c32.4-6.7,59.7-17.1,80.9-32.6
				c-12.7-13.9-22.7-30.3-30.6-49.7l18.5-5.6c6.4,16.2,15.4,30.3,27,42.2c11.6-11.9,20.8-26.2,27-43.2L621.3,90.4z M554,56.5
				c-14.8,19.8-37.6,39.3-57.4,51.4c-3.5-4-11.2-11.4-16-15.2c19.7-10.2,41.2-26.6,53.4-43.7L554,56.5z M663.9,44.9H482.7V25.8h80.2
				V0h20v25.8h81.1V44.9z M611.3,47.8c18.9,12.5,43.2,31.2,55.1,44.9l-17,13.3c-10.8-13.3-34.5-33.1-53.8-46.6L611.3,47.8z"/>
			<path class="st2" d="M831.9,78c14.1,43.2,40.3,78.4,79.6,94.8c-4.8,4.2-11.2,12.3-14.3,18.1c-38.9-18.1-64-51.8-80.2-95.8
				c-10.6,37.6-33.1,73.6-80.2,95.8c-3.1-5.2-9.4-12.1-14.8-16.2c49.5-21.6,69.6-59,78-96.7h-73.8V58h77.3
				c2.5-20.8,2.3-40.7,2.5-57.4h21c-0.2,16.8-0.4,36.8-2.9,57.4h83.8v20H831.9z"/>
		</g>
		<g>
			<path class="st3" d="M61.3,15.8c-5.8,17.5-13.1,39.1-19.8,55.3c14.1,16.4,17.3,30.8,17.3,43.2c0,11.9-2.5,20.6-8.5,24.7
				c-3.1,2.1-7.1,3.5-11.2,4.2c-4,0.4-8.9,0.4-13.7,0.2c-0.2-4.8-1.7-12.1-4.6-16.6c4.4,0.4,7.9,0.4,10.6,0.2c2.5,0,4.6-0.6,6.4-1.9
				c2.9-2.1,3.7-7.1,3.7-13.1c0-10.4-3.3-23.9-16.8-38.9c5.2-13.9,10.6-32.4,14.6-46.6H17v164.7H0V9.2h45.7l2.9-0.6L61.3,15.8z
				 M101.5,102.9c-2.1,4.4-4.2,8.5-6.7,12.5h81.3l-0.6,7.1c-2.1,40.5-4.8,56.3-10,62.2c-3.3,3.9-6.9,5.4-11.9,6
				c-4.2,0.6-11.4,0.8-19.1,0.4c-0.4-5-1.9-11.8-4.4-16.2c6.4,0.6,12.3,0.8,14.8,0.8c2.7,0,4.2-0.2,5.8-2.1c2.7-3.5,4.8-14.8,6.6-43
				h-9.8c-8.7,24.5-23.3,46.2-40.1,60.1c-2.5-2.7-8.7-8.3-12.3-11c15-11.4,27.9-28.9,35.3-49.1h-14.1
				c-11.8,23.1-30.6,43.2-50.1,56.3c-2.1-3.1-7.5-9.4-10.8-12.3c17-10.4,32.8-26,43.2-44.1H84.4c-7.3,9.1-15.4,16.8-24.1,23.1
				c-2.5-3.3-8.7-9.1-12.1-12.1c14.3-9.1,27.2-22.9,35.5-38.7H58.8V87.1h123.7v15.8H101.5z M166.5,76.7H75.9V8.3h90.6V76.7z
				 M148.2,22.5H93.6v13.3h54.7V22.5z M148.2,49.1H93.6v13.5h54.7V49.1z"/>
			<path class="st3" d="M260.9,136.6v18.7H243V12.5h69.2v124.1H260.9z M260.9,30.1v34.9h33.5V30.1H260.9z M294.3,118.7V82.3h-33.5
				v36.4H294.3z M419.3,167.6c0,10.8-2.7,16.6-9.8,19.8c-7.3,3.1-18.7,3.5-36.2,3.5c-1-5.2-4.2-13.7-7.1-18.7
				c12.5,0.4,25.2,0.2,28.9,0.2c3.5-0.2,5-1.5,5-5v-41.6h-55.7c-4.8,24.5-15.6,49.3-39.1,66.9c-2.7-3.9-10.2-10.6-14.3-13.3
				c34.7-26,38.3-64.9,38.3-96.7V8.9h90V167.6z M400.2,108.1v-32h-52v6.9c0,7.9-0.2,16.4-1,25.2H400.2z M348.2,26.8v31.6h52V26.8
				H348.2z"/>
			<path class="st3" d="M621.3,90.4c-8.1,20.2-19.1,36.8-32.6,50.7c20.8,15.6,47.6,26.2,80.9,31.6c-4.6,4.6-10,13.1-12.9,18.5
				c-34.5-6.6-61.9-18.7-83.4-36.6c-22.7,17.5-50.5,29.1-83.2,37.2c-2.3-4.8-8.3-13.7-12.3-18.3c32.4-6.7,59.7-17.1,80.9-32.6
				c-12.7-13.9-22.7-30.3-30.6-49.7l18.5-5.6c6.4,16.2,15.4,30.3,27,42.2c11.6-11.9,20.8-26.2,27-43.2L621.3,90.4z M554,56.5
				c-14.8,19.8-37.6,39.3-57.4,51.4c-3.5-4-11.2-11.4-16-15.2c19.7-10.2,41.2-26.6,53.4-43.7L554,56.5z M663.9,44.9H482.7V25.8h80.2
				V0h20v25.8h81.1V44.9z M611.3,47.8c18.9,12.5,43.2,31.2,55.1,44.9l-17,13.3c-10.8-13.3-34.5-33.1-53.8-46.6L611.3,47.8z"/>
			<path class="st3" d="M831.9,78c14.1,43.2,40.3,78.4,79.6,94.8c-4.8,4.2-11.2,12.3-14.3,18.1c-38.9-18.1-64-51.8-80.2-95.8
				c-10.6,37.6-33.1,73.6-80.2,95.8c-3.1-5.2-9.4-12.1-14.8-16.2c49.5-21.6,69.6-59,78-96.7h-73.8V58h77.3
				c2.5-20.8,2.3-40.7,2.5-57.4h21c-0.2,16.8-0.4,36.8-2.9,57.4h83.8v20H831.9z"/>
		</g>
	</g>
</g>
<g>
	<path class="st3" d="M853,302.5h47.4v141c0,19.4-4.2,33.4-12.5,42.2c-8.3,8.8-21.7,13.1-40.2,13.1h-60.6
		c-18.4,0-31.8-4.4-40.2-13.1c-8.3-8.8-12.5-22.8-12.5-42.2v-141h47.4v141c0,11.1,5.3,16.6,15.8,16.6h39.5
		c10.5,0,15.8-5.5,15.8-16.6V302.5z"/>
	<path class="st3" d="M167.8,496.1h-50L54.5,380v116.2H7.1V302.5h50l63.2,116.2V302.5h47.4V496.1z"/>
	<path class="st3" d="M245.6,302.5h50l43.5,83.5l43.5-83.5h50l-69.8,131.9v61.7h-47.4v-61.7L245.6,302.5z"/>
	<path class="st3" d="M563.6,341.3h84.3v-38.7H553c-18.4,0-31.8,4.4-40.2,13.1c-8.3,8.8-12.5,22.8-12.5,42.2v85.7
		c0,19.4,4.2,33.4,12.5,42.2c8.3,8.8,21.7,13.1,40.2,13.1h94.8v-38.7h-84.3c-10.5,0-15.8-5.5-15.8-16.6v-85.7
		C547.8,346.8,553,341.3,563.6,341.3z"/>
</g>
</svg>
