<?xml version="1.0" encoding="utf-8"?>
<!-- Generator: Adobe Illustrator 27.8.1, SVG Export Plug-In . SVG Version: 6.00 Build 0)  -->
<svg version="1.1" id="Layer_1" xmlns="http://www.w3.org/2000/svg" xmlns:xlink="http://www.w3.org/1999/xlink" x="0px" y="0px"
	 viewBox="0 0 1011.3 208.11" style="enable-background:new 0 0 1011.3 208.11;" xml:space="preserve">
<style type="text/css">
	.st0{fill:#E72656;}
</style>
<g id="g8" transform="matrix(1.3333333,0,0,-1.3333333,0,282.70667)">
	<g id="g10" transform="scale(0.1)">
		<path id="path12" class="st0" d="M789.33,1842.93l-299.4-673.65h598.81L789.33,1842.93z M403.74,975.55L231.36,590.29H0
			l687.27,1505.8h204.14l687.27-1505.8h-231.36l-172.38,385.26H403.74"/>
		<path id="path14" class="st0" d="M2481.36,775.22c229.09,0,356.11,107.86,356.11,248.76c0,145.3-131.56,224.56-349.3,224.56
			h-489.93V775.22H2481.36z M1998.24,1435.65h430.96c220.02,0,340.24,92.46,340.24,242.17c0,138.68-117.95,224.54-324.36,224.54
			h-446.83V1435.65z M3050.68,999.76c0-244.36-217.74-409.47-560.24-409.47h-707.68v1496.99h685
			c315.28,0,508.08-147.5,508.08-383.06c0-158.5-90.73-290.59-244.96-339.01C2946.34,1325.58,3050.68,1180.28,3050.68,999.76"/>
		<path id="path16" class="st0" d="M3851.31,1301.36c220.03,0,385.61,112.28,385.61,297.21c0,182.72-165.58,294.98-385.61,294.98
			h-381.05v-592.19H3851.31z M3470.26,1107.64V590.29h-215.48v1496.99h603.35c347.02,0,591.99-189.32,591.99-488.72
			c0-237.77-151.97-405.07-387.87-466.71l467.25-541.56h-265.38l-449.11,517.35H3470.26"/>
		<path id="path18" class="st0" d="M5840.48,1662.4h-215.48c-29.48,167.32-149.69,277.39-385.58,277.39
			c-208.69,0-347.05-96.86-347.05-250.97c0-125.48,102.08-195.93,283.54-228.95l215.48-41.83
			c283.51-52.83,444.56-171.72,444.56-398.46c0-277.39-233.62-460.11-585.19-460.11c-374.26,0-621.5,191.53-653.25,515.15h215.48
			c34.02-204.72,190.53-328.01,449.11-328.01c217.75,0,351.57,96.86,351.57,246.55c0,103.48-70.3,189.34-258.58,222.35
			l-260.85,48.43c-290.34,52.85-430.95,195.93-430.95,409.47c0,266.38,224.55,446.9,562.51,446.9
			C5518.41,2120.3,5801.92,1992.61,5840.48,1662.4"/>
		<path id="path20" class="st0" d="M7584.72,590.29h-217.74v1032.5l-480.86-766.11h-138.35l-485.42,772.72l4.55-1039.1h-217.76
			v1496.99h158.78l607.87-970.84l607.89,970.84h161.05V590.29"/>
	</g>
</g>
</svg>
