<?xml version="1.0" encoding="utf-8"?>
<!-- Generator: Adobe Illustrator 27.0.0, SVG Export Plug-In . SVG Version: 6.00 Build 0)  -->
<svg version="1.1" id="Layer_1" xmlns="http://www.w3.org/2000/svg" xmlns:xlink="http://www.w3.org/1999/xlink" x="0px" y="0px"
	 viewBox="0 0 616.7 494.63" style="enable-background:new 0 0 616.7 494.63;" xml:space="preserve">
<style type="text/css">
	.st0{fill:#1C5FAA;}
	.st1{fill:#231F20;}
</style>
<g>
	<path class="st0" d="M616.7,244.72V0H8.7v244.72H616.7z M253.17,23.51L211.18,220.6h-65.87L103.9,84.22h-0.57L75.77,220.6H25.82
		L68.15,23.51h66.07l40.59,136.65h0.58l27.8-136.65H253.17z M441.54,23.51L400.39,220.6h-53.06l17.71-84.42h-62.86L284.6,220.6
		h-53.03l41.13-197.08h53.07L310.16,98.9h62.71l15.62-75.38H441.54z M593.94,28.87l-12.79,39.24c-13.71-6.24-28.64-9.31-43.7-9.01
		c-20.99,0-38.01,3.09-38.01,18.92c0,27.92,76.91,17.5,76.91,77.36c0,54.48-50.82,68.6-96.78,68.6c-20.8-0.5-41.43-3.93-61.29-10.18
		l12.49-40.12c10.48,6.79,31.51,11.32,48.8,11.32c16.48,0,42.27-3.12,42.27-23.44c0-31.67-76.9-19.75-76.9-75.35
		c0-50.85,44.82-66.22,88.26-66.22"/>
	<path class="st1" d="M0,335.73h71.17v19H24.19v29.7h43.01v19.01H24.19v33.86h47.32v18.97H0V335.73z M90.51,367.34h21.95v12.12h0.35
		c7.24-10.18,17.09-14.16,29.18-14.16c21.08,0,30.23,14.85,30.23,34.89v56.11h-23.03V408.8c0-10.88-0.17-25.57-15.03-25.57
		c-16.75,0-20.38,18.13-20.38,29.54v43.5H90.75L90.51,367.34z M274.33,367.34v80.3c0,24.18-9.67,46.98-46.99,46.98
		c-10.54,0.09-21.01-1.98-30.74-6.04l1.89-19.69c7.09,3.79,18.67,7.77,25.91,7.77c25.57,0,26.78-19.18,26.78-34.55h-0.35
		c-4.32,7.6-14.68,14.17-27.64,14.17c-26.26,0-36.28-21.06-36.28-44.88c0-21.43,11.05-46.07,37.65-46.07
		c11.74,0,20.9,3.97,27.29,14.16h0.35V367.4L274.33,367.34z M251.29,410.87c0-15.2-5.76-27.64-19.34-27.64
		c-15.73,0-20.74,14.4-20.74,28.16c0,12.09,6.39,26.95,19.69,26.95c14.4,0,20.28-12.61,20.28-27.47H251.29z M295.23,326.75h23.03
		v129.56h-23.03V326.75z M343.24,372.01c9.76-4.29,20.27-6.58,30.92-6.73c27.09,0,38.36,11.23,38.36,37.43v11.52
		c0,8.98,0.13,15.71,0.35,22.28c0.2,6.57,0.51,12.96,1,19.84h-20.35c-0.66-4.41-1.01-8.84-1.05-13.3h-0.35
		c-5.77,9.63-16.22,15.48-27.46,15.37c-15.73,0-31.1-9.5-31.1-26.43c0-13.27,6.39-21.04,15.2-25.36c8.8-4.32,20.15-5.19,29.89-5.19
		h12.78c0-14.4-6.39-19.17-20.15-19.17c-9.96,0.2-19.57,3.59-27.46,9.67L343.24,372.01z M370.37,441.42
		c6.39,0.16,12.45-2.81,16.24-7.95c3.59-5.4,5.28-11.82,4.83-18.28h-10.02c-10.36,0-25.73,1.72-25.73,15.37
		C355.69,438.14,362.17,441.42,370.37,441.42L370.37,441.42z M431.87,367.34h21.94v12.12h0.5c7.26-10.18,17.09-14.16,29.19-14.16
		c21.07,0,30.23,14.85,30.23,34.89v56.11h-23.03V408.8c0-10.88-0.18-25.57-15.04-25.57c-16.75,0-20.38,18.13-20.38,29.54v43.5
		h-23.03L431.87,367.34z M593.22,446.29h-0.35c-6.91,8.64-16.42,12.06-27.31,12.06c-27.29,0-37.43-22.46-37.43-46.79
		c0-24.32,10.03-46.29,37.43-46.29c10.38-0.47,20.32,4.18,26.62,12.43h0.31v-50.96h23.03v129.56H593.1L593.22,446.29z
		 M571.97,440.53c15.37,0,20.38-16.24,20.38-28.79c0-12.56-5.76-28.34-20.73-28.34c-14.98,0-19.18,16.42-19.18,28.34
		c0,11.91,4.32,28.67,19.52,28.67V440.53z M571.97,440.53"/>
</g>
</svg>
